<svg width="150" height="120" viewBox="0 0 150 120" fill="none" xmlns="http://www.w3.org/2000/svg">
<g clip-path="url(#clip0_40000185_11939)">
<path d="M25.639 43.2399C25.5517 43.406 22.9264 48.4749 22.9264 48.4749C22.8703 48.5795 22.9513 48.7025 23.0698 48.7025H26.0443H26.2501C26.7303 48.7025 27.092 48.7333 27.4537 48.8809C27.8839 49.0532 28.2456 49.2992 28.5325 49.6068C28.7445 49.8283 28.8879 50.0067 28.9503 50.1358L32.5422 57.038C32.5983 57.1487 32.7666 57.1487 32.8228 57.038L35.9095 51.0893C35.9345 51.0463 35.9345 50.9909 35.9095 50.9479L34.1323 47.5337C32.9412 45.4052 30.8959 43.8735 28.52 43.326C27.5908 43.1168 26.088 43.0061 25.9695 43C25.851 42.9938 25.7201 43.0738 25.6328 43.2399H25.639Z" fill="white"/>
<path d="M22.8073 71.5128C22.8634 71.4082 22.7823 71.2851 22.6639 71.2851L20.6933 71.2974H18.4546C18.2862 71.2974 18.0992 71.2913 17.9994 71.2544C17.0515 70.9407 15.2431 67.994 14.9999 65.3796L14.9875 65.2996C14.5572 62.8574 13.3911 61.3564 12.1813 60.2553C12.0441 60.1323 12.0441 59.9231 12.1813 59.8001C13.3911 58.6989 14.5572 57.2102 14.9875 54.7803C14.9875 54.768 14.9875 54.7434 14.9937 54.7127C14.9937 54.6942 14.9999 54.6758 15.0062 54.6573C15.2307 52.2705 16.3905 48.7149 18.6604 48.7149H19.945C20.0074 48.7149 20.0572 48.6841 20.0884 48.6287L22.8821 43.2276C22.9382 43.123 22.8572 43 22.7387 43H18.3985C17.962 43 17.5754 43.0492 17.2511 43.0923C15.2119 43.3691 13.204 44.9193 11.6076 47.4599C10.4041 49.3854 9.5934 51.8768 9.39385 54.2575C9.21301 55.3709 7.90347 56.5028 6.74359 57.4994L6.65005 57.5793C6.46298 57.7393 6.28213 57.8931 6.12624 58.0346L4.16816 59.6463C3.93744 59.837 3.93744 60.1876 4.16816 60.3783L6.11377 61.9839C6.26343 62.1192 6.44427 62.273 6.62511 62.433L6.74983 62.5375C7.90347 63.5341 9.21301 64.666 9.38761 65.7425C9.5934 68.1601 10.3978 70.6515 11.6076 72.5708C13.179 75.0745 15.1808 76.6063 17.2573 76.8893C17.7562 76.9508 18.1802 76.9815 18.5793 76.9815C18.6916 76.9815 19.2154 76.9815 19.8639 76.9815C19.9263 76.9815 19.9824 76.9508 20.0074 76.8954L22.8073 71.4943V71.5128Z" fill="white"/>
<path d="M46.1918 49.6007C46.4787 49.2993 46.8403 49.0532 47.2706 48.8748C47.6572 48.7149 48.0563 48.6964 48.6737 48.6964H48.9356C49.3098 48.6964 49.3596 48.6103 49.4469 48.4749C49.4968 48.4011 52.0473 43.4552 52.0473 43.4552C52.1533 43.2461 52.0037 43 51.7667 43H50.3948H48.7485C47.9067 43.0123 47.121 43.1107 46.198 43.326C43.8222 43.8735 41.783 45.3991 40.592 47.5276L28.9869 69.8272C28.831 70.0856 28.7375 70.2271 28.5816 70.3809C28.2823 70.6884 27.8645 70.9345 27.4155 71.0821C26.954 71.2359 26.3679 71.2605 25.7942 71.2667C25.738 71.2667 25.6819 71.2974 25.657 71.3528L22.8571 76.7539C22.8009 76.8585 22.882 76.9815 23.0005 76.9815L24.3225 76.9692L25.0147 76.9815C25.3078 76.9815 25.6071 76.9938 25.9064 76.9938C26.6859 76.9938 27.6088 76.9631 28.5442 76.7478C30.8889 76.2064 32.928 74.6562 34.1503 72.4724L45.774 50.1297C45.8738 49.9452 46.1107 49.693 46.198 49.6007H46.1918Z" fill="white"/>
<path d="M70.5553 59.6647L68.591 58.0469C68.4102 57.8869 68.1919 57.6962 67.9737 57.5055C66.8138 56.509 65.5042 55.3771 65.3234 54.2944C65.1176 51.8768 64.3132 49.3854 63.1097 47.4599C61.5133 44.9193 59.5053 43.3691 57.4662 43.0923C57.1419 43.0492 56.7553 43.0062 56.3188 43H55.1464C55.084 43 55.0342 43.0308 55.003 43.0861L52.2093 48.4749C52.1532 48.5795 52.2342 48.7026 52.3527 48.7026H56.0568C58.333 48.7026 59.4928 52.2582 59.7173 54.645C59.7173 54.6819 59.7298 54.7127 59.7423 54.7434H59.736C60.1725 57.1918 61.3324 58.6928 62.5422 59.7878C62.6794 59.9108 62.6794 60.12 62.5422 60.2491C61.3324 61.3503 60.1663 62.8451 59.736 65.2812L59.7173 65.398C59.4741 67.9879 57.6719 70.9407 56.7241 71.2482C56.6243 71.279 56.431 71.2851 56.2626 71.2913H55.0653C55.003 71.2851 54.9531 71.3159 54.9219 71.3713L52.1345 76.7539C52.0783 76.8585 52.1594 76.9815 52.2717 76.9815L54.0302 76.9938C54.9967 76.9938 55.9883 76.9938 56.1379 76.9938C56.5308 76.9938 56.9486 76.9631 57.4599 76.9077C59.5365 76.6247 61.5444 75.093 63.1159 72.5893C64.3194 70.6638 65.1301 68.1786 65.3296 65.7917C65.5105 64.6783 66.8262 63.5464 67.9799 62.5437L68.1545 62.3899C68.3166 62.2484 68.4788 62.1131 68.6097 61.99L70.5616 60.3845C70.7923 60.1938 70.786 59.8493 70.5616 59.6647H70.5553Z" fill="white"/>
<path d="M49.3408 76.8032C49.3658 76.754 52.0908 71.5005 52.0908 71.5005C52.147 71.3959 52.0659 71.2729 51.9474 71.2729H50.3947L49.0415 71.2667C48.4304 71.2667 47.7943 71.2421 47.3017 71.0822C46.8527 70.9345 46.4411 70.6885 46.1356 70.3809C45.9921 70.2332 45.8986 70.1041 45.7427 69.8457L42.1758 62.9989C42.1196 62.8882 41.9513 62.8882 41.8951 62.9989L38.8146 68.9476C38.7897 68.9906 38.7897 69.046 38.8146 69.089L40.5731 72.4663C41.7954 74.6501 43.8345 76.2126 46.1792 76.7478C47.258 76.9939 48.9916 76.9939 49.0976 76.9939C49.2036 76.9939 49.2847 76.9078 49.3408 76.8093V76.8032Z" fill="white"/>
<path d="M79.2439 73.2106C76.5188 73.2106 74.8975 71.4389 74.8975 68.4739V63.4172H76.8119V68.4739C76.8119 70.3686 77.6537 71.3713 79.2439 71.3713C80.834 71.3713 81.6759 70.3686 81.6759 68.4739V63.4172H83.5903V68.4739C83.5903 71.4389 81.9627 73.2106 79.2439 73.2106Z" fill="white"/>
<path d="M87.7809 73.2106C86.0223 73.2106 84.2451 72.1895 84.2451 70.2394V69.8641H86.1284V70.2394C86.1284 71.076 86.9702 71.4451 87.8058 71.4451C88.4107 71.4451 89.4272 71.2913 89.4272 70.2701C89.4147 69.4212 88.71 69.1998 87.4691 68.8737C86.1159 68.5231 84.4322 68.0863 84.4322 65.9825C84.4322 64.4138 85.8228 63.2758 87.7372 63.2758C89.6516 63.2758 91.0422 64.4261 91.0422 66.0686V66.4438H89.159V66.0686C89.159 65.3119 88.392 65.0413 87.7372 65.0413C87.0825 65.0413 86.3529 65.3058 86.3529 66.0501C86.3529 66.7268 86.9016 66.936 88.1613 67.2559C89.4895 67.5942 91.3104 68.0556 91.3478 70.2763C91.354 71.0514 91.0921 71.7219 90.587 72.2325C89.9572 72.86 88.9657 73.2045 87.7933 73.2045L87.7809 73.2106Z" fill="white"/>
<path d="M101.637 68.1109C101.562 65.355 99.429 63.2758 96.6728 63.2758C93.9165 63.2758 91.709 65.4657 91.709 68.2586C91.709 71.0514 93.8978 73.2045 96.6915 73.2045C98.5435 73.2045 100.315 72.2018 101.206 70.6454L101.531 70.0856H99.2856L99.1734 70.2209C98.5747 70.9468 97.6643 71.3651 96.6728 71.3651C95.1699 71.3651 93.9664 70.3563 93.7232 68.966H101.568L101.612 68.64C101.63 68.48 101.655 68.2893 101.63 68.0986L101.637 68.1109ZM93.7855 67.2682C94.1846 65.9825 95.3258 65.1212 96.6977 65.1212C98.0696 65.1212 99.1422 65.9825 99.5538 67.2682H93.7918H93.7855Z" fill="white"/>
<path d="M137.662 68.1109C137.587 65.355 135.454 63.2758 132.698 63.2758C129.942 63.2758 127.734 65.4657 127.734 68.2586C127.734 71.0514 129.923 73.2045 132.717 73.2045C134.569 73.2045 136.34 72.2018 137.232 70.6454L137.556 70.0856H135.311L135.199 70.2209C134.6 70.9468 133.69 71.3651 132.698 71.3651C131.195 71.3651 129.992 70.3563 129.749 68.966H137.593L137.637 68.64C137.656 68.48 137.681 68.2893 137.656 68.0986L137.662 68.1109ZM129.811 67.2682C130.21 65.9825 131.351 65.1212 132.723 65.1212C134.095 65.1212 135.168 65.9825 135.579 67.2682H129.817H129.811Z" fill="white"/>
<path d="M104.25 73.0691H102.336V68.0679C102.336 65.1274 103.858 63.368 106.414 63.368C106.533 63.368 106.645 63.368 106.757 63.3926L107.063 63.4542V65.3058L106.608 65.2135C106.539 65.2012 106.477 65.2012 106.408 65.2012C104.625 65.2012 104.244 66.7576 104.244 68.0617V73.063L104.25 73.0691Z" fill="white"/>
<path d="M118.973 76.6309H117.059V68.2462C117.059 65.5087 119.31 63.2819 122.072 63.2819C124.835 63.2819 127.105 65.5087 127.105 68.2462C127.105 70.9837 124.847 73.2106 122.072 73.2106C120.9 73.2106 119.802 72.7615 118.973 71.9803V76.6247V76.6309ZM122.072 65.115C120.295 65.115 118.954 66.4622 118.954 68.2462C118.954 70.0302 120.326 71.3712 122.072 71.3712C123.818 71.3712 125.19 69.9994 125.19 68.2462C125.19 66.493 123.818 65.115 122.072 65.115Z" fill="white"/>
<path d="M140.188 73.0691H138.273V68.0679C138.273 65.1274 139.795 63.368 142.352 63.368C142.464 63.368 142.582 63.368 142.695 63.3926L143 63.4542V65.3058L142.545 65.2135C142.476 65.2012 142.414 65.2074 142.345 65.2012C140.562 65.2012 140.182 66.7576 140.182 68.0617V73.063L140.188 73.0691Z" fill="white"/>
<path d="M111.49 65.8778L109.607 63.4233H107.337L110.349 67.3973L111.49 65.8778Z" fill="white"/>
<path d="M113.155 68.0863L116.666 63.4233H114.402L113.467 64.6291L110.866 68.0863L107.062 73.0691H109.37L112.008 69.6365L114.633 73.0691H116.921L113.155 68.0863Z" fill="white"/>
<path d="M75.5282 49.3361C75.5282 49.127 75.5324 48.7681 75.5407 48.2596C75.179 48.7702 74.967 49.0101 74.4619 49.4591C74.2062 48.7886 74.0815 48.5487 73.6699 47.8597C75.1416 46.6171 76.3077 44.8331 76.6133 43.3998L78.3281 43.8612C78.2221 44.058 78.1473 44.218 78.0101 44.5071C77.7233 45.153 77.4613 45.6328 77.0685 46.2911V50.5111C77.0685 51.2431 77.081 51.6799 77.1433 52.1105H75.4409C75.5033 51.7537 75.5157 51.4646 75.5157 50.794V49.3423L75.5282 49.3361ZM73.8258 55.943C74.6614 54.8357 75.0231 54.0236 75.3287 52.6026L76.7692 53.187C76.3576 54.9095 76.1144 55.5062 75.2351 56.9149L73.8258 55.943ZM79.2635 55.1802C79.2635 55.66 79.4444 55.7215 81.0096 55.7215C81.6145 55.7215 82.4813 55.66 82.6309 55.6169C83.0986 55.4816 83.1921 55.2109 83.2046 53.956C83.8095 54.2267 84.1462 54.3005 84.8135 54.3927C84.695 55.906 84.5391 56.4289 84.1026 56.7734C83.691 57.0872 82.9178 57.1917 80.7789 57.1917C78.1411 57.1917 77.6547 56.9641 77.6547 55.7092V53.8699C77.6547 53.1194 77.6422 52.8979 77.5611 52.4488H79.3384C79.276 52.8364 79.2635 53.0948 79.2635 53.8699V55.1863V55.1802ZM87.6383 46.4326C87.3764 46.3915 86.9358 46.3669 86.3163 46.3587C86.0607 47.2138 85.9546 47.466 85.5867 48.0935C85.2687 48.6164 85.144 48.7948 84.6888 49.3238C85.7676 50.0128 86.6468 50.3573 87.9813 50.628C87.5261 51.2247 87.3016 51.5999 87.0584 52.2028C85.5867 51.6922 84.6326 51.1816 83.585 50.388C82.4937 51.1939 81.6581 51.6184 80.1864 52.1228C79.9744 51.6122 79.8372 51.36 79.5628 50.9724H77.9727C78.0351 50.5234 78.0475 50.1051 78.0475 49.4161V46.5556C78.0475 45.762 78.0351 45.4483 77.9852 45.0915H79.6065C79.5628 45.5283 79.5441 45.7805 79.5441 46.5125V47.1092C80.2114 46.4818 80.6978 45.8358 81.0906 44.9992C81.4274 44.2979 81.5895 43.8304 81.6643 43.3813L83.3979 43.6951C83.3667 43.7689 83.3356 43.8304 83.3231 43.8612C83.2441 44.0416 83.1672 44.2118 83.0924 44.3718C83.0175 44.5686 82.9864 44.6424 82.8492 44.9131H86.1293C86.7528 44.9131 87.2081 44.8823 87.6321 44.8208V46.4387L87.6383 46.4326ZM79.5504 49.533C79.5504 50.0251 79.5629 50.3696 79.5816 50.6403C80.7352 50.3573 81.5708 49.982 82.4376 49.3853C81.9387 48.8932 81.5895 48.4441 81.1156 47.6936C80.81 48.0504 80.6167 48.2596 80.1927 48.6041C79.9619 48.2596 79.8123 48.0627 79.5566 47.8105V49.533H79.5504ZM81.6893 54.7557C81.0844 53.8883 80.7165 53.47 79.8809 52.7195L81.0221 51.9567C81.7517 52.5411 82.1757 52.9779 82.8741 53.796L81.6893 54.7557ZM82.0822 46.3587C82.051 46.4202 82.0385 46.4326 81.9886 46.4941C82.5374 47.4353 82.8055 47.7982 83.5226 48.438C84.0839 47.7921 84.4206 47.2077 84.6763 46.3587H82.0822ZM86.3163 56.7796C85.6616 55.1494 85.2562 54.3989 84.3146 53.0948L85.7551 52.4058C86.6219 53.6176 87.1831 54.5896 87.8317 55.9245L86.3163 56.7796Z" fill="white"/>
<path d="M94.3158 45.9712C94.0103 45.5221 93.4677 44.8947 92.9377 44.4149L93.9666 43.486C94.5902 43.9781 95.0579 44.4764 95.669 45.2515L94.8334 45.9712H95.2886C95.8935 45.9712 96.0619 45.9589 96.4423 45.9097V47.3492C96.1554 47.3369 95.8062 47.3184 95.3635 47.3184H93.2682C92.707 47.3184 92.4638 47.3307 92.1582 47.3799V45.8974C92.5074 45.9589 92.7506 45.9712 93.2682 45.9712H94.3158ZM92.4762 53.6976C92.4762 53.2178 92.4638 52.8426 92.4139 52.4427C92.7631 52.4858 92.8816 52.4858 93.4179 52.4858H95.1951C95.694 52.4858 95.9247 52.4858 96.1991 52.455C96.1679 52.7995 96.1679 52.9041 96.1679 53.6546V55.8999C96.1679 56.4228 96.1804 56.7058 96.2115 57.1549H94.9519V56.6012H93.7234V57.4071H92.4014C92.4638 57.0195 92.4762 56.6443 92.4762 56.0168V53.6976ZM92.6009 48.1427C92.8878 48.1735 93.0874 48.1858 93.6611 48.1858H95.0267C95.5755 48.1858 95.8 48.1735 96.118 48.1427V49.5207C95.7688 49.4899 95.5692 49.4776 95.0267 49.4776H93.6611C93.1123 49.4776 92.9003 49.4899 92.6009 49.5207V48.1427ZM92.6009 50.2343C92.8878 50.265 93.0874 50.2773 93.6611 50.2773H95.0267C95.5879 50.2773 95.8 50.265 96.118 50.2343V51.6123C95.7563 51.5692 95.5879 51.5692 95.0267 51.5692H93.6611C93.1123 51.5692 92.9003 51.5815 92.6009 51.6123V50.2343ZM93.7234 55.3278H94.9706V53.7592H93.7234V55.3278ZM103.495 49.2931C103.539 50.3389 103.62 51.2247 103.738 52.1228C104.193 51.2985 104.53 50.4434 104.649 49.8467L105.952 50.548C105.827 50.7449 105.74 50.9048 105.403 51.643C104.961 52.6027 104.692 53.1071 104.187 53.876C104.474 54.6265 104.886 55.2848 105.054 55.2848C105.191 55.2848 105.254 54.8049 105.285 53.427C105.74 53.833 106.014 54.0237 106.451 54.2328C106.345 55.2356 106.239 55.82 106.089 56.2383C105.877 56.7796 105.559 57.0749 105.166 57.0749C104.512 57.0749 103.769 56.3551 103.221 55.2048C102.566 55.9676 101.843 56.6443 100.901 57.3579C100.564 56.835 100.265 56.4905 99.8533 56.2075C100.246 55.9676 100.352 55.8938 100.67 55.6846H98.3317V56.675H96.9037C96.9661 56.2875 96.9786 55.8815 96.9786 55.3401V51.3416C96.9786 50.6711 96.9661 50.4434 96.9162 50.0067C97.2218 50.0497 97.3589 50.0497 97.9015 50.0497H100.464C100.907 50.0497 101.1 50.0374 101.45 50.0067C101.419 50.3204 101.406 50.6218 101.406 51.3539V54.4974L101.419 55.0202V55.0818C101.861 54.6758 102.21 54.2882 102.647 53.7346C102.31 52.5965 102.129 51.157 102.055 49.2869H98.0012C97.2903 49.2869 96.9536 49.2992 96.4672 49.3608V47.8659C96.8913 47.909 96.9349 47.909 97.6209 47.9274L97.5897 47.7306C97.546 47.3246 97.4088 46.6356 97.2716 46.205C97.0409 46.2173 96.9848 46.2173 96.7541 46.248V44.9008C97.0721 44.9439 97.3153 44.9624 97.7393 44.9624H98.5126C98.3442 44.4825 98.2569 44.2918 98.0698 43.9904L99.4979 43.5413C99.7722 44.095 99.9531 44.5133 100.072 44.9624H100.558C101.107 44.9624 101.362 44.95 101.637 44.9008V46.248C101.483 46.2275 101.3 46.2132 101.088 46.205C100.982 46.8324 100.888 47.2077 100.664 47.9274H101.998C101.967 47.3 101.955 46.1742 101.955 45.1407C101.955 44.4087 101.924 43.9719 101.861 43.689H103.483C103.408 44.2549 103.408 44.421 103.408 45.9651C103.408 46.5351 103.418 47.1892 103.439 47.9274H104.337C105.129 47.9274 105.503 47.9151 106.008 47.8352V49.3792C105.459 49.3177 104.961 49.2869 104.324 49.2869H103.476L103.495 49.2931ZM98.3505 52.2274H100.065V51.2555H98.3505V52.2274ZM98.3505 54.4112H100.065V53.4085H98.3505V54.4112ZM98.6124 46.2111C98.7038 46.6212 98.7953 47.1954 98.8867 47.9336H99.4168C99.66 47.2138 99.6912 47.0477 99.7972 46.2111H98.6124ZM104.786 44.3226C105.303 45.0731 105.634 45.7005 105.983 46.5802L104.83 47.2261C104.524 46.2542 104.237 45.6513 103.72 44.8455L104.78 44.3226H104.786Z" fill="white"/>
<path d="M114.059 45.8052C114.501 45.8052 114.726 45.7929 114.907 45.7621V46.9617C114.695 46.9309 114.452 46.9186 114.059 46.9186H113.105L113.136 47.4108H114.059C114.501 47.4108 114.726 47.3985 114.907 47.3677V48.5365C114.707 48.5057 114.483 48.4934 114.059 48.4934H113.179L113.211 49.0348H121.56L121.592 48.4934H120.669C120.257 48.4934 120.014 48.5057 119.821 48.5365V47.3677C120.001 47.3985 120.213 47.4108 120.669 47.4108H121.673L121.704 46.8879H120.669C120.288 46.8879 120.033 46.9002 119.821 46.9309V45.7314C119.989 45.7621 120.245 45.7744 120.669 45.7744H121.76L121.791 45.2515H120.681C120.301 45.2515 120.058 45.2638 119.802 45.2823V43.9658C120.026 44.0089 120.332 44.0274 120.831 44.0274H122.334C122.776 44.0274 123.076 44.0151 123.35 43.9843C123.307 44.3411 123.275 44.6548 123.257 45.0608L123.026 49.0286H123.194C123.512 49.0163 123.768 48.9979 124.092 48.9671C124.049 49.3239 124.03 49.613 124.03 50.1667V50.7326C124.03 51.1694 124.042 51.4093 124.092 51.7969H122.515V50.3143H112.238V51.7969H110.629C110.691 51.3909 110.704 51.1202 110.704 50.7019V50.1605C110.704 49.6499 110.691 49.3239 110.641 48.961C110.991 49.004 111.415 49.0225 111.764 49.0225L111.583 45.3869C111.571 45.0116 111.539 44.741 111.489 44.4149C112.992 44.2058 113.809 43.9658 114.452 43.5783L115.162 44.7902C115.1 44.8025 115.088 44.8025 114.994 44.8332C114.283 45.0854 113.872 45.2085 113.023 45.3746L113.036 45.8113H114.052L114.059 45.8052ZM122.147 53.4578C123.151 53.4578 123.637 53.4455 124.105 53.3655V54.9219C123.618 54.8604 123.119 54.8296 122.134 54.8296H118.237V55.9369C118.237 56.5644 118.037 56.9581 117.644 57.1488C117.295 57.3272 116.809 57.3887 115.78 57.3887C115.493 57.3887 115.281 57.3887 114.826 57.3764C114.794 56.8535 114.707 56.4905 114.476 55.8938C115.175 55.9554 115.651 55.9861 115.904 55.9861C116.559 55.9861 116.665 55.943 116.665 55.5801V54.8296H112.599C111.614 54.8296 111.128 54.8604 110.641 54.9219V53.3655C111.097 53.427 111.583 53.4578 112.587 53.4578H116.671C116.671 53.2302 116.659 53.0702 116.64 52.8426H117.139C117.763 52.6458 118.124 52.4981 118.704 52.1844H114.67C113.928 52.1844 113.516 52.1967 113.136 52.2459V50.8372C113.547 50.8987 113.847 50.911 114.533 50.911H119.74C120.257 50.911 120.606 50.8987 120.85 50.8372L121.685 51.723C121.473 51.8153 121.411 51.8461 120.469 52.4858C119.97 52.7996 119.091 53.2363 118.449 53.4578H122.165H122.147ZM119.415 46.9002C118.96 47.257 118.761 47.4231 118.536 47.5768C118.779 47.7245 118.979 47.8598 119.459 48.192L118.58 48.9979C118.112 48.5919 117.944 48.475 117.532 48.192C116.852 48.5673 116.559 48.7026 115.724 49.0163C115.48 48.598 115.343 48.4196 114.95 48.0751C115.724 47.866 115.998 47.7614 116.497 47.5338C116.179 47.3369 115.998 47.2508 115.493 47.0232L116.285 46.3035C116.815 46.5557 116.908 46.6049 117.513 46.9494C117.831 46.7402 117.981 46.6172 118.349 46.2789C118 45.9774 117.788 45.8175 117.532 45.6514C116.877 45.9959 116.609 46.1312 115.817 46.4449C115.562 46.0266 115.362 45.7867 115.056 45.5161C115.736 45.3192 115.979 45.2331 116.484 44.9932C116.104 44.7717 115.954 44.6917 115.437 44.4395L116.148 43.689C116.802 43.9905 117.027 44.1073 117.526 44.4088C117.969 44.1073 118.118 43.9905 118.53 43.5721L119.484 44.3042C119.029 44.661 118.923 44.741 118.53 45.0239C118.761 45.1593 118.941 45.2946 119.397 45.6206L118.667 46.3404L119.409 46.9063L119.415 46.9002Z" fill="white"/>
<path d="M134.17 44.7901C134.126 44.8824 134.126 44.9131 134.064 45.0423C134.245 45.0546 134.669 45.0731 135.174 45.0731H137.145C137.007 44.6978 136.889 44.4764 136.54 44.0088L138.086 43.4552C138.479 44.1319 138.647 44.4764 138.891 45.0731H141.154C141.715 45.0731 142.108 45.0608 142.507 44.9993C142.464 45.313 142.445 45.5221 142.445 46.0758V47.2754C142.445 47.7552 142.458 47.9951 142.507 48.3703H141.067V49.0716C140.687 49.0286 140.337 49.0101 139.882 49.0101H136.334C135.847 49.0101 135.486 49.0224 135.137 49.0716V48.3396H133.727C133.736 48.2781 133.746 48.1878 133.758 48.0689C133.771 47.952 133.79 47.5153 133.79 47.2138V45.7928C133.769 45.8543 133.748 45.9097 133.727 45.9589C133.494 46.5987 133.124 47.5071 132.617 48.6841C133.166 49.5207 133.378 49.9144 133.559 50.4188C133.771 51.0155 133.908 51.723 133.908 52.3074C133.908 53.2055 133.546 53.7715 132.848 53.9683C132.53 54.0729 132.012 54.116 131.358 54.1344C131.314 53.3286 131.22 52.9225 130.977 52.535C131.314 52.5781 131.507 52.5965 131.769 52.5965C132.287 52.5965 132.393 52.4919 132.393 51.9383C132.393 51.4277 132.193 50.7879 131.844 50.142C131.663 49.7852 131.432 49.453 130.965 48.8563C131.432 47.8844 131.888 46.7033 132.237 45.5037H130.734V55.7154C130.734 56.4966 130.746 56.9149 130.809 57.4071H129.106C129.169 56.9272 129.2 56.3736 129.2 55.6846V45.3868C129.2 44.8947 129.188 44.4579 129.156 43.9965C129.443 44.0273 129.78 44.0396 130.216 44.0396H132.505C133.035 44.0396 133.247 44.0273 133.478 43.9781L134.176 44.784L134.17 44.7901ZM137.176 51.4646C137.07 53.064 136.814 54.0421 136.203 54.9833C135.548 56.0291 134.638 56.7365 133.016 57.4563C132.667 56.8719 132.443 56.5889 131.956 56.1398C133.322 55.66 134.126 55.1371 134.762 54.3313C135.143 53.8514 135.398 53.1809 135.536 52.412C135.556 52.2725 135.588 51.9588 135.629 51.4708H135.48C134.75 51.4708 134.476 51.4831 134.052 51.5446V50.0005C134.476 50.062 134.9 50.0743 135.48 50.0743H141.067C141.828 50.0743 142.115 50.062 142.539 50.0005V51.5569C142.096 51.4954 141.672 51.4646 141.067 51.4646H139.714V55.4447C139.714 55.6846 139.82 55.7277 140.381 55.7277C140.911 55.7277 141.079 55.6539 141.173 55.3955C141.266 55.1433 141.31 54.6019 141.372 53.5069C141.89 53.7776 142.133 53.8514 142.813 53.9868C142.557 56.8473 142.295 57.1918 140.294 57.1918C138.672 57.1918 138.155 56.9211 138.155 56.066V51.4523H137.182L137.176 51.4646ZM135.305 47.5891C135.548 47.6014 135.804 47.6198 136.334 47.6198H139.87C140.368 47.6198 140.599 47.6075 140.855 47.5891V46.5126H135.299V47.5891H135.305Z" fill="white"/>
</g>
<defs>
<clipPath id="clip0_40000185_11939">
<rect width="141" height="34" fill="white" transform="translate(4 43)"/>
</clipPath>
</defs>
</svg>
