<svg width="40" height="40" viewBox="0 0 40 40" fill="none" xmlns="http://www.w3.org/2000/svg">
<g clip-path="url(#clip0_1350_42031)">
<path d="M20.25 26C21.9076 26 23.4973 25.3415 24.6694 24.1694C25.8415 22.9973 26.5 21.4076 26.5 19.75C26.5 18.0924 25.8415 16.5027 24.6694 15.3306C23.4973 14.1585 21.9076 13.5 20.25 13.5C18.5924 13.5 17.0027 14.1585 15.8306 15.3306C14.6585 16.5027 14 18.0924 14 19.75C14 21.4076 14.6585 22.9973 15.8306 24.1694C17.0027 25.3415 18.5924 26 20.25 26Z" stroke="#0B1420" stroke-width="2" stroke-linecap="round" stroke-linejoin="round"/>
<path d="M7.5 25.5556V14.4444C7.5 12.6027 8.23164 10.8363 9.53398 9.53398C10.8363 8.23164 12.6027 7.5 14.4444 7.5H25.5556C27.3973 7.5 29.1637 8.23164 30.466 9.53398C31.7684 10.8363 32.5 12.6027 32.5 14.4444V25.5556C32.5 27.3973 31.7684 29.1637 30.466 30.466C29.1637 31.7684 27.3973 32.5 25.5556 32.5H14.4444C12.6027 32.5 10.8363 31.7684 9.53398 30.466C8.23164 29.1637 7.5 27.3973 7.5 25.5556Z" stroke="#0B1420" stroke-width="2"/>
<circle cx="27.5" cy="12.5" r="1.5" fill="#0B1420"/>
</g>
<defs>
<clipPath id="clip0_1350_42031">
<rect width="40" height="40" fill="white"/>
</clipPath>
</defs>
</svg>

