<svg width="40" height="40" viewBox="0 0 40 40" fill="none" xmlns="http://www.w3.org/2000/svg">
<path d="M13.3721 31C13.9244 31 14.3721 30.5523 14.3721 30V13.9764C14.3721 13.4241 13.9244 12.9764 13.3721 12.9764H8.39643C7.84414 12.9764 7.39643 13.4241 7.39643 13.9764V30C7.39643 30.5523 7.84414 31 8.39643 31H13.3721ZM26.0296 30C26.0296 30.5523 26.4774 31 27.0296 31H31.9946H32C32.5523 31 33 30.5523 33 30V21.198C33 19.0228 32.7774 16.864 31.7539 15.2383C30.6637 13.5066 28.8031 12.5746 26.0386 12.5746C24.4958 12.5746 23.211 13.042 22.2288 13.7236C22.1168 13.2937 21.726 12.9764 21.2611 12.9764H16.4889C15.9366 12.9764 15.4889 13.4241 15.4889 13.9764V30C15.4889 30.5523 15.9366 31 16.4889 31H21.4593C22.0116 31 22.4593 30.5523 22.4593 30V22.0659C22.4593 21.0396 22.5661 20.2374 22.8565 19.7108C22.9888 19.471 23.1537 19.2995 23.3695 19.18C23.5912 19.0573 23.9259 18.9569 24.4427 18.9569C24.9205 18.9569 25.1896 19.0665 25.3503 19.1786C25.5132 19.2922 25.6514 19.469 25.7625 19.7494C26.0074 20.368 26.0296 21.2266 26.0296 22.1998V30ZM7 8.88167C7 11.0127 8.726 12.7907 10.8816 12.7907C13.0366 12.7907 14.7632 11.0129 14.7632 8.88167C14.7632 7.85219 14.3543 6.86488 13.6263 6.13692C12.8984 5.40897 11.9111 5 10.8816 5C9.85213 5 8.86483 5.40897 8.13689 6.13692C7.40895 6.86488 7 7.8522 7 8.88167Z" stroke="#006A97" stroke-width="2" stroke-linejoin="round"/>
</svg>
