<svg width="40" height="40" viewBox="0 0 40 40" fill="none" xmlns="http://www.w3.org/2000/svg">
<path d="M12.4916 30V30L12.4998 30C15.0049 29.9897 17.4157 29.051 19.1998 27.371C20.5784 26.0729 21.4962 24.4121 21.84 22.618C22.0227 24.2079 22.4713 25.6577 23.1246 26.8144C23.9763 28.3223 25.3085 29.5308 27.0024 29.5308C28.6972 29.5308 30.0263 28.3211 30.8747 26.8128C31.4561 25.7793 31.874 24.512 32.0859 23.1201C32.1618 24.1978 32.2947 25.1756 32.473 25.9826C32.616 26.63 32.7998 27.2225 33.0379 27.6774C33.1563 27.9039 33.3133 28.1455 33.5262 28.3421C33.7445 28.5438 34.0764 28.7449 34.5067 28.7449C34.937 28.7449 35.2689 28.5438 35.4872 28.3421C35.7 28.1455 35.857 27.9039 35.9755 27.6774C36.2135 27.2225 36.3974 26.63 36.5404 25.9826C36.83 24.6713 37 22.9093 37 21C37 19.0907 36.83 17.3287 36.5404 16.0174C36.3974 15.37 36.2135 14.7775 35.9755 14.3226C35.857 14.0961 35.7 13.8545 35.4872 13.6579C35.2689 13.4562 34.937 13.2551 34.5067 13.2551C34.0764 13.2551 33.7445 13.4562 33.5262 13.6579C33.3133 13.8545 33.1563 14.0961 33.0379 14.3226C32.7998 14.7775 32.616 15.37 32.473 16.0174C32.2947 16.8244 32.1618 17.8022 32.0859 18.8799C31.874 17.488 31.4561 16.2207 30.8747 15.1872C30.0263 13.6789 28.6972 12.4692 27.0024 12.4692C25.3085 12.4692 23.9763 13.6777 23.1246 15.1856C22.4713 16.3423 22.0227 17.7921 21.84 19.382C21.4962 17.5879 20.5784 15.9271 19.1998 14.629C17.4157 12.949 15.0049 12.0103 12.4998 12V12L12.4916 12C9.98655 12.0103 7.57572 12.949 5.79164 14.629C4.00608 16.3104 2.99335 18.6001 3.00003 21C2.99335 23.3999 4.00608 25.6896 5.79164 27.371C7.57572 29.051 9.98655 29.9897 12.4916 30Z" stroke="#006A97" stroke-width="2" stroke-linejoin="round"/>
</svg>
