<svg width="40" height="40" viewBox="0 0 40 40" fill="none" xmlns="http://www.w3.org/2000/svg">
<path fill-rule="evenodd" clip-rule="evenodd" d="M30.7947 8.52325C28.7589 6.65963 25.9967 6.70441 23.5799 7.60767C20.8148 8.6411 18.9624 11.1911 19 14.1458V14.628C14.8694 14.4474 11.2318 12.4376 8.81257 9.06493C8.61351 8.78741 8.28658 8.63067 7.94555 8.64927C7.60453 8.66786 7.29658 8.85921 7.12887 9.15673L8 9.64778C7.12887 9.15673 7.12859 9.15722 7.1283 9.15775L7.12758 9.15902L7.12572 9.16234L7.12033 9.17204L7.1031 9.20355C7.08885 9.22987 7.06917 9.26675 7.04483 9.31366C6.99619 9.40746 6.92884 9.54159 6.849 9.71187C6.6895 10.0521 6.47913 10.5387 6.26827 11.1382C5.84849 12.3316 5.41615 14.0019 5.39767 15.8696C5.37912 17.7451 5.7786 19.8361 7.04031 21.8258C8.07091 23.451 9.64537 24.9589 11.9379 26.2195C9.74129 27.4745 7.55667 28.2093 5.03882 28.1115C4.57459 28.0934 4.15909 28.3975 4.03584 28.8454C3.91258 29.2933 4.11403 29.7671 4.52213 29.9891C9.6526 32.7801 15.3334 33.7899 20.3293 32.3424L20.3295 32.3423C26.0122 30.6946 30.6977 26.4302 32.4901 20.0619L32.4914 20.0571C33.0079 18.1861 33.2708 16.2547 33.2733 14.3145C33.2771 14.3056 33.2813 14.2959 33.2859 14.2853C33.3374 14.1681 33.4177 14.0022 33.5259 13.7873C33.6445 13.552 33.7803 13.2897 33.9306 12.9993C34.061 12.7475 34.2023 12.4746 34.3528 12.1797C34.9573 10.9954 35.6915 9.49781 35.9623 8.43757C35.987 8.35034 36 8.25897 36 8.16561V8.16411C36 7.65883 35.6231 7.23294 35.1216 7.17152C34.9053 7.14504 34.6952 7.18992 34.5163 7.28885C33.4873 7.78614 32.5017 8.05551 31.4001 8.35657C31.2023 8.41061 31.0009 8.46567 30.7947 8.52325ZM33.2422 9.9118C32.7532 10.0626 32.2715 10.1939 31.8037 10.3214C31.4547 10.4165 31.1134 10.5096 30.7825 10.607C30.4109 10.7165 30.0094 10.6014 29.7522 10.3117C28.4544 8.84999 26.4698 8.66273 24.2801 9.4811C22.2564 10.2374 20.9715 12.0618 20.9999 14.1255L21.0001 14.1392H21V15.6364C21 16.1787 20.5677 16.6222 20.0255 16.636C15.4003 16.7541 11.2158 14.8925 8.24488 11.5535C8.21508 11.6335 8.18503 11.7163 8.15495 11.8018C7.78207 12.8619 7.41322 14.3075 7.39757 15.8894C7.382 17.4635 7.71546 19.1559 8.72934 20.7547C9.74185 22.3514 11.4801 23.9294 14.399 25.1995C14.7348 25.3456 14.9639 25.6636 14.9961 26.0284C15.0284 26.3932 14.8586 26.7464 14.5537 26.9492C12.71 28.1749 10.8169 29.1815 8.7293 29.7124C12.5272 31.1129 16.3813 31.404 19.7727 30.4214C24.8291 28.9552 28.9691 25.1868 30.5642 19.5225C31.0445 17.7817 31.283 15.9833 31.273 14.1777C31.2719 13.9742 31.3316 13.7994 31.3502 13.7448L31.3515 13.7411C31.3812 13.654 31.4183 13.564 31.4548 13.481C31.5285 13.3131 31.6286 13.1082 31.7398 12.8875C31.8584 12.6521 32.0056 12.3676 32.1637 12.0621C32.2955 11.8073 32.4349 11.5379 32.5715 11.2704C32.8037 10.8154 33.0338 10.3536 33.2422 9.9118ZM33.2446 14.3862C33.2451 14.3848 33.2457 14.383 33.2466 14.3807C33.2412 14.4001 33.2387 14.4035 33.2446 14.3862Z" fill="#006A97"/>
</svg>
