<svg width="40" height="40" viewBox="0 0 40 40" fill="none" xmlns="http://www.w3.org/2000/svg">
<path fill-rule="evenodd" clip-rule="evenodd" d="M20 8C19.5689 8 19.0746 8.19962 18.5338 8.73335C17.9887 9.27133 17.4519 10.0994 16.9796 11.2015C16.5562 12.1894 16.2004 13.3604 15.9368 14.6666H15.9401H15.9704H16.0008H16.0313H16.0618H16.0924H16.123H16.1537H16.1845H16.2153H16.2462H16.2772H16.3082H16.3393H16.3704H16.4016H16.4329H16.4642H16.4956H16.5271H16.5586H16.5902H16.6219H16.6536H16.6853H16.7172H16.7491H16.781H16.8131H16.8452H16.8773H16.9095H16.9418H16.9741H17.0066H17.039H17.0716H17.1042H17.1368H17.1696H17.2023H17.2352H17.2681H17.3011H17.3341H17.3673H17.4004H17.4337H17.467H17.5004H17.5338H17.5673H17.6009H17.6345H17.6682H17.7019H17.7358H17.7696H17.8036H17.8376H17.8717H17.9059H17.9401H17.9743H18.0087H18.0431H18.0776H18.1121H18.1467H18.1814H18.2161H18.2509H18.2858H18.3207H18.3557H18.3908H18.426H18.4612H18.4964H18.5317H18.5671H18.6026H18.6381H18.6737H18.7094H18.7451H18.7809H18.8168H18.8527H18.8887H18.9248H18.9609H18.9971H19.0334H19.0697H19.1061H19.1426H19.1791H19.2157H19.2524H19.2891H19.3259H19.3628H19.3997H19.4368H19.4738H19.511H19.5482H19.5855H19.6228H19.6602H19.6977H19.7352H19.7729H19.8105H19.8483H19.8861H19.924H19.962H20H20.038H20.076H20.1139H20.1518H20.1896H20.2274H20.2651H20.3027H20.3403H20.3779H20.4153H20.4528H20.4901H20.5275H20.5647H20.6019H20.6391H20.6762H20.7132H20.7502H20.7871H20.824H20.8608H20.8976H20.9343H20.9709H21.0075H21.0441H21.0806H21.117H21.1534H21.1897H21.2259H21.2621H21.2983H21.3344H21.3704H21.4064H21.4423H21.4782H21.514H21.5498H21.5855H21.6211H21.6567H21.6922H21.7277H21.7631H21.7985H21.8338H21.869H21.9042H21.9394H21.9745H22.0095H22.0445H22.0794H22.1142H22.149H22.1838H22.2185H22.2531H22.2877H22.3222H22.3567H22.3911H22.4254H22.4597H22.4939H22.5281H22.5622H22.5963H22.6303H22.6643H22.6982H22.732H22.7658H22.7995H22.8332H22.8668H22.9004H22.9339H22.9673H23.0007H23.034H23.0673H23.1005H23.1336H23.1667H23.1998H23.2328H23.2657H23.2986H23.3314H23.3641H23.3968H23.4295H23.4621H23.4946H23.5271H23.5595H23.5918H23.6241H23.6564H23.6886H23.7207H23.7528H23.7848H23.8167H23.8486H23.8804H23.9122H23.944H23.9756H24.0072H24.0388H24.0632C23.7996 13.3604 23.4438 12.1894 23.0205 11.2015C22.5481 10.0994 22.0113 9.27133 21.4662 8.73335C20.9254 8.19962 20.4311 8 20 8ZM15.1413 10.4137C14.6151 11.6414 14.1932 13.082 13.8998 14.6666H13.889H13.8631H13.8372H13.8114H13.7857H13.76H13.7344H13.7088H13.6833H13.6579H13.6325H13.6072H13.5819H13.5567H13.5315H13.5064H13.4813H13.4563H13.4314H13.4065H13.3817H13.3569H13.3322H13.3076H13.283H13.2584H13.2339H13.2095H13.1851H13.1608H13.1366H13.1124H13.0882H13.0641H13.0401H13.0161H12.9922H12.9683H12.9445H12.9207H12.897H12.8734H12.8498H12.8263H12.8028H12.7793H12.756H12.7327H12.7094H12.6862H12.663H12.6399H12.6169H12.5939H12.571H12.5481H12.5253H12.5025H12.4798H12.4572H12.4346H12.412H12.3895H12.3671H12.3447H12.3224H12.3001H12.2779H12.2557H12.2336H12.2115H12.1895H12.1675H12.1456H12.1238H12.102H12.0803H12.0586H12.0369H12.0154H11.9938H11.9724H11.9509H11.9296H11.9083H11.887H11.8658H11.8446H11.8235H11.8025H11.7815H11.7606H11.7397H11.7188H11.698H11.6773H11.6566H11.636H11.6154H11.5949H11.5744H11.554H11.5336H11.5133H11.4931H11.4728H11.4527H11.4326H11.4125H11.3925H11.3726H11.3527H11.3328H11.313H11.2933H11.2736H11.2539H11.2343H11.2148H11.1953H11.1759H11.1565H11.1371H11.1178H11.0986H11.0794H11.0603H11.0412H11.0222H11.0032H10.9843H10.9654H10.9465H10.9278H10.909H10.8903H10.8717H10.8531H10.8346H10.8161H10.7977H10.7793H10.761H10.7427H10.7245H10.7063H10.6882H10.6701H10.652H10.6341H10.6161H10.5982H10.5804H10.5626H10.5449H10.5272H10.5095H10.492H10.4744H10.4569H10.4395H10.4221H10.4047H10.3874H10.3702H10.353H10.3358H10.3187H10.3017H10.2847H10.2677H10.2508H10.2339H10.2171H10.2004H10.1836H10.167H10.1504H10.1338H10.1172H10.1008H10.0843H10.068H10.0516H10.0353H10.0191H10.0029H9.98674H9.97064H9.95459H9.93859H9.92263H9.90672H9.89085H9.87503H9.85926H9.84354H9.82786H9.81223H9.79665H9.78111H9.76562H9.75018H9.73478H9.71943H9.70412H9.68886H9.67365H9.65848H9.64336H9.62829H9.61326H9.59827H9.58334H9.56845H9.5536H9.5388H9.52405H9.50934H9.49467H9.48005H9.46548H9.45096H9.43647H9.42204H9.40765H9.3933H9.379H9.36474H9.35053H9.33636H9.32224H9.30816H9.29413H9.28015H9.2662H9.2523H9.24738C10.6348 11.8748 13.0775 9.69999 16.0536 8.66403C15.717 9.19175 15.4127 9.78032 15.1413 10.4137ZM8.47525 16.6666H8.46903C8.16364 17.7249 8 18.8434 8 20C8 21.1566 8.16364 22.2751 8.46903 23.3334H8.47525H8.4865H8.49778H8.50911H8.52048H8.53189H8.54335H8.55484H8.56638H8.57795H8.58957H8.60123H8.61293H8.62467H8.63646H8.64828H8.66015H8.67206H8.68402H8.69601H8.70805H8.72013H8.73225H8.74441H8.75661H8.76886H8.78115H8.79348H8.80586H8.81828H8.83074H8.84324H8.85578H8.86837H8.881H8.89368H8.90639H8.91916H8.93196H8.94481H8.95769H8.97063H8.9836H8.99662H9.00969H9.02279H9.03594H9.04914H9.06237H9.07565H9.08898H9.10234H9.11576H9.12921H9.14271H9.15626H9.16985H9.18348H9.19715H9.21088H9.22464H9.23845H9.2523H9.2662H9.28015H9.29413H9.30816H9.32224H9.33636H9.35053H9.36474H9.379H9.3933H9.40765H9.42204H9.43647H9.45096H9.46548H9.48005H9.49467H9.50934H9.52405H9.5388H9.5536H9.56845H9.58334H9.59827H9.61326H9.62829H9.64336H9.65848H9.67365H9.68886H9.70412H9.71943H9.73478H9.75018H9.76562H9.78111H9.79665H9.81223H9.82786H9.84354H9.85926H9.87503H9.89085H9.90672H9.92263H9.93859H9.95459H9.97064H9.98674H10.0029H10.0191H10.0353H10.0516H10.068H10.0843H10.1008H10.1172H10.1338H10.1504H10.167H10.1836H10.2004H10.2171H10.2339H10.2508H10.2677H10.2847H10.3017H10.3187H10.3358H10.353H10.3702H10.3874H10.4047H10.4221H10.4395H10.4569H10.4744H10.492H10.5095H10.5272H10.5449H10.5626H10.5804H10.5982H10.6161H10.6341H10.652H10.6701H10.6882H10.7063H10.7245H10.7427H10.761H10.7793H10.7977H10.8161H10.8346H10.8531H10.8717H10.8903H10.909H10.9278H10.9465H10.9654H10.9843H11.0032H11.0222H11.0412H11.0603H11.0794H11.0986H11.1178H11.1371H11.1565H11.1759H11.1953H11.2148H11.2343H11.2539H11.2736H11.2933H11.313H11.3328H11.3527H11.3726H11.3925H11.4125H11.4326H11.4527H11.4728H11.4931H11.5133H11.5336H11.554H11.5744H11.5949H11.6154H11.636H11.6566H11.6773H11.698H11.7188H11.7397H11.7606H11.7815H11.8025H11.8235H11.8446H11.8658H11.887H11.9083H11.9296H11.9509H11.9724H11.9938H12.0154H12.0369H12.0586H12.0803H12.102H12.1238H12.1456H12.1675H12.1895H12.2115H12.2336H12.2557H12.2779H12.3001H12.3224H12.3447H12.3671H12.3895H12.412H12.4346H12.4572H12.4798H12.5025H12.5253H12.5481H12.571H12.5939H12.6169H12.6399H12.663H12.6862H12.7094H12.7327H12.756H12.7793H12.8028H12.8263H12.8498H12.8734H12.897H12.9207H12.9445H12.9683H12.9922H13.0161H13.0401H13.0641H13.0882H13.1124H13.1366H13.1608H13.1851H13.2095H13.2339H13.2584H13.283H13.3076H13.3322H13.3569H13.3817H13.4065H13.4314H13.4563H13.4813H13.5064H13.5315H13.5567H13.5819H13.6072H13.6073C13.4902 22.263 13.4286 21.146 13.4286 20C13.4286 18.854 13.4902 17.737 13.6073 16.6666H13.6072H13.5819H13.5567H13.5315H13.5064H13.4813H13.4563H13.4314H13.4065H13.3817H13.3569H13.3322H13.3076H13.283H13.2584H13.2339H13.2095H13.1851H13.1608H13.1366H13.1124H13.0882H13.0641H13.0401H13.0161H12.9922H12.9683H12.9445H12.9207H12.897H12.8734H12.8498H12.8263H12.8028H12.7793H12.756H12.7327H12.7094H12.6862H12.663H12.6399H12.6169H12.5939H12.571H12.5481H12.5253H12.5025H12.4798H12.4572H12.4346H12.412H12.3895H12.3671H12.3447H12.3224H12.3001H12.2779H12.2557H12.2336H12.2115H12.1895H12.1675H12.1456H12.1238H12.102H12.0803H12.0586H12.0369H12.0154H11.9938H11.9724H11.9509H11.9296H11.9083H11.887H11.8658H11.8446H11.8235H11.8025H11.7815H11.7606H11.7397H11.7188H11.698H11.6773H11.6566H11.636H11.6154H11.5949H11.5744H11.554H11.5336H11.5133H11.4931H11.4728H11.4527H11.4326H11.4125H11.3925H11.3726H11.3527H11.3328H11.313H11.2933H11.2736H11.2539H11.2343H11.2148H11.1953H11.1759H11.1565H11.1371H11.1178H11.0986H11.0794H11.0603H11.0412H11.0222H11.0032H10.9843H10.9654H10.9465H10.9278H10.909H10.8903H10.8717H10.8531H10.8346H10.8161H10.7977H10.7793H10.761H10.7427H10.7245H10.7063H10.6882H10.6701H10.652H10.6341H10.6161H10.5982H10.5804H10.5626H10.5449H10.5272H10.5095H10.492H10.4744H10.4569H10.4395H10.4221H10.4047H10.3874H10.3702H10.353H10.3358H10.3187H10.3017H10.2847H10.2677H10.2508H10.2339H10.2171H10.2004H10.1836H10.167H10.1504H10.1338H10.1172H10.1008H10.0843H10.068H10.0516H10.0353H10.0191H10.0029H9.98674H9.97064H9.95459H9.93859H9.92263H9.90672H9.89085H9.87503H9.85926H9.84354H9.82786H9.81223H9.79665H9.78111H9.76562H9.75018H9.73478H9.71943H9.70412H9.68886H9.67365H9.65848H9.64336H9.62829H9.61326H9.59827H9.58334H9.56845H9.5536H9.5388H9.52405H9.50934H9.49467H9.48005H9.46548H9.45096H9.43647H9.42204H9.40765H9.3933H9.379H9.36474H9.35053H9.33636H9.32224H9.30816H9.29413H9.28015H9.2662H9.2523H9.23845H9.22464H9.21088H9.19715H9.18348H9.16985H9.15626H9.14271H9.12921H9.11576H9.10234H9.08898H9.07565H9.06237H9.04914H9.03594H9.02279H9.00969H8.99662H8.9836H8.97063H8.95769H8.94481H8.93196H8.91916H8.90639H8.89368H8.881H8.86837H8.85578H8.84324H8.83074H8.81828H8.80586H8.79348H8.78115H8.76886H8.75661H8.74441H8.73225H8.72013H8.70805H8.69601H8.68402H8.67206H8.66015H8.64828H8.63646H8.62467H8.61293H8.60123H8.58957H8.57795H8.56638H8.55484H8.54335H8.53189H8.52048H8.50911H8.49778H8.4865H8.47525ZM13.8998 25.3334H13.889H13.8631H13.8372H13.8114H13.7857H13.76H13.7344H13.7088H13.6833H13.6579H13.6325H13.6072H13.5819H13.5567H13.5315H13.5064H13.4813H13.4563H13.4314H13.4065H13.3817H13.3569H13.3322H13.3076H13.283H13.2584H13.2339H13.2095H13.1851H13.1608H13.1366H13.1124H13.0882H13.0641H13.0401H13.0161H12.9922H12.9683H12.9445H12.9207H12.897H12.8734H12.8498H12.8263H12.8028H12.7793H12.756H12.7327H12.7094H12.6862H12.663H12.6399H12.6169H12.5939H12.571H12.5481H12.5253H12.5025H12.4798H12.4572H12.4346H12.412H12.3895H12.3671H12.3447H12.3224H12.3001H12.2779H12.2557H12.2336H12.2115H12.1895H12.1675H12.1456H12.1238H12.102H12.0803H12.0586H12.0369H12.0154H11.9938H11.9724H11.9509H11.9296H11.9083H11.887H11.8658H11.8446H11.8235H11.8025H11.7815H11.7606H11.7397H11.7188H11.698H11.6773H11.6566H11.636H11.6154H11.5949H11.5744H11.554H11.5336H11.5133H11.4931H11.4728H11.4527H11.4326H11.4125H11.3925H11.3726H11.3527H11.3328H11.313H11.2933H11.2736H11.2539H11.2343H11.2148H11.1953H11.1759H11.1565H11.1371H11.1178H11.0986H11.0794H11.0603H11.0412H11.0222H11.0032H10.9843H10.9654H10.9465H10.9278H10.909H10.8903H10.8717H10.8531H10.8346H10.8161H10.7977H10.7793H10.761H10.7427H10.7245H10.7063H10.6882H10.6701H10.652H10.6341H10.6161H10.5982H10.5804H10.5626H10.5449H10.5272H10.5095H10.492H10.4744H10.4569H10.4395H10.4221H10.4047H10.3874H10.3702H10.353H10.3358H10.3187H10.3017H10.2847H10.2677H10.2508H10.2339H10.2171H10.2004H10.1836H10.167H10.1504H10.1338H10.1172H10.1008H10.0843H10.068H10.0516H10.0353H10.0191H10.0029H9.98674H9.97064H9.95459H9.93859H9.92263H9.90672H9.89085H9.87503H9.85926H9.84354H9.82786H9.81223H9.79665H9.78111H9.76562H9.75018H9.73478H9.71943H9.70412H9.68886H9.67365H9.65848H9.64336H9.62829H9.61326H9.59827H9.58334H9.56845H9.5536H9.5388H9.52405H9.50934H9.49467H9.48005H9.46548H9.45096H9.43647H9.42204H9.40765H9.3933H9.379H9.36474H9.35053H9.33636H9.32224H9.30816H9.29413H9.28015H9.2662H9.2523H9.24738C10.6348 28.1252 13.0775 30.3 16.0536 31.336C15.717 30.8083 15.4127 30.2197 15.1413 29.5863C14.6151 28.3586 14.1932 26.918 13.8998 25.3334ZM15.9368 25.3334H15.9401H15.9704H16.0008H16.0313H16.0618H16.0924H16.123H16.1537H16.1845H16.2153H16.2462H16.2772H16.3082H16.3393H16.3704H16.4016H16.4329H16.4642H16.4956H16.5271H16.5586H16.5902H16.6219H16.6536H16.6853H16.7172H16.7491H16.781H16.8131H16.8452H16.8773H16.9095H16.9418H16.9741H17.0066H17.039H17.0716H17.1042H17.1368H17.1696H17.2023H17.2352H17.2681H17.3011H17.3341H17.3673H17.4004H17.4337H17.467H17.5004H17.5338H17.5673H17.6009H17.6345H17.6682H17.7019H17.7358H17.7696H17.8036H17.8376H17.8717H17.9059H17.9401H17.9743H18.0087H18.0431H18.0776H18.1121H18.1467H18.1814H18.2161H18.2509H18.2858H18.3207H18.3557H18.3908H18.426H18.4612H18.4964H18.5317H18.5671H18.6026H18.6381H18.6737H18.7094H18.7451H18.7809H18.8168H18.8527H18.8887H18.9248H18.9609H18.9971H19.0334H19.0697H19.1061H19.1426H19.1791H19.2157H19.2524H19.2891H19.3259H19.3628H19.3997H19.4368H19.4738H19.511H19.5482H19.5855H19.6228H19.6602H19.6977H19.7352H19.7729H19.8105H19.8483H19.8861H19.924H19.962H20H20.038H20.076H20.1139H20.1518H20.1896H20.2274H20.2651H20.3027H20.3403H20.3779H20.4153H20.4528H20.4901H20.5275H20.5647H20.6019H20.6391H20.6762H20.7132H20.7502H20.7871H20.824H20.8608H20.8976H20.9343H20.9709H21.0075H21.0441H21.0806H21.117H21.1534H21.1897H21.2259H21.2621H21.2983H21.3344H21.3704H21.4064H21.4423H21.4782H21.514H21.5498H21.5855H21.6211H21.6567H21.6922H21.7277H21.7631H21.7985H21.8338H21.869H21.9042H21.9394H21.9745H22.0095H22.0445H22.0794H22.1142H22.149H22.1838H22.2185H22.2531H22.2877H22.3222H22.3567H22.3911H22.4254H22.4597H22.4939H22.5281H22.5622H22.5963H22.6303H22.6643H22.6982H22.732H22.7658H22.7995H22.8332H22.8668H22.9004H22.9339H22.9673H23.0007H23.034H23.0673H23.1005H23.1336H23.1667H23.1998H23.2328H23.2657H23.2986H23.3314H23.3641H23.3968H23.4295H23.4621H23.4946H23.5271H23.5595H23.5918H23.6241H23.6564H23.6886H23.7207H23.7528H23.7848H23.8167H23.8486H23.8804H23.9122H23.944H23.9756H24.0072H24.0388H24.0632C23.7996 26.6396 23.4438 27.8106 23.0205 28.7985C22.5481 29.9006 22.0113 30.7287 21.4662 31.2666C20.9254 31.8004 20.4311 32 20 32C19.5689 32 19.0746 31.8004 18.5338 31.2666C17.9887 30.7287 17.4519 29.9006 16.9796 28.7985C16.5562 27.8106 16.2004 26.6396 15.9368 25.3334ZM24.3799 23.3334H24.3511H24.3201H24.2891H24.258H24.2269H24.1957H24.1644H24.1331H24.1017H24.0703H24.0388H24.0072H23.9756H23.944H23.9122H23.8804H23.8486H23.8167H23.7848H23.7528H23.7207H23.6886H23.6564H23.6241H23.5918H23.5595H23.5271H23.4946H23.4621H23.4295H23.3968H23.3641H23.3314H23.2986H23.2657H23.2328H23.1998H23.1667H23.1336H23.1005H23.0673H23.034H23.0007H22.9673H22.9339H22.9004H22.8668H22.8332H22.7995H22.7658H22.732H22.6982H22.6643H22.6303H22.5963H22.5622H22.5281H22.4939H22.4597H22.4254H22.3911H22.3567H22.3222H22.2877H22.2531H22.2185H22.1838H22.149H22.1142H22.0794H22.0445H22.0095H21.9745H21.9394H21.9042H21.869H21.8338H21.7985H21.7631H21.7277H21.6922H21.6567H21.6211H21.5855H21.5498H21.514H21.4782H21.4423H21.4064H21.3704H21.3344H21.2983H21.2621H21.2259H21.1897H21.1534H21.117H21.0806H21.0441H21.0075H20.9709H20.9343H20.8976H20.8608H20.824H20.7871H20.7502H20.7132H20.6762H20.6391H20.6019H20.5647H20.5275H20.4901H20.4528H20.4153H20.3779H20.3403H20.3027H20.2651H20.2274H20.1896H20.1518H20.1139H20.076H20.038H20H19.962H19.924H19.8861H19.8483H19.8105H19.7729H19.7352H19.6977H19.6602H19.6228H19.5855H19.5482H19.511H19.4738H19.4368H19.3997H19.3628H19.3259H19.2891H19.2524H19.2157H19.1791H19.1426H19.1061H19.0697H19.0334H18.9971H18.9609H18.9248H18.8887H18.8527H18.8168H18.7809H18.7451H18.7094H18.6737H18.6381H18.6026H18.5671H18.5317H18.4964H18.4612H18.426H18.3908H18.3557H18.3207H18.2858H18.2509H18.2161H18.1814H18.1467H18.1121H18.0776H18.0431H18.0087H17.9743H17.9401H17.9059H17.8717H17.8376H17.8036H17.7696H17.7358H17.7019H17.6682H17.6345H17.6009H17.5673H17.5338H17.5004H17.467H17.4337H17.4004H17.3673H17.3341H17.3011H17.2681H17.2352H17.2023H17.1696H17.1368H17.1042H17.0716H17.039H17.0066H16.9741H16.9418H16.9095H16.8773H16.8452H16.8131H16.781H16.7491H16.7172H16.6853H16.6536H16.6219H16.5902H16.5586H16.5271H16.4956H16.4642H16.4329H16.4016H16.3704H16.3393H16.3082H16.2772H16.2462H16.2153H16.1845H16.1537H16.123H16.0924H16.0618H16.0313H16.0008H15.9704H15.9401H15.9098H15.8796H15.8495H15.8194H15.7893H15.7594H15.7295H15.6996H15.6698H15.6401H15.6201C15.4957 22.277 15.4286 21.1594 15.4286 20C15.4286 18.8406 15.4957 17.723 15.6201 16.6666H15.6401H15.6698H15.6996H15.7295H15.7594H15.7893H15.8194H15.8495H15.8796H15.9098H15.9401H15.9704H16.0008H16.0313H16.0618H16.0924H16.123H16.1537H16.1845H16.2153H16.2462H16.2772H16.3082H16.3393H16.3704H16.4016H16.4329H16.4642H16.4956H16.5271H16.5586H16.5902H16.6219H16.6536H16.6853H16.7172H16.7491H16.781H16.8131H16.8452H16.8773H16.9095H16.9418H16.9741H17.0066H17.039H17.0716H17.1042H17.1368H17.1696H17.2023H17.2352H17.2681H17.3011H17.3341H17.3673H17.4004H17.4337H17.467H17.5004H17.5338H17.5673H17.6009H17.6345H17.6682H17.7019H17.7358H17.7696H17.8036H17.8376H17.8717H17.9059H17.9401H17.9743H18.0087H18.0431H18.0776H18.1121H18.1467H18.1814H18.2161H18.2509H18.2858H18.3207H18.3557H18.3908H18.426H18.4612H18.4964H18.5317H18.5671H18.6026H18.6381H18.6737H18.7094H18.7451H18.7809H18.8168H18.8527H18.8887H18.9248H18.9609H18.9971H19.0334H19.0697H19.1061H19.1426H19.1791H19.2157H19.2524H19.2891H19.3259H19.3628H19.3997H19.4368H19.4738H19.511H19.5482H19.5855H19.6228H19.6602H19.6977H19.7352H19.7729H19.8105H19.8483H19.8861H19.924H19.962H20H20.038H20.076H20.1139H20.1518H20.1896H20.2274H20.2651H20.3027H20.3403H20.3779H20.4153H20.4528H20.4901H20.5275H20.5647H20.6019H20.6391H20.6762H20.7132H20.7502H20.7871H20.824H20.8608H20.8976H20.9343H20.9709H21.0075H21.0441H21.0806H21.117H21.1534H21.1897H21.2259H21.2621H21.2983H21.3344H21.3704H21.4064H21.4423H21.4782H21.514H21.5498H21.5855H21.6211H21.6567H21.6922H21.7277H21.7631H21.7985H21.8338H21.869H21.9042H21.9394H21.9745H22.0095H22.0445H22.0794H22.1142H22.149H22.1838H22.2185H22.2531H22.2877H22.3222H22.3567H22.3911H22.4254H22.4597H22.4939H22.5281H22.5622H22.5963H22.6303H22.6643H22.6982H22.732H22.7658H22.7995H22.8332H22.8668H22.9004H22.9339H22.9673H23.0007H23.034H23.0673H23.1005H23.1336H23.1667H23.1998H23.2328H23.2657H23.2986H23.3314H23.3641H23.3968H23.4295H23.4621H23.4946H23.5271H23.5595H23.5918H23.6241H23.6564H23.6886H23.7207H23.7528H23.7848H23.8167H23.8486H23.8804H23.9122H23.944H23.9756H24.0072H24.0388H24.0703H24.1017H24.1331H24.1644H24.1957H24.2269H24.258H24.2891H24.3201H24.3511H24.3799C24.5043 17.723 24.5714 18.8406 24.5714 20C24.5714 21.1594 24.5043 22.277 24.3799 23.3334ZM26.1002 25.3334C25.8068 26.918 25.3849 28.3586 24.8587 29.5863C24.5873 30.2197 24.283 30.8083 23.9464 31.336C26.9225 30.3 29.3652 28.1252 30.7526 25.3334H30.7431H30.7296H30.7161H30.7024H30.6888H30.675H30.6612H30.6474H30.6334H30.6195H30.6054H30.5913H30.5771H30.5628H30.5485H30.5341H30.5197H30.5052H30.4906H30.476H30.4613H30.4465H30.4317H30.4168H30.4019H30.3868H30.3718H30.3566H30.3414H30.3261H30.3108H30.2954H30.2799H30.2644H30.2488H30.2331H30.2174H30.2016H30.1858H30.1699H30.1539H30.1379H30.1218H30.1056H30.0894H30.0731H30.0567H30.0403H30.0238H30.0073H29.9907H29.974H29.9573H29.9405H29.9236H29.9067H29.8897H29.8727H29.8555H29.8384H29.8211H29.8038H29.7865H29.769H29.7515H29.734H29.7164H29.6987H29.6809H29.6631H29.6453H29.6273H29.6093H29.5913H29.5732H29.555H29.5367H29.5184H29.5H29.4816H29.4631H29.4446H29.4259H29.4073H29.3885H29.3697H29.3508H29.3319H29.3129H29.2938H29.2747H29.2555H29.2363H29.217H29.1976H29.1782H29.1587H29.1391H29.1195H29.0998H29.0801H29.0603H29.0404H29.0205H29.0005H28.9804H28.9603H28.9401H28.9199H28.8996H28.8792H28.8588H28.8383H28.8177H28.7971H28.7765H28.7557H28.7349H28.7141H28.6931H28.6722H28.6511H28.63H28.6088H28.5876H28.5663H28.545H28.5236H28.5021H28.4805H28.4589H28.4373H28.4156H28.3938H28.3719H28.35H28.3281H28.306H28.2839H28.2618H28.2396H28.2173H28.195H28.1726H28.1501H28.1276H28.105H28.0824H28.0597H28.0369H28.0141H27.9912H27.9683H27.9452H27.9222H27.899H27.8759H27.8526H27.8293H27.8059H27.7825H27.759H27.7354H27.7118H27.6881H27.6644H27.6406H27.6168H27.5928H27.5689H27.5448H27.5207H27.4966H27.4723H27.4481H27.4237H27.3993H27.3748H27.3503H27.3257H27.3011H27.2764H27.2516H27.2268H27.2019H27.177H27.152H27.1269H27.1018H27.0766H27.0513H27.026H27.0007H26.9752H26.9497H26.9242H26.8986H26.8729H26.8472H26.8214H26.7956H26.7696H26.7437H26.7177H26.6916H26.6654H26.6392H26.6129H26.5866H26.5602H26.5338H26.5073H26.4807H26.4541H26.4274H26.4007H26.3739H26.347H26.3201H26.2931H26.2661H26.239H26.2118H26.1846H26.1573H26.13H26.1026H26.1002ZM31.531 23.3334H31.5252H31.5163H31.5074H31.4983H31.4892H31.48H31.4708H31.4615H31.4521H31.4426H31.4331H31.4236H31.4139H31.4042H31.3944H31.3846H31.3747H31.3647H31.3547H31.3446H31.3344H31.3242H31.3139H31.3035H31.2931H31.2826H31.2721H31.2614H31.2508H31.24H31.2292H31.2183H31.2073H31.1963H31.1853H31.1741H31.1629H31.1516H31.1403H31.1289H31.1174H31.1059H31.0943H31.0826H31.0709H31.0591H31.0472H31.0353H31.0233H31.0112H30.9991H30.9869H30.9747H30.9624H30.95H30.9375H30.925H30.9124H30.8998H30.8871H30.8743H30.8615H30.8486H30.8356H30.8226H30.8095H30.7964H30.7831H30.7698H30.7565H30.7431H30.7296H30.7161H30.7024H30.6888H30.675H30.6612H30.6474H30.6334H30.6195H30.6054H30.5913H30.5771H30.5628H30.5485H30.5341H30.5197H30.5052H30.4906H30.476H30.4613H30.4465H30.4317H30.4168H30.4019H30.3868H30.3718H30.3566H30.3414H30.3261H30.3108H30.2954H30.2799H30.2644H30.2488H30.2331H30.2174H30.2016H30.1858H30.1699H30.1539H30.1379H30.1218H30.1056H30.0894H30.0731H30.0567H30.0403H30.0238H30.0073H29.9907H29.974H29.9573H29.9405H29.9236H29.9067H29.8897H29.8727H29.8555H29.8384H29.8211H29.8038H29.7865H29.769H29.7515H29.734H29.7164H29.6987H29.6809H29.6631H29.6453H29.6273H29.6093H29.5913H29.5732H29.555H29.5367H29.5184H29.5H29.4816H29.4631H29.4446H29.4259H29.4073H29.3885H29.3697H29.3508H29.3319H29.3129H29.2938H29.2747H29.2555H29.2363H29.217H29.1976H29.1782H29.1587H29.1391H29.1195H29.0998H29.0801H29.0603H29.0404H29.0205H29.0005H28.9804H28.9603H28.9401H28.9199H28.8996H28.8792H28.8588H28.8383H28.8177H28.7971H28.7765H28.7557H28.7349H28.7141H28.6931H28.6722H28.6511H28.63H28.6088H28.5876H28.5663H28.545H28.5236H28.5021H28.4805H28.4589H28.4373H28.4156H28.3938H28.3719H28.35H28.3281H28.306H28.2839H28.2618H28.2396H28.2173H28.195H28.1726H28.1501H28.1276H28.105H28.0824H28.0597H28.0369H28.0141H27.9912H27.9683H27.9452H27.9222H27.899H27.8759H27.8526H27.8293H27.8059H27.7825H27.759H27.7354H27.7118H27.6881H27.6644H27.6406H27.6168H27.5928H27.5689H27.5448H27.5207H27.4966H27.4723H27.4481H27.4237H27.3993H27.3748H27.3503H27.3257H27.3011H27.2764H27.2516H27.2268H27.2019H27.177H27.152H27.1269H27.1018H27.0766H27.0513H27.026H27.0007H26.9752H26.9497H26.9242H26.8986H26.8729H26.8472H26.8214H26.7956H26.7696H26.7437H26.7177H26.6916H26.6654H26.6392H26.6129H26.5866H26.5602H26.5338H26.5073H26.4807H26.4541H26.4274H26.4007H26.3927C26.5098 22.263 26.5714 21.146 26.5714 20C26.5714 18.854 26.5098 17.737 26.3927 16.6666H26.4007H26.4274H26.4541H26.4807H26.5073H26.5338H26.5602H26.5866H26.6129H26.6392H26.6654H26.6916H26.7177H26.7437H26.7696H26.7956H26.8214H26.8472H26.8729H26.8986H26.9242H26.9497H26.9752H27.0007H27.026H27.0513H27.0766H27.1018H27.1269H27.152H27.177H27.2019H27.2268H27.2516H27.2764H27.3011H27.3257H27.3503H27.3748H27.3993H27.4237H27.4481H27.4723H27.4966H27.5207H27.5448H27.5689H27.5928H27.6168H27.6406H27.6644H27.6881H27.7118H27.7354H27.759H27.7825H27.8059H27.8293H27.8526H27.8759H27.899H27.9222H27.9452H27.9683H27.9912H28.0141H28.0369H28.0597H28.0824H28.105H28.1276H28.1501H28.1726H28.195H28.2173H28.2396H28.2618H28.2839H28.306H28.3281H28.35H28.3719H28.3938H28.4156H28.4373H28.4589H28.4805H28.5021H28.5236H28.545H28.5663H28.5876H28.6088H28.63H28.6511H28.6722H28.6931H28.7141H28.7349H28.7557H28.7765H28.7971H28.8177H28.8383H28.8588H28.8792H28.8996H28.9199H28.9401H28.9603H28.9804H29.0005H29.0205H29.0404H29.0603H29.0801H29.0998H29.1195H29.1391H29.1587H29.1782H29.1976H29.217H29.2363H29.2555H29.2747H29.2938H29.3129H29.3319H29.3508H29.3697H29.3885H29.4073H29.4259H29.4446H29.4631H29.4816H29.5H29.5184H29.5367H29.555H29.5732H29.5913H29.6093H29.6273H29.6453H29.6631H29.6809H29.6987H29.7164H29.734H29.7515H29.769H29.7865H29.8038H29.8211H29.8384H29.8555H29.8727H29.8897H29.9067H29.9236H29.9405H29.9573H29.974H29.9907H30.0073H30.0238H30.0403H30.0567H30.0731H30.0894H30.1056H30.1218H30.1379H30.1539H30.1699H30.1858H30.2016H30.2174H30.2331H30.2488H30.2644H30.2799H30.2954H30.3108H30.3261H30.3414H30.3566H30.3718H30.3868H30.4019H30.4168H30.4317H30.4465H30.4613H30.476H30.4906H30.5052H30.5197H30.5341H30.5485H30.5628H30.5771H30.5913H30.6054H30.6195H30.6334H30.6474H30.6612H30.675H30.6888H30.7024H30.7161H30.7296H30.7431H30.7565H30.7698H30.7831H30.7964H30.8095H30.8226H30.8356H30.8486H30.8615H30.8743H30.8871H30.8998H30.9124H30.925H30.9375H30.95H30.9624H30.9747H30.9869H30.9991H31.0112H31.0233H31.0353H31.0472H31.0591H31.0709H31.0826H31.0943H31.1059H31.1174H31.1289H31.1403H31.1516H31.1629H31.1741H31.1853H31.1963H31.2073H31.2183H31.2292H31.24H31.2508H31.2614H31.2721H31.2826H31.2931H31.3035H31.3139H31.3242H31.3344H31.3446H31.3547H31.3647H31.3747H31.3846H31.3944H31.4042H31.4139H31.4236H31.4331H31.4426H31.4521H31.4615H31.4708H31.48H31.4892H31.4983H31.5074H31.5163H31.5252H31.531C31.8364 17.7249 32 18.8434 32 20C32 21.1566 31.8364 22.2751 31.531 23.3334ZM23.9464 8.66403C26.9225 9.69999 29.3652 11.8748 30.7526 14.6666H30.7431H30.7296H30.7161H30.7024H30.6888H30.675H30.6612H30.6474H30.6334H30.6195H30.6054H30.5913H30.5771H30.5628H30.5485H30.5341H30.5197H30.5052H30.4906H30.476H30.4613H30.4465H30.4317H30.4168H30.4019H30.3868H30.3718H30.3566H30.3414H30.3261H30.3108H30.2954H30.2799H30.2644H30.2488H30.2331H30.2174H30.2016H30.1858H30.1699H30.1539H30.1379H30.1218H30.1056H30.0894H30.0731H30.0567H30.0403H30.0238H30.0073H29.9907H29.974H29.9573H29.9405H29.9236H29.9067H29.8897H29.8727H29.8555H29.8384H29.8211H29.8038H29.7865H29.769H29.7515H29.734H29.7164H29.6987H29.6809H29.6631H29.6453H29.6273H29.6093H29.5913H29.5732H29.555H29.5367H29.5184H29.5H29.4816H29.4631H29.4446H29.4259H29.4073H29.3885H29.3697H29.3508H29.3319H29.3129H29.2938H29.2747H29.2555H29.2363H29.217H29.1976H29.1782H29.1587H29.1391H29.1195H29.0998H29.0801H29.0603H29.0404H29.0205H29.0005H28.9804H28.9603H28.9401H28.9199H28.8996H28.8792H28.8588H28.8383H28.8177H28.7971H28.7765H28.7557H28.7349H28.7141H28.6931H28.6722H28.6511H28.63H28.6088H28.5876H28.5663H28.545H28.5236H28.5021H28.4805H28.4589H28.4373H28.4156H28.3938H28.3719H28.35H28.3281H28.306H28.2839H28.2618H28.2396H28.2173H28.195H28.1726H28.1501H28.1276H28.105H28.0824H28.0597H28.0369H28.0141H27.9912H27.9683H27.9452H27.9222H27.899H27.8759H27.8526H27.8293H27.8059H27.7825H27.759H27.7354H27.7118H27.6881H27.6644H27.6406H27.6168H27.5928H27.5689H27.5448H27.5207H27.4966H27.4723H27.4481H27.4237H27.3993H27.3748H27.3503H27.3257H27.3011H27.2764H27.2516H27.2268H27.2019H27.177H27.152H27.1269H27.1018H27.0766H27.0513H27.026H27.0007H26.9752H26.9497H26.9242H26.8986H26.8729H26.8472H26.8214H26.7956H26.7696H26.7437H26.7177H26.6916H26.6654H26.6392H26.6129H26.5866H26.5602H26.5338H26.5073H26.4807H26.4541H26.4274H26.4007H26.3739H26.347H26.3201H26.2931H26.2661H26.239H26.2118H26.1846H26.1573H26.13H26.1026H26.1002C25.8068 13.082 25.3849 11.6414 24.8587 10.4137C24.5873 9.78032 24.283 9.19175 23.9464 8.66403ZM20 34C27.732 34 34 27.732 34 20C34 12.268 27.732 6 20 6C12.268 6 6 12.268 6 20C6 27.732 12.268 34 20 34Z" fill="#3EF0FC"/>
</svg>
