<svg fill="none" height="40" viewBox="0 0 40 40" width="40" xmlns="http://www.w3.org/2000/svg"><path clip-rule="evenodd" d="m20 8c-.4311 0-.9254.19962-1.4662.73335-.5451.53798-1.0819 1.36605-1.5542 2.46815-.4234.9879-.7792 2.1589-1.0428 3.4651h.0033.0303.0304.0305.0305.0306.0306.0307.0308.0308.0309.031.031.0311.0311.0312.0313.0313.0314.0315.0315.0316.0317.0317.0317.0319.0319.0319.0321.0321.0321.0322.0323.0323.0325.0324.0326.0326.0326.0328.0327.0329.0329.033.033.0332.0331.0333.0333.0334.0334.0335.0336.0336.0337.0337.0339.0338.034.034.0341.0342.0342.0342.0344.0344.0345.0345.0346.0347.0347.0348.0349.0349.035.0351.0352.0352.0352.0353.0354.0355.0355.0356.0357.0357.0358.0359.0359.036.0361.0361.0362.0363.0363.0364.0365.0365.0366.0367.0367.0368.0369.0369.0371.037.0372.0372.0373.0373.0374.0375.0375.0377.0376.0378.0378.0379.038.038.038.038.0379.0379.0378.0378.0377.0376.0376.0376.0374.0375.0373.0374.0372.0372.0372.0371.037.037.0369.0369.0368.0368.0367.0366.0366.0366.0365.0364.0364.0363.0362.0362.0362.0361.036.036.0359.0359.0358.0358.0357.0356.0356.0355.0355.0354.0354.0353.0352.0352.0352.0351.035.035.0349.0348.0348.0348.0347.0346.0346.0345.0345.0344.0343.0343.0342.0342.0341.0341.034.034.0339.0338.0338.0337.0337.0336.0336.0335.0334.0334.0333.0333.0332.0331.0331.0331.033.0329.0329.0328.0327.0327.0327.0326.0325.0325.0324.0323.0323.0323.0322.0321.0321.032.0319.0319.0318.0318.0318.0316.0316.0316.0244c-.2636-1.3062-.6194-2.4772-1.0427-3.4651-.4724-1.1021-1.0092-1.93017-1.5543-2.46815-.5408-.53373-1.0351-.73335-1.4662-.73335zm-4.8587 2.4137c-.5262 1.2277-.9481 2.6683-1.2415 4.2529h-.0108-.0259-.0259-.0258-.0257-.0257-.0256-.0256-.0255-.0254-.0254-.0253-.0253-.0252-.0252-.0251-.0251-.025-.0249-.0249-.0248-.0248-.0247-.0246-.0246-.0246-.0245-.0244-.0244-.0243-.0242-.0242-.0242-.0241-.024-.024-.0239-.0239-.0238-.0238-.0237-.0236-.0236-.0235-.0235-.0235-.0233-.0233-.0233-.0232-.0232-.0231-.023-.023-.0229-.0229-.0228-.0228-.0227-.0226-.0226-.0226-.0225-.0224-.0224-.0223-.0223-.0222-.0222-.0221-.0221-.022-.022-.0219-.0218-.0218-.0217-.0217-.0217-.0215-.0216-.0214-.0215-.0213-.0213-.0213-.0212-.0212-.0211-.021-.021-.0209-.0209-.0209-.0208-.0207-.0207-.0206-.0206-.0205-.0205-.0204-.0204-.0203-.0202-.0203-.0201-.0201-.0201-.02-.0199-.0199-.0199-.0198-.0197-.0197-.0197-.0196-.0195-.0195-.0194-.0194-.0194-.0193-.0192-.0192-.0191-.0191-.019-.019-.0189-.0189-.0189-.0187-.0188-.0187-.0186-.0186-.0185-.0185-.0184-.0184-.0183-.0183-.0182-.0182-.0181-.0181-.0181-.0179-.018-.0179-.0178-.0178-.0177-.0177-.0177-.0175-.0176-.0175-.0174-.0174-.0174-.0173-.0172-.0172-.0172-.0171-.017-.017-.017-.0169-.0169-.0168-.0167-.0168-.0166-.0166-.0166-.0166-.0164-.0165-.0163-.0164-.0163-.0162-.0162-.01616-.0161-.01605-.016-.01596-.01591-.01587-.01582-.01577-.01572-.01568-.01563-.01558-.01554-.01549-.01544-.0154-.01535-.01531-.01526-.01521-.01517-.01512-.01507-.01503-.01499-.01493-.01489-.01485-.0148-.01475-.01471-.01467-.01462-.01457-.01452-.01449-.01443-.01439-.01435-.0143-.01426-.01421-.01417-.01412-.01408-.01403-.01398-.01395-.0139-.00492c1.38742-2.7918 3.83012-4.96661 6.80622-6.00257-.3366.52772-.6409 1.11629-.9123 1.74967zm-6.66605 6.2529h-.00622c-.30539 1.0583-.46903 2.1768-.46903 3.3334s.16364 2.2751.46903 3.3334h.00622.01125.01128.01133.01137.01141.01146.01149.01154.01157.01162.01166.0117.01174.01179.01182.01187.01191.01196.01199.01204.01208.01212.01216.0122.01225.01229.01233.01238.01242.01246.0125.01254.01259.01263.01268.01271.01277.0128.01285.01288.01294.01297.01302.01307.0131.01315.0132.01323.01328.01333.01336.01342.01345.0135.01355.01359.01363.01367.01373.01376.01381.01385.0139.01395.01398.01403.01408.01412.01417.01421.01426.0143.01435.01439.01443.01449.01452.01457.01462.01467.01471.01475.0148.01485.01489.01493.01499.01503.01507.01512.01517.01521.01526.01531.01535.0154.01544.01549.01554.01558.01563.01568.01572.01577.01582.01587.01591.01596.016.01605.0161.01616.0162.0162.0163.0164.0163.0165.0164.0166.0166.0166.0166.0168.0167.0168.0169.0169.017.017.017.0171.0172.0172.0172.0173.0174.0174.0174.0175.0176.0175.0177.0177.0177.0178.0178.0179.018.0179.0181.0181.0181.0182.0182.0183.0183.0184.0184.0185.0185.0186.0186.0187.0188.0187.0189.0189.0189.019.019.0191.0191.0192.0192.0193.0194.0194.0194.0195.0195.0196.0197.0197.0197.0198.0199.0199.0199.02.0201.0201.0201.0203.0202.0203.0204.0204.0205.0205.0206.0206.0207.0207.0208.0209.0209.0209.021.021.0211.0212.0212.0213.0213.0213.0215.0214.0216.0215.0217.0217.0217.0218.0218.0219.022.022.0221.0221.0222.0222.0223.0223.0224.0224.0225.0226.0226.0226.0227.0228.0228.0229.0229.023.023.0231.0232.0232.0233.0233.0233.0235.0235.0235.0236.0236.0237.0238.0238.0239.0239.024.024.0241.0242.0242.0242.0243.0244.0244.0245.0246.0246.0246.0247.0248.0248.0249.0249.025.0251.0251.0252.0252.0253.0001c-.1171-1.0704-.1787-2.1874-.1787-3.3334s.0616-2.263.1787-3.3334h-.0001-.0253-.0252-.0252-.0251-.0251-.025-.0249-.0249-.0248-.0248-.0247-.0246-.0246-.0246-.0245-.0244-.0244-.0243-.0242-.0242-.0242-.0241-.024-.024-.0239-.0239-.0238-.0238-.0237-.0236-.0236-.0235-.0235-.0235-.0233-.0233-.0233-.0232-.0232-.0231-.023-.023-.0229-.0229-.0228-.0228-.0227-.0226-.0226-.0226-.0225-.0224-.0224-.0223-.0223-.0222-.0222-.0221-.0221-.022-.022-.0219-.0218-.0218-.0217-.0217-.0217-.0215-.0216-.0214-.0215-.0213-.0213-.0213-.0212-.0212-.0211-.021-.021-.0209-.0209-.0209-.0208-.0207-.0207-.0206-.0206-.0205-.0205-.0204-.0204-.0203-.0202-.0203-.0201-.0201-.0201-.02-.0199-.0199-.0199-.0198-.0197-.0197-.0197-.0196-.0195-.0195-.0194-.0194-.0194-.0193-.0192-.0192-.0191-.0191-.019-.019-.0189-.0189-.0189-.0187-.0188-.0187-.0186-.0186-.0185-.0185-.0184-.0184-.0183-.0183-.0182-.0182-.0181-.0181-.0181-.0179-.018-.0179-.0178-.0178-.0177-.0177-.0177-.0175-.0176-.0175-.0174-.0174-.0174-.0173-.0172-.0172-.0172-.0171-.017-.017-.017-.0169-.0169-.0168-.0167-.0168-.0166-.0166-.0166-.0166-.0164-.0165-.0163-.0164-.0163-.0162-.0162-.01616-.0161-.01605-.016-.01596-.01591-.01587-.01582-.01577-.01572-.01568-.01563-.01558-.01554-.01549-.01544-.0154-.01535-.01531-.01526-.01521-.01517-.01512-.01507-.01503-.01499-.01493-.01489-.01485-.0148-.01475-.01471-.01467-.01462-.01457-.01452-.01449-.01443-.01439-.01435-.0143-.01426-.01421-.01417-.01412-.01408-.01403-.01398-.01395-.0139-.01385-.01381-.01376-.01373-.01367-.01363-.01359-.01355-.0135-.01345-.01342-.01336-.01333-.01328-.01323-.0132-.01315-.0131-.01307-.01302-.01297-.01294-.01288-.01285-.0128-.01277-.01271-.01268-.01263-.01259-.01254-.0125-.01246-.01242-.01238-.01233-.01229-.01225-.0122-.01216-.01212-.01208-.01204-.01199-.01196-.01191-.01187-.01182-.01179-.01174-.0117-.01166-.01162-.01157-.01154-.01149-.01146-.01141-.01137-.01133-.01128zm5.42455 8.6668h-.0108-.0259-.0259-.0258-.0257-.0257-.0256-.0256-.0255-.0254-.0254-.0253-.0253-.0252-.0252-.0251-.0251-.025-.0249-.0249-.0248-.0248-.0247-.0246-.0246-.0246-.0245-.0244-.0244-.0243-.0242-.0242-.0242-.0241-.024-.024-.0239-.0239-.0238-.0238-.0237-.0236-.0236-.0235-.0235-.0235-.0233-.0233-.0233-.0232-.0232-.0231-.023-.023-.0229-.0229-.0228-.0228-.0227-.0226-.0226-.0226-.0225-.0224-.0224-.0223-.0223-.0222-.0222-.0221-.0221-.022-.022-.0219-.0218-.0218-.0217-.0217-.0217-.0215-.0216-.0214-.0215-.0213-.0213-.0213-.0212-.0212-.0211-.021-.021-.0209-.0209-.0209-.0208-.0207-.0207-.0206-.0206-.0205-.0205-.0204-.0204-.0203-.0202-.0203-.0201-.0201-.0201-.02-.0199-.0199-.0199-.0198-.0197-.0197-.0197-.0196-.0195-.0195-.0194-.0194-.0194-.0193-.0192-.0192-.0191-.0191-.019-.019-.0189-.0189-.0189-.0187-.0188-.0187-.0186-.0186-.0185-.0185-.0184-.0184-.0183-.0183-.0182-.0182-.0181-.0181-.0181-.0179-.018-.0179-.0178-.0178-.0177-.0177-.0177-.0175-.0176-.0175-.0174-.0174-.0174-.0173-.0172-.0172-.0172-.0171-.017-.017-.017-.0169-.0169-.0168-.0167-.0168-.0166-.0166-.0166-.0166-.0164-.0165-.0163-.0164-.0163-.0162-.0162-.01616-.0161-.01605-.016-.01596-.01591-.01587-.01582-.01577-.01572-.01568-.01563-.01558-.01554-.01549-.01544-.0154-.01535-.01531-.01526-.01521-.01517-.01512-.01507-.01503-.01499-.01493-.01489-.01485-.0148-.01475-.01471-.01467-.01462-.01457-.01452-.01449-.01443-.01439-.01435-.0143-.01426-.01421-.01417-.01412-.01408-.01403-.01398-.01395-.0139-.00492c1.38742 2.7918 3.83012 4.9666 6.80622 6.0026-.3366-.5277-.6409-1.1163-.9123-1.7497-.5262-1.2277-.9481-2.6683-1.2415-4.2529zm2.037 0h.0033.0303.0304.0305.0305.0306.0306.0307.0308.0308.0309.031.031.0311.0311.0312.0313.0313.0314.0315.0315.0316.0317.0317.0317.0319.0319.0319.0321.0321.0321.0322.0323.0323.0325.0324.0326.0326.0326.0328.0327.0329.0329.033.033.0332.0331.0333.0333.0334.0334.0335.0336.0336.0337.0337.0339.0338.034.034.0341.0342.0342.0342.0344.0344.0345.0345.0346.0347.0347.0348.0349.0349.035.0351.0352.0352.0352.0353.0354.0355.0355.0356.0357.0357.0358.0359.0359.036.0361.0361.0362.0363.0363.0364.0365.0365.0366.0367.0367.0368.0369.0369.0371.037.0372.0372.0373.0373.0374.0375.0375.0377.0376.0378.0378.0379.038.038.038.038.0379.0379.0378.0378.0377.0376.0376.0376.0374.0375.0373.0374.0372.0372.0372.0371.037.037.0369.0369.0368.0368.0367.0366.0366.0366.0365.0364.0364.0363.0362.0362.0362.0361.036.036.0359.0359.0358.0358.0357.0356.0356.0355.0355.0354.0354.0353.0352.0352.0352.0351.035.035.0349.0348.0348.0348.0347.0346.0346.0345.0345.0344.0343.0343.0342.0342.0341.0341.034.034.0339.0338.0338.0337.0337.0336.0336.0335.0334.0334.0333.0333.0332.0331.0331.0331.033.0329.0329.0328.0327.0327.0327.0326.0325.0325.0324.0323.0323.0323.0322.0321.0321.032.0319.0319.0318.0318.0318.0316.0316.0316.0244c-.2636 1.3062-.6194 2.4772-1.0427 3.4651-.4724 1.1021-1.0092 1.9302-1.5543 2.4681-.5408.5338-1.0351.7334-1.4662.7334s-.9254-.1996-1.4662-.7334c-.5451-.5379-1.0819-1.366-1.5542-2.4681-.4234-.9879-.7792-2.1589-1.0428-3.4651zm8.4431-2h-.0288-.031-.031-.0311-.0311-.0312-.0313-.0313-.0314-.0314-.0315-.0316-.0316-.0316-.0318-.0318-.0318-.0319-.0319-.032-.0321-.0321-.0322-.0323-.0323-.0323-.0324-.0325-.0325-.0326-.0327-.0327-.0327-.0328-.0329-.0329-.033-.0331-.0331-.0331-.0332-.0333-.0333-.0334-.0334-.0335-.0336-.0336-.0337-.0337-.0338-.0338-.0339-.034-.034-.0341-.0341-.0342-.0342-.0343-.0343-.0344-.0345-.0345-.0346-.0346-.0347-.0348-.0348-.0348-.0349-.035-.035-.0351-.0352-.0352-.0352-.0353-.0354-.0354-.0355-.0355-.0356-.0356-.0357-.0358-.0358-.0359-.0359-.036-.036-.0361-.0362-.0362-.0362-.0363-.0364-.0364-.0365-.0366-.0366-.0366-.0367-.0368-.0368-.0369-.0369-.037-.037-.0371-.0372-.0372-.0372-.0374-.0373-.0375-.0374-.0376-.0376-.0376-.0377-.0378-.0378-.0379-.0379-.038-.038-.038-.038-.0379-.0378-.0378-.0376-.0377-.0375-.0375-.0374-.0373-.0373-.0372-.0372-.037-.0371-.0369-.0369-.0368-.0367-.0367-.0366-.0365-.0365-.0364-.0363-.0363-.0362-.0361-.0361-.036-.0359-.0359-.0358-.0357-.0357-.0356-.0355-.0355-.0354-.0353-.0352-.0352-.0352-.0351-.035-.0349-.0349-.0348-.0347-.0347-.0346-.0345-.0345-.0344-.0344-.0342-.0342-.0342-.0341-.034-.034-.0338-.0339-.0337-.0337-.0336-.0336-.0335-.0334-.0334-.0333-.0333-.0331-.0332-.033-.033-.0329-.0329-.0327-.0328-.0326-.0326-.0326-.0324-.0325-.0323-.0323-.0322-.0321-.0321-.0321-.0319-.0319-.0319-.0317-.0317-.0317-.0316-.0315-.0315-.0314-.0313-.0313-.0312-.0311-.0311-.031-.031-.0309-.0308-.0308-.0307-.0306-.0306-.0305-.0305-.0304-.0303-.0303-.0302-.0301-.0301-.0301-.0299-.0299-.0299-.0298-.0297-.02c-.1244-1.0564-.1915-2.174-.1915-3.3334s.0671-2.277.1915-3.3334h.02.0297.0298.0299.0299.0299.0301.0301.0301.0302.0303.0303.0304.0305.0305.0306.0306.0307.0308.0308.0309.031.031.0311.0311.0312.0313.0313.0314.0315.0315.0316.0317.0317.0317.0319.0319.0319.0321.0321.0321.0322.0323.0323.0325.0324.0326.0326.0326.0328.0327.0329.0329.033.033.0332.0331.0333.0333.0334.0334.0335.0336.0336.0337.0337.0339.0338.034.034.0341.0342.0342.0342.0344.0344.0345.0345.0346.0347.0347.0348.0349.0349.035.0351.0352.0352.0352.0353.0354.0355.0355.0356.0357.0357.0358.0359.0359.036.0361.0361.0362.0363.0363.0364.0365.0365.0366.0367.0367.0368.0369.0369.0371.037.0372.0372.0373.0373.0374.0375.0375.0377.0376.0378.0378.0379.038.038.038.038.0379.0379.0378.0378.0377.0376.0376.0376.0374.0375.0373.0374.0372.0372.0372.0371.037.037.0369.0369.0368.0368.0367.0366.0366.0366.0365.0364.0364.0363.0362.0362.0362.0361.036.036.0359.0359.0358.0358.0357.0356.0356.0355.0355.0354.0354.0353.0352.0352.0352.0351.035.035.0349.0348.0348.0348.0347.0346.0346.0345.0345.0344.0343.0343.0342.0342.0341.0341.034.034.0339.0338.0338.0337.0337.0336.0336.0335.0334.0334.0333.0333.0332.0331.0331.0331.033.0329.0329.0328.0327.0327.0327.0326.0325.0325.0324.0323.0323.0323.0322.0321.0321.032.0319.0319.0318.0318.0318.0316.0316.0316.0315.0314.0314.0313.0313.0312.0311.0311.031.031.0288c.1244 1.0564.1915 2.174.1915 3.3334s-.0671 2.277-.1915 3.3334zm1.7203 2c-.2934 1.5846-.7153 3.0252-1.2415 4.2529-.2714.6334-.5757 1.222-.9123 1.7497 2.9761-1.036 5.4188-3.2108 6.8062-6.0026h-.0095-.0135-.0135-.0137-.0136-.0138-.0138-.0138-.014-.0139-.0141-.0141-.0142-.0143-.0143-.0144-.0144-.0145-.0146-.0146-.0147-.0148-.0148-.0149-.0149-.0151-.015-.0152-.0152-.0153-.0153-.0154-.0155-.0155-.0156-.0157-.0157-.0158-.0158-.0159-.016-.016-.0161-.0162-.0162-.0163-.0164-.0164-.0165-.0165-.0166-.0167-.0167-.0168-.0169-.0169-.017-.017-.0172-.0171-.0173-.0173-.0173-.0175-.0175-.0175-.0176-.0177-.0178-.0178-.0178-.018-.018-.018-.0181-.0182-.0183-.0183-.0184-.0184-.0185-.0185-.0187-.0186-.0188-.0188-.0189-.0189-.019-.0191-.0191-.0192-.0192-.0193-.0194-.0194-.0195-.0196-.0196-.0197-.0197-.0198-.0199-.0199-.02-.0201-.0201-.0202-.0202-.0203-.0204-.0204-.0205-.0206-.0206-.0206-.0208-.0208-.0208-.021-.0209-.0211-.0211-.0212-.0212-.0213-.0213-.0214-.0215-.0216-.0216-.0216-.0217-.0218-.0219-.0219-.0219-.0221-.0221-.0221-.0222-.0223-.0223-.0224-.0225-.0225-.0226-.0226-.0227-.0228-.0228-.0229-.0229-.0231-.023-.0232-.0231-.0233-.0233-.0234-.0234-.0235-.0236-.0236-.0237-.0237-.0238-.0238-.024-.0239-.0241-.0241-.0241-.0243-.0242-.0244-.0244-.0245-.0245-.0246-.0246-.0247-.0248-.0248-.0249-.0249-.025-.0251-.0251-.0252-.0253-.0253-.0253-.0255-.0255-.0255-.0256-.0257-.0257-.0258-.0258-.026-.0259-.026-.0261-.0262-.0262-.0263-.0263-.0264-.0264-.0265-.0266-.0266-.0267-.0267-.0268-.0269-.0269-.027-.027-.0271-.0272-.0272-.0273-.0273-.0274zm5.4308-2h-.0058-.0089-.0089-.0091-.0091-.0092-.0092-.0093-.0094-.0095-.0095-.0095-.0097-.0097-.0098-.0098-.0099-.01-.01-.0101-.0102-.0102-.0103-.0104-.0104-.0105-.0105-.0107-.0106-.0108-.0108-.0109-.011-.011-.011-.0112-.0112-.0113-.0113-.0114-.0115-.0115-.0116-.0117-.0117-.0118-.0119-.0119-.012-.0121-.0121-.0122-.0122-.0123-.0124-.0125-.0125-.0126-.0126-.0127-.0128-.0128-.0129-.013-.013-.0131-.0131-.0133-.0133-.0133-.0134-.0135-.0135-.0137-.0136-.0138-.0138-.0138-.014-.0139-.0141-.0141-.0142-.0143-.0143-.0144-.0144-.0145-.0146-.0146-.0147-.0148-.0148-.0149-.0149-.0151-.015-.0152-.0152-.0153-.0153-.0154-.0155-.0155-.0156-.0157-.0157-.0158-.0158-.0159-.016-.016-.0161-.0162-.0162-.0163-.0164-.0164-.0165-.0165-.0166-.0167-.0167-.0168-.0169-.0169-.017-.017-.0172-.0171-.0173-.0173-.0173-.0175-.0175-.0175-.0176-.0177-.0178-.0178-.0178-.018-.018-.018-.0181-.0182-.0183-.0183-.0184-.0184-.0185-.0185-.0187-.0186-.0188-.0188-.0189-.0189-.019-.0191-.0191-.0192-.0192-.0193-.0194-.0194-.0195-.0196-.0196-.0197-.0197-.0198-.0199-.0199-.02-.0201-.0201-.0202-.0202-.0203-.0204-.0204-.0205-.0206-.0206-.0206-.0208-.0208-.0208-.021-.0209-.0211-.0211-.0212-.0212-.0213-.0213-.0214-.0215-.0216-.0216-.0216-.0217-.0218-.0219-.0219-.0219-.0221-.0221-.0221-.0222-.0223-.0223-.0224-.0225-.0225-.0226-.0226-.0227-.0228-.0228-.0229-.0229-.0231-.023-.0232-.0231-.0233-.0233-.0234-.0234-.0235-.0236-.0236-.0237-.0237-.0238-.0238-.024-.0239-.0241-.0241-.0241-.0243-.0242-.0244-.0244-.0245-.0245-.0246-.0246-.0247-.0248-.0248-.0249-.0249-.025-.0251-.0251-.0252-.0253-.0253-.0253-.0255-.0255-.0255-.0256-.0257-.0257-.0258-.0258-.026-.0259-.026-.0261-.0262-.0262-.0263-.0263-.0264-.0264-.0265-.0266-.0266-.0267-.0267-.008c.1171-1.0704.1787-2.1874.1787-3.3334s-.0616-2.263-.1787-3.3334h.008.0267.0267.0266.0266.0265.0264.0264.0263.0263.0262.0262.0261.026.0259.026.0258.0258.0257.0257.0256.0255.0255.0255.0253.0253.0253.0252.0251.0251.025.0249.0249.0248.0248.0247.0246.0246.0245.0245.0244.0244.0242.0243.0241.0241.0241.0239.024.0238.0238.0237.0237.0236.0236.0235.0234.0234.0233.0233.0231.0232.023.0231.0229.0229.0228.0228.0227.0226.0226.0225.0225.0224.0223.0223.0222.0221.0221.0221.0219.0219.0219.0218.0217.0216.0216.0216.0215.0214.0213.0213.0212.0212.0211.0211.0209.021.0208.0208.0208.0206.0206.0206.0205.0204.0204.0203.0202.0202.0201.0201.02.0199.0199.0198.0197.0197.0196.0196.0195.0194.0194.0193.0192.0192.0191.0191.019.0189.0189.0188.0188.0186.0187.0185.0185.0184.0184.0183.0183.0182.0181.018.018.018.0178.0178.0178.0177.0176.0175.0175.0175.0173.0173.0173.0171.0172.017.017.0169.0169.0168.0167.0167.0166.0165.0165.0164.0164.0163.0162.0162.0161.016.016.0159.0158.0158.0157.0157.0156.0155.0155.0154.0153.0153.0152.0152.015.0151.0149.0149.0148.0148.0147.0146.0146.0145.0144.0144.0143.0143.0142.0141.0141.0139.014.0138.0138.0138.0136.0137.0135.0135.0134.0133.0133.0133.0131.0131.013.013.0129.0128.0128.0127.0126.0126.0125.0125.0124.0123.0122.0122.0121.0121.012.0119.0119.0118.0117.0117.0116.0115.0115.0114.0113.0113.0112.0112.011.011.011.0109.0108.0108.0106.0107.0105.0105.0104.0104.0103.0102.0102.0101.01.01.0099.0098.0098.0097.0097.0095.0095.0095.0094.0093.0092.0092.0091.0091.0089.0089.0058c.3054 1.0583.469 2.1768.469 3.3334s-.1636 2.2751-.469 3.3334zm-7.5846-14.66937c2.9761 1.03596 5.4188 3.21077 6.8062 6.00257h-.0095-.0135-.0135-.0137-.0136-.0138-.0138-.0138-.014-.0139-.0141-.0141-.0142-.0143-.0143-.0144-.0144-.0145-.0146-.0146-.0147-.0148-.0148-.0149-.0149-.0151-.015-.0152-.0152-.0153-.0153-.0154-.0155-.0155-.0156-.0157-.0157-.0158-.0158-.0159-.016-.016-.0161-.0162-.0162-.0163-.0164-.0164-.0165-.0165-.0166-.0167-.0167-.0168-.0169-.0169-.017-.017-.0172-.0171-.0173-.0173-.0173-.0175-.0175-.0175-.0176-.0177-.0178-.0178-.0178-.018-.018-.018-.0181-.0182-.0183-.0183-.0184-.0184-.0185-.0185-.0187-.0186-.0188-.0188-.0189-.0189-.019-.0191-.0191-.0192-.0192-.0193-.0194-.0194-.0195-.0196-.0196-.0197-.0197-.0198-.0199-.0199-.02-.0201-.0201-.0202-.0202-.0203-.0204-.0204-.0205-.0206-.0206-.0206-.0208-.0208-.0208-.021-.0209-.0211-.0211-.0212-.0212-.0213-.0213-.0214-.0215-.0216-.0216-.0216-.0217-.0218-.0219-.0219-.0219-.0221-.0221-.0221-.0222-.0223-.0223-.0224-.0225-.0225-.0226-.0226-.0227-.0228-.0228-.0229-.0229-.0231-.023-.0232-.0231-.0233-.0233-.0234-.0234-.0235-.0236-.0236-.0237-.0237-.0238-.0238-.024-.0239-.0241-.0241-.0241-.0243-.0242-.0244-.0244-.0245-.0245-.0246-.0246-.0247-.0248-.0248-.0249-.0249-.025-.0251-.0251-.0252-.0253-.0253-.0253-.0255-.0255-.0255-.0256-.0257-.0257-.0258-.0258-.026-.0259-.026-.0261-.0262-.0262-.0263-.0263-.0264-.0264-.0265-.0266-.0266-.0267-.0267-.0268-.0269-.0269-.027-.027-.0271-.0272-.0272-.0273-.0273-.0274-.0024c-.2934-1.5846-.7153-3.0252-1.2415-4.2529-.2714-.63338-.5757-1.22195-.9123-1.74967zm-3.9464 25.33597c7.732 0 14-6.268 14-14s-6.268-14-14-14-14 6.268-14 14 6.268 14 14 14z" fill="#3EF0FC" fill-rule="evenodd"/></svg>