<svg width="40" height="40" viewBox="0 0 40 40" fill="none" xmlns="http://www.w3.org/2000/svg">
<path fill-rule="evenodd" clip-rule="evenodd" d="M24.1037 20.8533C24.7418 20.4634 24.7418 19.5366 24.1037 19.1467L18.0214 15.4298C17.3551 15.0226 16.5 15.5021 16.5 16.2831V23.7169C16.5 24.4979 17.3551 24.9774 18.0215 24.5702L24.1037 20.8533Z" stroke="#006A97" stroke-width="2"/>
<path fill-rule="evenodd" clip-rule="evenodd" d="M33.8502 10.6766C34.3312 11.1642 34.6766 11.7705 34.8518 12.4348C35.5 14.8868 35.5 20 35.5 20C35.5 20 35.5 25.1132 34.8518 27.5652C34.6766 28.2295 34.3312 28.8358 33.8502 29.3234C33.3692 29.811 32.7695 30.1628 32.1111 30.3435C29.6875 31 20 31 20 31C20 31 10.3125 31 7.88886 30.3435C7.23049 30.1628 6.63081 29.811 6.14983 29.3234C5.66885 28.8358 5.32344 28.2295 5.14818 27.5652C4.5 25.1132 4.5 20 4.5 20C4.5 20 4.5 14.8868 5.14818 12.4348C5.32344 11.7705 5.66885 11.1642 6.14983 10.6766C6.63081 10.189 7.23049 9.83724 7.88886 9.65645C10.3125 9 20 9 20 9C20 9 29.6875 9 32.1111 9.65645C32.7695 9.83724 33.3692 10.189 33.8502 10.6766Z" stroke="#006A97" stroke-width="2"/>
</svg>
