<svg width="108" height="109" viewBox="0 0 108 109" fill="none" xmlns="http://www.w3.org/2000/svg">
<path d="M100.178 92.1153C94.0146 87.9105 87.8945 83.6398 81.818 79.2898C81.2121 78.8555 80.628 79.9189 81.2339 80.3533C87.3104 84.7032 93.4305 88.974 99.5939 93.1787C100.212 93.5999 100.79 92.5363 100.178 92.1153Z" fill="#FF9E9E"/>
<path d="M9.71753 23.5405C17.458 30.2296 25.2481 36.8394 33.1307 43.3241C33.7117 43.8047 34.2898 42.7345 33.7148 42.2607C25.8322 35.776 18.0421 29.1661 10.3016 22.477C9.73294 21.9833 9.15481 23.0535 9.71753 23.5405Z" fill="#FF9E9E"/>
<path d="M96.9234 13.9873C92.3927 20.9797 86.8627 27.0731 81.0712 32.7969C80.5308 33.3285 81.3182 34.2179 81.8586 33.6863C87.7237 27.8903 93.3034 21.7044 97.8959 14.6263C98.3169 13.9732 97.3503 13.3409 96.9294 13.9873L96.9234 13.9873Z" fill="#FF9E9E"/>
<path d="M12.6309 99.6802C19.7359 92.71 26.8825 85.7936 34.053 78.9041C34.5994 78.3792 33.8119 77.4965 33.2656 78.0148C26.0951 84.9042 18.9485 91.8206 11.8435 98.7908C11.3031 99.3225 12.0845 100.205 12.6309 99.6802Z" fill="#FF9E9E"/>
<path d="M55.4779 107.234C54.8343 99.4311 54.785 91.5902 54.693 83.762C54.6857 82.9699 53.5593 82.9477 53.5665 83.7465C53.6584 91.5747 53.7078 99.4156 54.3514 107.218C54.4132 108.004 55.5457 108.027 55.4779 107.234Z" fill="#FF9E9E"/>
<path d="M55.8097 1.34061C55.0023 9.8153 54.4972 18.3274 54.1435 26.8417C54.1083 27.6398 55.2348 27.6554 55.2701 26.8572C55.6237 18.343 56.1288 9.83083 56.9362 1.35614C57.0138 0.565201 55.8871 0.556322 55.8097 1.34061Z" fill="#FF9E9E"/>
<path d="M106.013 55.2046C100.167 55.2172 94.3177 55.456 88.4789 55.8281C87.7574 55.8714 87.7342 57.1157 88.4618 57.0658C94.3006 56.6937 100.15 56.4549 105.996 56.4423C106.723 56.439 106.74 55.2014 106.013 55.2046Z" fill="#FF9E9E"/>
<path d="M1.11712 65.0988C9.76087 64.2729 18.3984 63.4602 27.042 62.641C27.7578 62.571 27.7809 61.3334 27.0591 61.4033C18.4154 62.2225 9.77793 63.0352 1.13419 63.8611C0.418404 63.9311 0.395282 65.1687 1.11712 65.0988Z" fill="#FF9E9E"/>
<path d="M32.8812 42.6223C32.1997 49.4281 29.947 55.9661 26.3862 61.5875C26.219 61.8514 26.3221 62.2855 26.5744 62.4354C31.8927 65.5436 32.6535 72.7554 33.1051 78.6651C33.1356 79.0915 33.4229 79.3417 33.8115 79.2739C37.9408 78.5521 42.3205 79.4311 46.2954 80.6773C48.111 81.2481 49.9129 81.9252 51.6087 82.8337C52.2281 83.1617 52.841 83.5229 53.4106 83.9501C53.7104 84.1739 53.9958 84.5638 54.3773 84.5757C54.7588 84.5876 55.2113 84.2811 55.5651 84.1062C56.2726 83.7566 56.9799 83.4203 57.699 83.1107C60.3498 81.9759 63.1109 81.1887 65.9165 80.6883C71.0723 79.7677 76.3353 79.8536 81.5052 80.5438C81.8256 80.5882 82.0546 80.2386 82.077 79.9327C82.7454 71.8754 83.9961 63.327 88.8582 56.9049C89.0556 56.648 89.1029 56.2893 88.8703 56.0265C83.7707 50.2391 80.9563 41.2752 82.0178 33.2632C82.0586 32.9377 81.7358 32.6271 81.4631 32.6366C72.4266 32.9513 63.0778 31.3049 55.3496 25.9205C55.1457 25.7779 54.8302 25.8135 54.6639 26.0109C48.7524 32.9709 41.4699 38.7607 33.2951 42.0423C32.6189 42.3125 32.8931 43.5143 33.5754 43.2375C41.9329 39.8852 49.3922 34.018 55.4453 26.8935L54.7595 26.9839C62.6498 32.477 72.2216 34.193 81.4399 33.8742L80.8852 33.2476C79.7831 41.5652 82.7681 50.8975 88.0527 56.8938L88.0648 56.0154C82.9866 62.7274 81.6361 71.4874 80.9383 79.917L81.5101 79.3059C73.7825 78.2743 65.7208 78.6223 58.3326 81.5354C57.4311 81.8891 56.5413 82.2828 55.6691 82.71C55.3824 82.8525 55.0958 82.995 54.8031 83.1307C54.7056 83.1759 54.6079 83.2278 54.5104 83.2731C54.5897 83.2342 54.4196 83.2652 54.3702 83.331C54.284 83.4363 54.2141 83.2357 54.3701 83.3443C54.9041 83.7111 54.3719 83.2113 54.2222 83.0827C53.6711 82.6359 53.0704 82.2682 52.4631 81.9337C50.8459 81.0395 49.1351 80.3437 47.4046 79.7541C43.0029 78.2692 38.1219 77.2767 33.519 78.0851L34.2254 78.6939C33.7374 72.3444 32.8491 64.7182 27.1523 61.3851L27.3405 62.233C31.019 56.4201 33.2989 49.6696 34.0016 42.6444C34.0791 41.8534 32.9525 41.8445 32.875 42.6288L32.8812 42.6223Z" fill="#FF9E9E"/>
<path d="M19.4147 31.5276C19.0861 43.0571 15.2311 54.2053 9.36332 63.7083C9.13409 64.0779 9.37699 64.4739 9.68992 64.6247C13.668 66.5164 16.5524 70.4098 18.2499 74.706C20.2165 79.6982 20.6443 85.135 20.6064 90.5188C20.6012 90.8981 20.9597 91.2558 21.3129 91.1276C23.3221 90.3899 25.3978 90.545 27.4728 90.7466C29.2515 90.9176 31.0384 90.9222 32.8173 91.0799C36.1751 91.3857 39.5022 92.1637 42.7479 93.1403C45.722 94.0398 48.6877 95.1057 51.5035 96.5022C51.9968 96.7486 52.49 97.0084 52.9708 97.2812C53.2594 97.4449 53.5765 97.7288 53.8964 97.8131C54.1077 97.8693 54.3023 97.812 54.5033 97.7349C55.0939 97.5168 55.6506 97.1185 56.2001 96.8066C57.1954 96.2413 58.2023 95.7028 59.2208 95.2043C62.8068 93.4634 66.5741 92.1976 70.3797 91.2185C77.8026 89.3108 85.4223 88.5041 93.0283 88.2562C93.3313 88.2471 93.5953 87.9912 93.6001 87.6451C93.6856 81.8826 94.207 76.1394 95.2059 70.476C96.0801 65.5031 97.035 59.9522 100.137 56.0016C100.315 55.7778 100.349 55.5187 100.238 55.2509C95.7075 44.6394 93.3299 32.9927 93.2856 21.265C93.2857 20.8191 92.9433 20.6081 92.5792 20.6563C82.3648 22.0462 71.4393 21.8423 62.2929 16.0723C59.9688 14.6027 57.8431 12.803 55.9883 10.6809C55.6783 10.3239 55.191 10.5169 55.0458 10.9408C53.3166 15.9752 49.1523 19.2389 44.946 21.5902C40.0193 24.3509 34.7081 26.4407 29.4316 28.2115C26.2729 29.2728 23.0741 30.1738 19.8469 30.9346C19.1358 31.1045 19.4222 32.2998 20.1273 32.1298C26.1015 30.7213 31.9555 28.8054 37.6591 26.3815C42.4973 24.3251 47.5374 22.1251 51.5089 18.3462C53.5407 16.4109 55.1725 14.0507 56.1255 11.2752L55.183 11.535C62.4108 19.821 73.0691 22.7034 83.2292 22.6172C86.4524 22.5885 89.6672 22.2867 92.8656 21.8516L92.1592 21.2429C92.2064 33.1969 94.6358 45.044 99.2541 55.8563L99.3554 55.1057C96.1613 59.1748 95.1041 64.6776 94.1853 69.803C93.1352 75.6721 92.5683 81.6343 92.4798 87.6164L93.0516 87.0053C81.9002 87.3707 70.3827 88.8092 59.9712 93.5042C58.0693 94.3632 56.2737 95.4233 54.4246 96.4094C54.2293 96.5132 54.0762 96.6375 54.0344 96.5904C54.0047 96.55 54.271 96.567 54.3122 96.6541C54.2596 96.5136 53.8136 96.3477 53.6934 96.2795C53.417 96.116 53.1404 95.9657 52.8578 95.8154C50.2178 94.408 47.4278 93.3379 44.6176 92.414C41.0536 91.2467 37.3951 90.3377 33.6936 89.9073C31.728 89.6805 29.7468 89.6998 27.7746 89.5129C25.5119 89.2953 23.2307 89.1108 21.0328 89.9124L21.7392 90.5211C21.7814 84.8246 21.2787 79.1072 19.1461 73.8532C17.3064 69.322 14.1982 65.4123 10.0094 63.4244L10.336 64.3407C16.3091 54.6661 20.2159 43.279 20.5474 31.5366C20.5705 30.7382 19.444 30.7227 19.4209 31.521L19.4147 31.5276Z" fill="#FF9E9E"/>
<path d="M45.6784 43.3061L46.7998 56.1231L47.8318 56.0328L46.7105 43.2158L45.6784 43.3061ZM44.6587 46.1076C44.6599 47.2458 44.5292 48.8031 44.2483 49.7693L45.0956 49.9762C45.3691 48.9264 45.4938 47.2993 45.4647 46.1636L44.6587 46.1076ZM46.9629 45.7795C47.4545 46.5797 48.0124 47.6552 48.2243 48.3112L48.9839 47.8372C48.7465 47.2115 48.1923 46.1779 47.688 45.3929L46.9629 45.7795ZM48.8443 45.2776L48.9309 46.2678L54.8025 45.7542L55.1307 49.5058L56.1628 49.4155L55.7479 44.6736L48.8443 45.2776ZM48.4712 49.5263L48.559 50.5305L57.4013 49.7569L57.3134 48.7527L48.4712 49.5263ZM53.1756 49.3255L52.2582 49.6025C53.2566 52.3399 54.8477 54.4634 57.2508 55.265C57.3925 54.9574 57.6882 54.4819 57.9197 54.2368C55.6593 53.6194 54.0422 51.681 53.1756 49.3255ZM51.3826 42.807L51.7902 47.4652C52.0037 49.9059 52.1339 53.0003 48.5063 55.229C48.7617 55.4174 49.1434 55.7635 49.3023 55.9744C53.0207 53.4989 53.0753 50.1072 52.8362 47.3737L52.4286 42.7155L51.3826 42.807ZM58.7081 44.1336L58.7972 45.1517L70.8332 44.0987L70.7442 43.0806L58.7081 44.1336ZM63.922 41.724L65.0433 54.541L66.1312 54.4459L65.0098 41.6288L63.922 41.724ZM64.5893 47.9054C63.5195 50.1351 61.2849 52.3824 59.0387 53.5345C59.2941 53.723 59.6655 54.1121 59.856 54.3625C62.1166 53.0545 64.3403 50.6816 65.4984 48.1772L64.5893 47.9054ZM65.4982 47.8539L64.6513 48.2934C66.2128 50.56 68.7741 52.5282 71.2669 53.3923C71.4226 53.0835 71.7207 52.6358 71.9661 52.3895C69.4728 51.6801 66.9122 49.8804 65.4982 47.8539ZM60.8718 47.4998C61.5924 48.027 62.5025 48.7906 62.9787 49.2549L63.6278 48.4814C63.1515 48.0171 62.2173 47.2978 61.513 46.7973L60.8718 47.4998ZM61.2672 45.2729C61.0062 47.1086 60.2605 48.7057 59.0744 49.7651C59.34 49.9105 59.7738 50.2098 59.957 50.3765C61.1601 49.1891 61.9912 47.4441 62.3011 45.3651L61.2672 45.2729ZM67.5826 46.9408C68.5981 47.6249 69.9472 48.589 70.6055 49.206L71.2812 48.4161C70.5975 47.8294 69.2229 46.8957 68.2262 46.2661L67.5826 46.9408ZM67.8779 44.6945C67.7078 46.2834 67.1579 47.7087 66.2142 48.6486C66.4762 48.7521 66.9482 49.006 67.158 49.1562C68.0629 48.0933 68.6879 46.563 68.8967 44.774L67.8779 44.6945ZM53.0157 65.1678L53.0914 66.0325L57.652 65.6335L57.5763 64.7688L53.0157 65.1678ZM52.0709 60.4722L53.1373 72.6617L54.0997 72.5775L53.115 61.3225L57.1456 60.9698L57.0638 60.0354L52.0709 60.4722ZM56.5617 60.0793L56.796 62.7571C56.8094 62.9105 56.7585 62.9712 56.5366 63.0047C56.3147 63.0381 55.5894 63.1016 54.7223 63.1493C54.885 63.4021 55.0574 63.7665 55.1236 64.0418C56.1975 63.9478 56.8936 63.8728 57.3126 63.6816C57.7315 63.4904 57.8186 63.2017 57.7735 62.6856L57.538 59.9939L56.5617 60.0793ZM54.4325 65.62L53.628 65.9012C54.7046 68.7301 56.4748 71.133 58.7287 72.1584C58.8729 71.8788 59.1608 71.4742 59.3795 71.2442C57.1985 70.4092 55.4138 68.1621 54.4325 65.62ZM57.2555 64.7968L57.2751 65.02C57.066 67.61 55.9832 70.3328 54.0107 71.8826C54.2637 72.0432 54.5962 72.3092 54.7703 72.5329C56.87 70.8314 58.0104 67.9631 58.2895 64.8891L57.6272 64.7081L57.4508 64.7797L57.2555 64.7968ZM45.9887 61.7914L46.068 62.6979L51.2423 62.2452L51.1629 61.3387L45.9887 61.7914ZM46.4888 69.4349L46.5681 70.3414L52.091 69.8582L52.0117 68.9517L46.4888 69.4349ZM45.688 64.1365L45.7673 65.043L51.9736 64.5L51.8943 63.5935L45.688 64.1365ZM46.137 67.0203L46.2163 67.9269L52.06 67.4156L51.9807 66.5091L46.137 67.0203ZM48.0133 60.1948L48.3659 64.2254L49.3422 64.14L48.9895 60.1094L48.0133 60.1948ZM48.6246 67.1821L49.131 72.97L50.1072 72.8846L49.6009 67.0967L48.6246 67.1821ZM50.2951 64.5907C50.1893 65.148 49.9544 65.9977 49.7625 66.5345L50.5642 66.7033C50.7865 66.1919 50.988 65.4435 51.2084 64.7497L50.2951 64.5907ZM46.7582 65.125C47.0908 65.7142 47.4253 66.486 47.539 66.982L48.3551 66.6717C48.2426 66.1896 47.8941 65.4191 47.5361 64.8602L46.7582 65.125ZM65.081 70.0709L65.1652 71.0332L71.9014 70.4438L71.8172 69.4815L65.081 70.0709ZM63.7405 60.2102L63.8222 61.1446L68.9407 60.6968L68.8589 59.7624L63.7405 60.2102ZM64.2412 58.7048C63.5652 60.2958 62.1188 62.2352 59.9274 63.6917C60.1803 63.8523 60.5607 64.1844 60.7373 64.436C63.0384 62.7872 64.546 60.744 65.4334 58.8394L64.2412 58.7048ZM68.5102 59.7929L68.5261 59.9742C67.3965 63.7691 63.7725 66.8406 60.2518 68.2026C60.4944 68.4063 60.7973 68.8154 60.9472 69.0834C64.6333 67.5242 68.321 64.3768 69.6261 60.0185L68.8959 59.7029L68.7055 59.7758L68.5102 59.7929ZM62.2143 62.8452C63.3844 63.5298 64.8119 64.5854 65.4672 65.3292L66.252 64.5016C65.5409 63.7628 64.1044 62.7642 62.9368 62.1074L62.2143 62.8452ZM70.9156 65.1195L71.4367 71.0747L72.5105 70.9808L71.9895 65.0255L70.9156 65.1195ZM65.1696 65.6222L64.9604 65.6405L64.1956 66.5366L64.6422 71.6411L65.6882 71.5496L65.2538 66.5845L71.5298 66.0354L71.4456 65.0731L65.1696 65.6222Z" fill="#FF9E9E"/>
</svg>
