<svg width="35" height="57" viewBox="0 0 35 57" fill="none" xmlns="http://www.w3.org/2000/svg">
<g clip-path="url(#clip0_173_26303)">
<path d="M-1.78395 28.0369L21.3492 51.4363" stroke="#3EF0FC" stroke-linecap="round" stroke-linejoin="round"/>
<path d="M-1.78378 28.0378L28.1531 11.2556" stroke="#3EF0FC" stroke-linecap="round" stroke-linejoin="round"/>
<path d="M-4.87042 10.8111C-6.93008 20.4756 -12.0552 23.7262 -19.7389 25.117C-16.142 27.4525 -10.4432 34.3853 -9.81146 44.89C-6.61348 42.0988 1.80105 37.1466 9.87532 39.6673C8.07535 35.5685 11.2701 22.8225 15.4897 18.0766C10.7051 17.9471 -0.0521109 19.8943 -4.87042 10.8111Z" stroke="#3EF0FC" stroke-linecap="round" stroke-linejoin="round"/>
<path d="M-7.49946 -1.98675C-10.7804 15.4914 -21.059 18.893 -34.5017 23.0013C-28.3504 27.3149 -18.5333 41.5546 -15.5394 58.0946C-10.1772 53.1039 5.52245 45.3711 19.271 50.1186C16.1284 42.6473 19.4967 20.4632 26.5486 11.9506C20.15 11.4338 1.24776 11.5052 -7.49946 -1.98675Z" stroke="#3EF0FC" stroke-linecap="round" stroke-linejoin="round"/>
</g>
<defs>
<clipPath id="clip0_173_26303">
<rect width="35" height="57" fill="white"/>
</clipPath>
</defs>
</svg>
