<svg fill="none" height="57" viewBox="0 0 35 57" width="35" xmlns="http://www.w3.org/2000/svg" xmlns:xlink="http://www.w3.org/1999/xlink"><clipPath id="a"><path d="m0 0h35v57h-35z"/></clipPath><g clip-path="url(#a)" stroke="#3ef0fc" stroke-linecap="round" stroke-linejoin="round"><path d="m-1.78395 28.0369 23.13315 23.3994"/><path d="m-1.78378 28.0378 29.93688-16.7822"/><path d="m-4.87042 10.8111c-2.05966 9.6645-7.18478 12.9151-14.86848 14.3059 3.5969 2.3355 9.2957 9.2683 9.92744 19.773 3.19798-2.7912 11.61251-7.7434 19.68678-5.2227-1.79997-4.0988 1.39478-16.8448 5.61438-21.5907-4.7846-.1295-15.5418109 1.8177-20.36012-7.2655z"/><path d="m-7.49946-1.98675c-3.28094 17.47815-13.55954 20.87975-27.00224 24.98805 6.1513 4.3136 15.9684 18.5533 18.9623 35.0933 5.3622-4.9907 21.06185-12.7235 34.8104-7.976-3.1426-7.4713.2257-29.6554 7.2776-38.168-6.3986-.5168-25.30084-.4454-34.04806-13.93735z"/></g></svg>