<svg width="40" height="40" viewBox="0 0 40 40" fill="none" xmlns="http://www.w3.org/2000/svg">
<path d="M19.3198 17.0484C15.3014 17.4635 12.0858 20.804 12.5193 25.0167C12.9534 29.2349 16.3059 31.4908 22.0245 30.9098C25.1492 30.5923 28.1208 28.1708 27.9749 23.9376C27.8203 19.4555 23.7822 16.5876 19.3198 17.0484Z" fill="#006A97" stroke="#006A97" stroke-width="1.43293" stroke-linecap="round"/>
<path d="M19.423 7.05882C14.7564 7.56278 11.0222 11.6191 11.5256 16.7345C12.0297 21.8567 15.923 24.596 22.5639 23.8905C26.1926 23.505 29.6436 20.5645 29.474 15.4243C29.2946 9.98172 24.6051 6.49919 19.423 7.05882Z" fill="#006A97" stroke="#006A97" stroke-width="1.74318" stroke-linecap="round"/>
<path d="M7.43531 8.14595C7.78601 11.1726 9.63897 14.5614 11.7686 16.7505" stroke="#006A97" stroke-width="1.68638" stroke-linecap="round"/>
<path d="M6.22741 13.3284C6.93267 15.6191 9.91133 19.7531 12.7751 19.5701" stroke="#006A97" stroke-width="1.68638" stroke-linecap="round"/>
<path d="M12.0043 21.8163C10.486 22.4815 7.86464 25.2632 7.39563 27.0135" stroke="#006A97" stroke-width="1.68638" stroke-linecap="round"/>
<path d="M12.8169 23.5191C11.7317 24.5683 10.6571 26.7809 10.2936 27.9351C9.78674 29.5448 9.67342 30.6168 9.61624 32.3097" stroke="#006A97" stroke-width="1.68638" stroke-linecap="round"/>
<path d="M33.5697 8.08888C33.36 11.1285 31.6665 14.5998 29.6408 16.8855" stroke="#006A97" stroke-width="1.68638" stroke-linecap="round"/>
<path d="M35.0169 13.2106C34.4189 15.5316 31.6355 19.7996 28.7663 19.7498" stroke="#006A97" stroke-width="1.68638" stroke-linecap="round"/>
<path d="M28.2931 21.8163C29.8113 22.4815 32.4327 25.2632 32.9017 27.0135" stroke="#006A97" stroke-width="1.68638" stroke-linecap="round"/>
<path d="M27.4805 23.5191C28.5656 24.5683 29.6403 26.7809 30.0037 27.9351C30.5106 29.5448 30.6239 30.6168 30.6811 32.3097" stroke="#006A97" stroke-width="1.68638" stroke-linecap="round"/>
<path d="M17.2448 25.0139C16.2078 25.1325 15.3779 26.0869 15.4898 27.2905C15.6018 28.4957 16.467 29.1403 17.9428 28.9743C18.7491 28.8835 19.516 28.1917 19.4783 26.9822C19.4385 25.7016 18.3964 24.8822 17.2448 25.0139Z" stroke="#D9D9D9" stroke-width="2.5" stroke-linecap="round"/>
<path d="M22.5768 25.0139C21.5398 25.1325 20.71 26.0869 20.8218 27.2905C20.9339 28.4957 21.799 29.1403 23.2748 28.9743C24.0812 28.8835 24.848 28.1917 24.8104 26.9822C24.7705 25.7016 23.7284 24.8822 22.5768 25.0139Z" stroke="#D9D9D9" stroke-width="2.5" stroke-linecap="round"/>
</svg>
