<svg fill="none" height="40" viewBox="0 0 40 40" width="40" xmlns="http://www.w3.org/2000/svg"><g stroke-linecap="round"><g stroke="#006a97"><path d="m19.3198 17.0484c-4.0184.4151-7.234 3.7556-6.8005 7.9683.4341 4.2182 3.7866 6.4741 9.5052 5.8931 3.1247-.3175 6.0963-2.739 5.9504-6.9722-.1546-4.4821-4.1927-7.35-8.6551-6.8892z" fill="#006a97" stroke-width="1.43293"/><path d="m19.423 7.05882c-4.6666.50396-8.4008 4.56028-7.8974 9.67568.5041 5.1222 4.3974 7.8615 11.0383 7.156 3.6287-.3855 7.0797-3.326 6.9101-8.4662-.1794-5.44258-4.8689-8.92511-10.051-8.36548z" fill="#006a97" stroke-width="1.74318"/><path d="m7.43531 8.14595c.3507 3.02665 2.20366 6.41545 4.33329 8.60455" stroke-width="1.68638"/><path d="m6.22741 13.3284c.70526 2.2907 3.68392 6.4247 6.54769 6.2417" stroke-width="1.68638"/><path d="m12.0043 21.8163c-1.5183.6652-4.13966 3.4469-4.60867 5.1972" stroke-width="1.68638"/><path d="m12.8169 23.5191c-1.0852 1.0492-2.1598 3.2618-2.5233 4.416-.50686 1.6097-.62018 2.6817-.67736 4.3746" stroke-width="1.68638"/><path d="m33.5697 8.08888c-.2097 3.03962-1.9032 6.51092-3.9289 8.79662" stroke-width="1.68638"/><path d="m35.0169 13.2106c-.598 2.321-3.3814 6.589-6.2506 6.5392" stroke-width="1.68638"/><path d="m28.2931 21.8163c1.5182.6652 4.1396 3.4469 4.6086 5.1972" stroke-width="1.68638"/><path d="m27.4805 23.5191c1.0851 1.0492 2.1598 3.2618 2.5232 4.416.5069 1.6097.6202 2.6817.6774 4.3746" stroke-width="1.68638"/></g><path d="m17.2448 25.0139c-1.037.1186-1.8669 1.073-1.755 2.2766.112 1.2052.9772 1.8498 2.453 1.6838.8063-.0908 1.5732-.7826 1.5355-1.9921-.0398-1.2806-1.0819-2.1-2.2335-1.9683z" stroke="#d9d9d9" stroke-width="2.5"/><path d="m22.5768 25.0139c-1.037.1186-1.8668 1.073-1.755 2.2766.1121 1.2052.9772 1.8498 2.453 1.6838.8064-.0908 1.5732-.7826 1.5356-1.9921-.0399-1.2806-1.082-2.1-2.2336-1.9683z" stroke="#d9d9d9" stroke-width="2.5"/></g></svg>