<svg width="40" height="40" viewBox="0 0 40 40" fill="none" xmlns="http://www.w3.org/2000/svg">
<path d="M5.547 30.0211H34.4571V24.7939C34.4571 22.1555 34.0744 19.531 33.321 17.0024V17.0024H7.20535" stroke="#3EF0FC" stroke-width="2" stroke-linecap="round" stroke-linejoin="round"/>
<path d="M34.4571 30.0211H5.547V24.7939C5.547 22.1555 5.92966 19.531 6.68304 17.0024V17.0024H32.7987" stroke="#3EF0FC" stroke-width="2" stroke-linecap="round" stroke-linejoin="round"/>
<path d="M28.2154 8.33209H11.1543C10.306 8.33209 9.54996 8.86726 9.268 9.66734L6.68303 17.0025L3.66666 15.8403" stroke="#3EF0FC" stroke-width="2" stroke-linecap="round" stroke-linejoin="round"/>
<path d="M11.7887 8.33203H28.8498C29.6981 8.33203 30.4541 8.8672 30.736 9.66728L33.321 17.0024L36.3243 15.8403" stroke="#3EF0FC" stroke-width="2" stroke-linecap="round" stroke-linejoin="round"/>
<path d="M23 24.942H16.0305C15.7337 24.942 15.4523 25.0738 15.2623 25.3018L14.5828 26.1172" stroke="#3EF0FC" stroke-width="2" stroke-linecap="round" stroke-linejoin="round"/>
<path d="M17 24.9416H23.9211C24.2179 24.9416 24.4993 25.0734 24.6893 25.3014L25.3688 26.1168" stroke="#3EF0FC" stroke-width="2" stroke-linecap="round" stroke-linejoin="round"/>
<path d="M10.9276 23.5197C11.9087 23.5197 12.7041 22.7243 12.7041 21.7431C12.7041 20.762 11.9087 19.9666 10.9276 19.9666C9.94638 19.9666 9.15098 20.762 9.15098 21.7431C9.15098 22.7243 9.94638 23.5197 10.9276 23.5197Z" stroke="#3EF0FC" stroke-width="2" stroke-linecap="round" stroke-linejoin="round"/>
<path d="M29.2085 23.5197C30.1897 23.5197 30.9851 22.7243 30.9851 21.7431C30.9851 20.762 30.1897 19.9666 29.2085 19.9666C28.2274 19.9666 27.432 20.762 27.432 21.7431C27.432 22.7243 28.2274 23.5197 29.2085 23.5197Z" stroke="#3EF0FC" stroke-width="2" stroke-linecap="round" stroke-linejoin="round"/>
<path d="M5.547 30.3C5.547 31.5164 5.63699 32.8 7.78752 32.8C10.1365 32.8 10.0465 31.5164 10.0465 30.3" stroke="#3EF0FC" stroke-width="2" stroke-linecap="round" stroke-linejoin="round"/>
<path d="M29.95 30.3C29.95 31.5406 30.04 32.8497 32.1905 32.8497C34.5396 32.8497 34.4496 31.5406 34.4496 30.3" stroke="#3EF0FC" stroke-width="2" stroke-linecap="round" stroke-linejoin="round"/>
</svg>
