<svg width="40" height="40" viewBox="0 0 40 40" fill="none" xmlns="http://www.w3.org/2000/svg">
<path d="M8.67217 16.6935H30.9492" stroke="#3EF0FC" stroke-width="2" stroke-miterlimit="10"/>
<path d="M8.67217 23.3057H30.9492" stroke="#3EF0FC" stroke-width="2" stroke-miterlimit="10"/>
<path d="M11.9221 9.77759H27.8455C29.7122 9.77759 31.2191 11.2845 31.2191 13.1512V32.1333H8.54847V13.1512C8.54847 11.2845 10.0553 9.77759 11.9221 9.77759Z" stroke="#3EF0FC" stroke-width="2" stroke-miterlimit="10"/>
<path d="M8.54699 33C8.54699 34.2164 8.63698 34.8 10.7875 34.8C13.1365 34.8 13.0465 34.2164 13.0465 33" stroke="#3EF0FC" stroke-width="2" stroke-linecap="round" stroke-linejoin="round"/>
<path d="M26.72 33C26.72 34.2164 26.81 34.8 28.9605 34.8C31.3095 34.8 31.2195 34.2164 31.2195 33" stroke="#3EF0FC" stroke-width="2" stroke-linecap="round" stroke-linejoin="round"/>
<path d="M13.6651 9.75511V8.23699C13.6651 7.56227 15.3407 7 16.0154 7H23.7297C24.4156 7 26.0912 7.56227 26.0912 8.23699V9.75511" stroke="#3EF0FC" stroke-width="2" stroke-miterlimit="10"/>
<path d="M23.2461 12.5H16.4989" stroke="#3EF0FC" stroke-width="2" stroke-miterlimit="10" stroke-linecap="round"/>
<path d="M11.5 27.8826H15.5" stroke="#3EF0FC" stroke-width="2" stroke-miterlimit="10" stroke-linecap="round"/>
<path d="M24.5 27.8826H28.5" stroke="#3EF0FC" stroke-width="2" stroke-miterlimit="10" stroke-linecap="round"/>
<path d="M19.8725 16.9071V23.1145" stroke="#3EF0FC" stroke-width="2" stroke-miterlimit="10"/>
<path d="M34.4914 20.5731H31.2078" stroke="#3EF0FC" stroke-width="2" stroke-miterlimit="10"/>
<path d="M34.4914 20.5731H31.2078" stroke="#3EF0FC" stroke-width="2" stroke-miterlimit="10" stroke-linecap="round"/>
<path d="M8.38854 20.5731H5.38854" stroke="#3EF0FC" stroke-width="2" stroke-miterlimit="10" stroke-linecap="round"/>
</svg>
