<svg width="40" height="40" viewBox="0 0 40 40" fill="none" xmlns="http://www.w3.org/2000/svg">
<path d="M19.8726 27.0419C20.7735 27.0419 21.5039 26.3116 21.5039 25.4106C21.5039 24.5097 20.7735 23.7794 19.8726 23.7794C18.9717 23.7794 18.2413 24.5097 18.2413 25.4106C18.2413 26.3116 18.9717 27.0419 19.8726 27.0419Z" stroke="#3EF0FC" stroke-width="2" stroke-miterlimit="10"/>
<path d="M8.20831 20.6461H31.0116" stroke="#3EF0FC" stroke-width="2" stroke-miterlimit="10"/>
<path d="M8.20831 12.7736H31.0116" stroke="#3EF0FC" stroke-width="2" stroke-miterlimit="10"/>
<path d="M26.4872 8.21515H12.7328C10.234 8.21515 8.20831 10.2408 8.20831 12.7396V26.1773C8.20831 28.6761 10.234 30.7018 12.7328 30.7018H26.4872C28.986 30.7018 31.0116 28.6761 31.0116 26.1773V12.7396C31.0116 10.2408 28.986 8.21515 26.4872 8.21515Z" stroke="#3EF0FC" stroke-width="2" stroke-miterlimit="10"/>
<path d="M14.6783 8.20389C14.5652 8.0116 14.4973 7.79669 14.4973 7.55915V6.24423C14.4973 5.56556 16.1827 5 16.8614 5H22.3586C23.0486 5 24.7339 5.56556 24.7339 6.24423V7.55915C24.7339 7.79669 24.6661 8.0116 24.553 8.20389" stroke="#3EF0FC" stroke-width="2" stroke-miterlimit="10"/>
<path d="M9.6109 34.197L12.9138 30.8828" stroke="#3EF0FC" stroke-width="2" stroke-miterlimit="10" stroke-linecap="round"/>
<path d="M29.6091 34.197L26.3062 30.8828" stroke="#3EF0FC" stroke-width="2" stroke-miterlimit="10" stroke-linecap="round"/>
</svg>
