<svg width="20" height="20" viewBox="0 0 20 20" fill="none" xmlns="http://www.w3.org/2000/svg">
<path fill-rule="evenodd" clip-rule="evenodd" d="M3.83884 3.1274C3.64358 2.93214 3.327 2.93214 3.13174 3.1274C2.93647 3.32267 2.93647 3.63925 3.13174 3.83451L9.54723 10.25L3.13174 16.6655C2.93647 16.8608 2.93647 17.1773 3.13174 17.3726C3.327 17.5679 3.64358 17.5679 3.83884 17.3726L10.2543 10.9571L16.6464 17.3492C16.8417 17.5445 17.1583 17.5445 17.3535 17.3492C17.5488 17.1539 17.5488 16.8374 17.3535 16.6421L10.9614 10.25L17.3535 3.8579C17.5488 3.66264 17.5488 3.34606 17.3535 3.15079C17.1583 2.95553 16.8417 2.95553 16.6464 3.15079L10.2543 9.54289L3.83884 3.1274Z" fill="#0B1420"/>
</svg>
