<svg width="20" height="20" viewBox="0 0 20 20" fill="none" xmlns="http://www.w3.org/2000/svg">
<path fill-rule="evenodd" clip-rule="evenodd" d="M7 2.5C7.27614 2.5 7.5 2.72386 7.5 3V3.5H12.5V3C12.5 2.72386 12.7239 2.5 13 2.5C13.2761 2.5 13.5 2.72386 13.5 3V3.5H15C16.3807 3.5 17.5 4.61929 17.5 6V14.5C17.5 15.8807 16.3807 17 15 17H5C3.61929 17 2.5 15.8807 2.5 14.5V6C2.5 4.61929 3.61929 3.5 5 3.5H6.5V3C6.5 2.72386 6.72386 2.5 7 2.5ZM6.5 4.5H5C4.17157 4.5 3.5 5.17157 3.5 6V7H16.5V6C16.5 5.17157 15.8284 4.5 15 4.5H13.5V5C13.5 5.27614 13.2761 5.5 13 5.5C12.7239 5.5 12.5 5.27614 12.5 5V4.5H7.5V5C7.5 5.27614 7.27614 5.5 7 5.5C6.72386 5.5 6.5 5.27614 6.5 5V4.5ZM16.5 8H3.5V14.5C3.5 15.3284 4.17157 16 5 16H15C15.8284 16 16.5 15.3284 16.5 14.5V8ZM7.5 11.5C7.22386 11.5 7 11.7239 7 12C7 12.2762 7.22386 12.5 7.5 12.5H9.5V14.0999C9.5 14.3761 9.72386 14.5999 10 14.5999C10.2761 14.5999 10.5 14.3761 10.5 14.0999V12.5H12.5C12.7761 12.5 13 12.2762 13 12C13 11.7239 12.7761 11.5 12.5 11.5H10.5V9.89993C10.5 9.62379 10.2761 9.39993 10 9.39993C9.72386 9.39993 9.5 9.62379 9.5 9.89993V11.5H7.5Z" fill="#0B1420"/>
</svg>
