<svg width="40" height="40" viewBox="0 0 40 40" fill="none" xmlns="http://www.w3.org/2000/svg">
<path d="M22.6833 32.75C22.3735 33.1704 21.9693 33.5121 21.5032 33.7476C21.0371 33.9831 20.5222 34.1058 20 34.1058C19.4778 34.1058 18.9629 33.9831 18.4968 33.7476C18.0307 33.5121 17.6265 33.1704 17.3167 32.75C8.98334 21.5834 9.70001 16.2 9.70001 16.2C9.70001 13.4683 10.7852 10.8484 12.7168 8.91682C14.6484 6.9852 17.2683 5.90002 20 5.90002C22.7317 5.90002 25.3516 6.9852 27.2832 8.91682C29.2148 10.8484 30.3 13.4683 30.3 16.2C30.3 16.2 30.9667 21.6667 22.6833 32.75Z" stroke="#3EF0FC" stroke-width="2" stroke-linecap="round" stroke-linejoin="round"/>
<path d="M20 19.5166C21.841 19.5166 23.3333 18.0243 23.3333 16.1833C23.3333 14.3424 21.841 12.85 20 12.85C18.1591 12.85 16.6667 14.3424 16.6667 16.1833C16.6667 18.0243 18.1591 19.5166 20 19.5166Z" stroke="#3EF0FC" stroke-width="2" stroke-linecap="round" stroke-linejoin="round"/>
</svg>
