<svg width="20" height="20" viewBox="0 0 20 20" fill="none" xmlns="http://www.w3.org/2000/svg">
<path d="M11.3417 16.375C11.1868 16.5852 10.9846 16.756 10.7516 16.8738C10.5186 16.9915 10.2611 17.0529 10 17.0529C9.7389 17.0529 9.48145 16.9915 9.24841 16.8738C9.01536 16.756 8.81324 16.5852 8.65834 16.375C4.49167 10.7917 4.85 8.10001 4.85 8.10001C4.85 6.73415 5.39259 5.42422 6.3584 4.45841C7.32422 3.4926 8.63414 2.95001 10 2.95001C11.3659 2.95001 12.6758 3.4926 13.6416 4.45841C14.6074 5.42422 15.15 6.73415 15.15 8.10001C15.15 8.10001 15.4833 10.8333 11.3417 16.375Z" stroke="#3EF0FC" stroke-linecap="round" stroke-linejoin="round"/>
<path d="M9.99998 9.75832C10.9205 9.75832 11.6666 9.01213 11.6666 8.09165C11.6666 7.17118 10.9205 6.42499 9.99998 6.42499C9.0795 6.42499 8.33331 7.17118 8.33331 8.09165C8.33331 9.01213 9.0795 9.75832 9.99998 9.75832Z" stroke="#3EF0FC" stroke-linecap="round" stroke-linejoin="round"/>
</svg>
