<svg width="20" height="20" viewBox="0 0 20 20" fill="none" xmlns="http://www.w3.org/2000/svg">
<path fill-rule="evenodd" clip-rule="evenodd" d="M5 4.5C3.61929 4.5 2.5 5.61929 2.5 7V13C2.5 14.3807 3.61929 15.5 5 15.5H15C16.3807 15.5 17.5 14.3807 17.5 13V7C17.5 5.61929 16.3807 4.5 15 4.5H5ZM3.5 7C3.5 6.17157 4.17157 5.5 5 5.5H15C15.8284 5.5 16.5 6.17157 16.5 7V8.20984L11.2403 11.2154C10.4718 11.6545 9.52823 11.6545 8.75965 11.2154L3.5 8.20984V7ZM3.5 9.36159V13C3.5 13.8284 4.17157 14.5 5 14.5H15C15.8284 14.5 16.5 13.8284 16.5 13V9.36159L11.7365 12.0836C10.6605 12.6985 9.33953 12.6985 8.26351 12.0836L3.5 9.36159Z" fill="#3EF0FC"/>
</svg>
