<svg width="20" height="20" viewBox="0 0 20 20" fill="none" xmlns="http://www.w3.org/2000/svg">
<path fill-rule="evenodd" clip-rule="evenodd" d="M5 2.5C3.61929 2.5 2.5 3.61929 2.5 5V15C2.5 16.3807 3.61929 17.5 5 17.5H15C16.3807 17.5 17.5 16.3807 17.5 15V5C17.5 3.61929 16.3807 2.5 15 2.5H5ZM3.5 5C3.5 4.17157 4.17157 3.5 5 3.5H15C15.8284 3.5 16.5 4.17157 16.5 5V15C16.5 15.8284 15.8284 16.5 15 16.5H5C4.17157 16.5 3.5 15.8284 3.5 15V5ZM6.5 6C6.22386 6 6 6.22386 6 6.5C6 6.77614 6.22386 7 6.5 7H14C14.2761 7 14.5 6.77614 14.5 6.5C14.5 6.22386 14.2761 6 14 6H6.5ZM6.5 9C6.22386 9 6 9.22386 6 9.5C6 9.77614 6.22386 10 6.5 10H13C13.2761 10 13.5 9.77614 13.5 9.5C13.5 9.22386 13.2761 9 13 9H6.5ZM6 12.5C6 12.2239 6.22386 12 6.5 12H10.5C10.7761 12 11 12.2239 11 12.5C11 12.7761 10.7761 13 10.5 13H6.5C6.22386 13 6 12.7761 6 12.5Z" fill="#0B1420"/>
</svg>
