<svg width="20" height="20" viewBox="0 0 20 20" fill="none" xmlns="http://www.w3.org/2000/svg">
<path fill-rule="evenodd" clip-rule="evenodd" d="M6.46606 5.50646C6.58114 5.48871 6.69886 5.50778 6.8023 5.56087L6.80229 5.56089L6.80688 5.56319L14.7026 9.51326C14.7921 9.55938 14.8671 9.62905 14.9195 9.71455C14.9722 9.80057 15 9.89935 15 10C15 10.1007 14.9722 10.1994 14.9195 10.2854C14.8671 10.371 14.7921 10.4406 14.7026 10.4867L6.80688 14.4368L6.80687 14.4368L6.8023 14.4391C6.69886 14.4922 6.58114 14.5113 6.46606 14.4935C6.35099 14.4758 6.24465 14.4222 6.16225 14.3405C6.07986 14.2589 6.0256 14.1535 6.00707 14.0395C5.98854 13.9255 6.00664 13.8085 6.05887 13.7053L6.05943 13.7042L7.57143 10.697L7.57168 10.6965C7.60382 10.6328 7.63143 10.5671 7.65437 10.5H9.5C9.77614 10.5 10 10.2761 10 10C10 9.72386 9.77614 9.5 9.5 9.5H7.65437C7.63141 9.43281 7.60378 9.3671 7.57161 9.30334L7.57143 9.30299L6.05943 6.29582L6.05944 6.29582L6.05887 6.2947C6.00664 6.19148 5.98854 6.0745 6.00707 5.96049C6.0256 5.84647 6.07986 5.74107 6.16225 5.65946C6.24466 5.57783 6.35099 5.52421 6.46606 5.50646ZM6.31363 4.51814C6.63602 4.46842 6.96592 4.52151 7.25637 4.6699L15.1523 8.62006L15.1562 8.62201L15.1562 8.62203C15.4101 8.75181 15.6233 8.94907 15.7722 9.1922C15.9211 9.43534 16 9.71487 16 10C16 10.2851 15.9211 10.5647 15.7722 10.8078C15.6233 11.0509 15.4101 11.2482 15.1562 11.378L15.1523 11.38L15.1523 11.3799L7.25632 15.3301C6.96589 15.4785 6.636 15.5316 6.31363 15.4819C5.99031 15.432 5.69095 15.2812 5.45852 15.051C5.22608 14.8208 5.07251 14.5229 5.02002 14.1999C4.96757 13.8772 5.01879 13.5463 5.16626 13.2545L5.16657 13.2538L6.6784 10.247L6.67879 10.2463C6.71738 10.1698 6.73746 10.0855 6.73746 10C6.73746 9.91452 6.71738 9.83018 6.67879 9.75375L6.6784 9.75298L5.16657 6.74616L5.16627 6.74555C5.0188 6.45376 4.96757 6.12279 5.02002 5.80007C5.07251 5.47713 5.22608 5.17923 5.45852 4.94899C5.69095 4.71876 5.99031 4.56801 6.31363 4.51814Z" fill="#0B1420"/>
</svg>
