<svg width="20" height="20" viewBox="0 0 20 20" fill="none" xmlns="http://www.w3.org/2000/svg">
<path fill-rule="evenodd" clip-rule="evenodd" d="M14.5 5.5C14.5 4.94772 14.0523 4.5 13.5 4.5C12.9477 4.5 12.5 4.94772 12.5 5.5C12.5 6.05228 12.9477 6.5 13.5 6.5C14.0523 6.5 14.5 6.05228 14.5 5.5ZM13.5 3.5C14.6046 3.5 15.5 4.39543 15.5 5.5C15.5 6.60457 14.6046 7.5 13.5 7.5C12.836 7.5 12.2476 7.17643 11.8838 6.67836L7.88907 9.34153C7.96094 9.54773 8 9.7693 8 10C8 10.2307 7.96094 10.4523 7.88908 10.6585L11.8838 13.3216C12.2476 12.8236 12.836 12.5 13.5 12.5C14.6046 12.5 15.5 13.3954 15.5 14.5C15.5 15.6046 14.6046 16.5 13.5 16.5C12.3954 16.5 11.5 15.6046 11.5 14.5C11.5 14.4242 11.5042 14.3494 11.5124 14.2759L7.33393 11.4902C6.98002 11.8072 6.51252 12 6 12C4.89543 12 4 11.1046 4 10C4 8.89543 4.89543 8 6 8C6.51252 8 6.98001 8.19278 7.33392 8.50978L11.5124 5.72412C11.5042 5.65054 11.5 5.57576 11.5 5.5C11.5 4.39543 12.3954 3.5 13.5 3.5ZM14.5 14.5C14.5 13.9477 14.0523 13.5 13.5 13.5C12.9477 13.5 12.5 13.9477 12.5 14.5C12.5 15.0523 12.9477 15.5 13.5 15.5C14.0523 15.5 14.5 15.0523 14.5 14.5ZM6 9C6.55228 9 7 9.44772 7 10C7 10.5523 6.55228 11 6 11C5.44772 11 5 10.5523 5 10C5 9.44772 5.44772 9 6 9Z" fill="#0B1420"/>
</svg>
