<svg width="40" height="40" viewBox="0 0 40 40" fill="none" xmlns="http://www.w3.org/2000/svg">
<path d="M14.0612 10.232L29.8572 18.1344C30.2013 18.3103 30.49 18.5776 30.6917 18.9068C30.8933 19.2359 31 19.6142 31 20C31 20.3858 30.8933 20.7641 30.6917 21.0932C30.49 21.4224 30.2013 21.6897 29.8572 21.8656L14.0612 29.768C13.6667 29.9704 13.2181 30.043 12.7797 29.9754C12.3413 29.9078 11.9356 29.7034 11.6208 29.3916C11.3059 29.0797 11.0981 28.6764 11.0271 28.2394C10.9561 27.8025 11.0255 27.3543 11.2254 26.9591L14.2502 20.9433C14.398 20.6507 14.4749 20.3276 14.4749 20C14.4749 19.6724 14.398 19.3493 14.2502 19.0567L11.2254 13.0409C11.0255 12.6457 10.9561 12.1975 11.0271 11.7606C11.0981 11.3236 11.3059 10.9203 11.6208 10.6084C11.9356 10.2966 12.3413 10.0922 12.7797 10.0246C13.2181 9.95698 13.6667 10.0296 14.0612 10.232Z" stroke="#0B1420" stroke-width="2" stroke-miterlimit="10"/>
<path d="M15 20H19" stroke="#0B1420" stroke-width="2" stroke-miterlimit="10" stroke-linecap="round"/>
</svg>
