<svg width="20" height="20" viewBox="0 0 20 20" fill="none" xmlns="http://www.w3.org/2000/svg">
<path fill-rule="evenodd" clip-rule="evenodd" d="M3.5 10C3.5 6.41015 6.41015 3.5 10 3.5C13.5899 3.5 16.5 6.41015 16.5 10C16.5 13.5899 13.5899 16.5 10 16.5C6.41015 16.5 3.5 13.5899 3.5 10ZM10 2.5C5.85786 2.5 2.5 5.85786 2.5 10C2.5 14.1421 5.85786 17.5 10 17.5C14.1421 17.5 17.5 14.1421 17.5 10C17.5 5.85786 14.1421 2.5 10 2.5ZM10.31 10.0614C10.1249 10.2233 9.84947 10.2265 9.66063 10.0689L7.32034 8.1161C7.10832 7.93918 6.79302 7.96764 6.6161 8.17966C6.43918 8.39168 6.46764 8.70698 6.67966 8.8839L9.01995 10.8367C9.58647 11.3094 10.4127 11.2999 10.9682 10.8143L14.3291 7.87645C14.537 7.69471 14.5582 7.37884 14.3764 7.17093C14.1947 6.96302 13.8788 6.94181 13.6709 7.12355L10.31 10.0614Z" fill="#0B1420"/>
</svg>
