<svg width="263" height="264" viewBox="0 0 263 264" fill="none" xmlns="http://www.w3.org/2000/svg">
<mask id="mask0_1982_19627" style="mask-type:luminance" maskUnits="userSpaceOnUse" x="1" y="1" width="261" height="263">
<path d="M1.00498 263.304H242.098C249.869 255.532 254.228 251.173 262 243.401V1H97.1236L63.9612 19.8177H1V263.299L1.00498 263.304Z" fill="white"/>
</mask>
<g mask="url(#mask0_1982_19627)">
<path d="M190.113 -46.4883V-14.943L162.797 0.829657V-30.7156L190.113 -46.4883Z" stroke="#00FFCC" stroke-width="0.597072" stroke-linecap="round" stroke-linejoin="round"/>
<path d="M162.797 -30.7156V0.829657L135.481 -14.943V-46.4883L162.797 -30.7156Z" stroke="#00FFCC" stroke-width="0.597072" stroke-linecap="round" stroke-linejoin="round"/>
<path d="M217.434 0.829468V32.3748L190.113 48.1474V16.6021L217.434 0.829468Z" stroke="#00FFCC" stroke-width="0.597072" stroke-linecap="round" stroke-linejoin="round"/>
<path d="M190.113 16.6021V48.1474L162.797 32.3748V0.829468L190.113 16.6021Z" stroke="#00FFCC" stroke-width="0.597072" stroke-linecap="round" stroke-linejoin="round"/>
<path d="M217.434 0.829887L190.113 16.6025L162.797 0.829887L190.113 -14.9427L217.434 0.829887Z" stroke="#00FFCC" stroke-width="0.597072" stroke-linecap="round" stroke-linejoin="round"/>
<path d="M135.481 48.1472V79.6875L108.165 95.4602V63.9149L135.481 48.1472Z" stroke="#00FFCC" stroke-width="0.597072" stroke-linecap="round" stroke-linejoin="round"/>
<path d="M108.165 63.9149V95.4602L80.844 79.6875V48.1472L108.165 63.9149Z" stroke="#00FFCC" stroke-width="0.597072" stroke-linecap="round" stroke-linejoin="round"/>
<path d="M135.481 48.1477L108.165 63.9153L80.844 48.1477L108.165 32.375L135.481 48.1477Z" stroke="#00FFCC" stroke-width="0.597072" stroke-linecap="round" stroke-linejoin="round"/>
<path d="M272.066 0.829468V32.3748L244.75 48.1474V16.6021L272.066 0.829468Z" stroke="#00FFCC" stroke-width="0.597072" stroke-linecap="round" stroke-linejoin="round"/>
<path d="M244.75 16.6022V48.1475L217.434 32.3749V0.82959L244.75 16.6022Z" stroke="#00FFCC" stroke-width="0.597072" stroke-linecap="round" stroke-linejoin="round"/>
<path d="M272.066 0.829887L244.75 16.6025L217.434 0.829887L244.75 -14.9427L272.066 0.829887Z" stroke="#00FFCC" stroke-width="0.597072" stroke-linecap="round" stroke-linejoin="round"/>
<path d="M135.481 142.778V111.233L162.797 95.4601" stroke="#00FFCC" stroke-width="0.597072" stroke-linecap="round" stroke-linejoin="round"/>
<path d="M135.481 111.233V142.778L108.165 127.005V95.4601L135.481 111.233Z" stroke="#00FFCC" stroke-width="0.597072" stroke-linecap="round" stroke-linejoin="round"/>
<path d="M162.797 95.4605L135.481 111.233L108.165 95.4605L135.481 79.6879L162.797 95.4605Z" stroke="#00FFCC" stroke-width="0.597072" stroke-linecap="round" stroke-linejoin="round"/>
<path d="M108.165 95.4601V127.005L80.844 142.778V111.233L108.165 95.4601Z" stroke="#00FFCC" stroke-width="0.597072" stroke-linecap="round" stroke-linejoin="round"/>
<path d="M80.8438 111.233V142.778L53.5277 127.005V95.4601L80.8438 111.233Z" stroke="#00FFCC" stroke-width="0.597072" stroke-linecap="round" stroke-linejoin="round"/>
<path d="M108.165 95.4604L80.8438 111.233L53.5277 95.4604L80.8438 79.6877L108.165 95.4604Z" stroke="#00FFCC" stroke-width="0.597072" stroke-linecap="round" stroke-linejoin="round"/>
<path d="M108.165 190.097V158.551L135.481 142.779" stroke="#00FFCC" stroke-width="0.597072" stroke-linecap="round" stroke-linejoin="round"/>
<path d="M108.165 158.551V190.097L80.844 174.324V142.779L108.165 158.551Z" stroke="#00FFCC" stroke-width="0.597072" stroke-linecap="round" stroke-linejoin="round"/>
<path d="M135.481 142.778L108.165 158.551L80.844 142.778L108.165 127.006L135.481 142.778Z" stroke="#00FFCC" stroke-width="0.597072" stroke-linecap="round" stroke-linejoin="round"/>
<path d="M244.75 48.1472V79.6875L217.434 95.4602V63.9149L244.75 48.1472Z" stroke="#00FFCC" stroke-width="0.597072" stroke-linecap="round" stroke-linejoin="round"/>
<path d="M217.434 63.9149V95.4602L190.113 79.6875V48.1472L217.434 63.9149Z" stroke="#00FFCC" stroke-width="0.597072" stroke-linecap="round" stroke-linejoin="round"/>
<path d="M244.75 48.1477L217.434 63.9153L190.113 48.1477L217.434 32.375L244.75 48.1477Z" stroke="#00FFCC" stroke-width="0.597072" stroke-linecap="round" stroke-linejoin="round"/>
<path d="M108.165 190.097V221.642L80.844 237.414V205.869L108.165 190.097Z" stroke="#00FFCC" stroke-width="0.597072" stroke-linecap="round" stroke-linejoin="round"/>
<path d="M80.8438 205.869V237.414L53.5277 221.642V190.097L80.8438 205.869Z" stroke="#00FFCC" stroke-width="0.597072" stroke-linecap="round" stroke-linejoin="round"/>
<path d="M108.165 190.096L80.8438 205.869L53.5277 190.096L80.8438 174.323L108.165 190.096Z" stroke="#00FFCC" stroke-width="0.597072" stroke-linecap="round" stroke-linejoin="round"/>
<path d="M26.2119 205.869V237.414L-1.10913 253.187V221.642L26.2119 205.869Z" stroke="#00FFCC" stroke-width="0.597072" stroke-linecap="round" stroke-linejoin="round"/>
<path d="M26.2118 205.869L-1.10925 221.642L-28.4253 205.869L-1.10925 190.097L26.2118 205.869Z" stroke="#00FFCC" stroke-width="0.597072" stroke-linecap="round" stroke-linejoin="round"/>
<path d="M162.797 32.3749V63.9152L135.481 79.6878V48.1475L162.797 32.3749Z" stroke="#00FFCC" stroke-width="0.597072" stroke-linecap="round" stroke-linejoin="round"/>
<path d="M135.481 48.1477V79.6879L108.165 63.9153V32.375L135.481 48.1477Z" stroke="#00FFCC" stroke-width="0.597072" stroke-linecap="round" stroke-linejoin="round"/>
<path d="M162.797 32.3745L135.481 48.1471L108.165 32.3745L135.481 16.6018L162.797 32.3745Z" stroke="#00FFCC" stroke-width="0.597072" stroke-linecap="round" stroke-linejoin="round"/>
<path d="M135.481 237.414V268.955L108.165 284.727V253.187L135.481 237.414Z" stroke="#00FFCC" stroke-width="0.597072" stroke-linecap="round" stroke-linejoin="round"/>
<path d="M108.165 253.187V284.727L80.844 268.955V237.414L108.165 253.187Z" stroke="#00FFCC" stroke-width="0.597072" stroke-linecap="round" stroke-linejoin="round"/>
<path d="M135.481 237.415L108.165 253.187L80.844 237.415L108.165 221.642L135.481 237.415Z" stroke="#00FFCC" stroke-width="0.597072" stroke-linecap="round" stroke-linejoin="round"/>
<path d="M217.434 190.097V221.642L190.113 237.414V205.869L217.434 190.097Z" stroke="#00FFCC" stroke-width="0.597072" stroke-linecap="round" stroke-linejoin="round"/>
<path d="M190.113 205.869V237.414L162.797 221.642V190.097L190.113 205.869Z" stroke="#00FFCC" stroke-width="0.597072" stroke-linecap="round" stroke-linejoin="round"/>
<path d="M217.434 190.096L190.113 205.869L162.797 190.096L190.113 174.323L217.434 190.096Z" stroke="#00FFCC" stroke-width="0.597072" stroke-linecap="round" stroke-linejoin="round"/>
<path d="M272.066 190.097V221.642L244.75 237.414V205.869L272.066 190.097Z" stroke="#00FFCC" stroke-width="0.597072" stroke-linecap="round" stroke-linejoin="round"/>
<path d="M244.75 205.869V237.414L217.434 221.642V190.097L244.75 205.869Z" stroke="#00FFCC" stroke-width="0.597072" stroke-linecap="round" stroke-linejoin="round"/>
<path d="M272.066 190.096L244.75 205.869L217.434 190.096L244.75 174.323L272.066 190.096Z" stroke="#00FFCC" stroke-width="0.597072" stroke-linecap="round" stroke-linejoin="round"/>
<path d="M53.5275 190.097V221.642L26.2115 237.414V205.869L53.5275 190.097Z" stroke="#00FFCC" stroke-width="0.597072" stroke-linecap="round" stroke-linejoin="round"/>
<path d="M26.2119 205.869V237.414L-1.10913 221.642V190.097L26.2119 205.869Z" stroke="#00FFCC" stroke-width="0.597072" stroke-linecap="round" stroke-linejoin="round"/>
<path d="M53.5279 190.096L26.2119 205.869L-1.10913 190.096L26.2119 174.323L53.5279 190.096Z" stroke="#00FFCC" stroke-width="0.597072" stroke-linecap="round" stroke-linejoin="round"/>
<path d="M162.797 158.551V190.096L135.481 205.869V174.324L162.797 158.551Z" stroke="#00FFCC" stroke-width="0.597072" stroke-linecap="round" stroke-linejoin="round"/>
<path d="M135.481 174.324V205.869L108.165 190.096V158.551L135.481 174.324Z" stroke="#00FFCC" stroke-width="0.597072" stroke-linecap="round" stroke-linejoin="round"/>
<path d="M162.797 158.551L135.481 174.324L108.165 158.551L135.481 142.779L162.797 158.551Z" stroke="#00FFCC" stroke-width="0.597072" stroke-linecap="round" stroke-linejoin="round"/>
<path d="M244.75 142.779V174.324L217.434 190.097V158.551L244.75 142.779Z" stroke="#00FFCC" stroke-width="0.597072" stroke-linecap="round" stroke-linejoin="round"/>
<path d="M217.434 158.551V190.097L190.113 174.324V142.779L217.434 158.551Z" stroke="#00FFCC" stroke-width="0.597072" stroke-linecap="round" stroke-linejoin="round"/>
<path d="M244.75 142.778L217.434 158.551L190.113 142.778L217.434 127.006L244.75 142.778Z" stroke="#00FFCC" stroke-width="0.597072" stroke-linecap="round" stroke-linejoin="round"/>
<path d="M190.113 111.233V142.779L162.797 158.551V127.006L190.113 111.233Z" stroke="#00FFCC" stroke-width="0.597072" stroke-linecap="round" stroke-linejoin="round"/>
<path d="M162.797 127.006V158.551L135.481 142.779V111.233L162.797 127.006Z" stroke="#00FFCC" stroke-width="0.597072" stroke-linecap="round" stroke-linejoin="round"/>
<path d="M190.113 111.233L162.797 127.005L135.481 111.233L162.797 95.4601L190.113 111.233Z" stroke="#00FFCC" stroke-width="0.597072" stroke-linecap="round" stroke-linejoin="round"/>
<g opacity="0.5">
<path d="M162.797 158.551V190.096L135.481 205.869V174.323L162.797 158.551Z" fill="url(#paint0_linear_1982_19627)"/>
<path d="M135.481 174.323V205.869L108.165 190.096V158.551L135.481 174.323Z" fill="url(#paint1_linear_1982_19627)"/>
<path d="M162.797 158.551L135.481 174.324L108.165 158.551L135.481 142.779L162.797 158.551Z" fill="url(#paint2_linear_1982_19627)"/>
</g>
<path d="M244.75 142.779V174.324L217.434 190.097V158.551L244.75 142.779Z" fill="url(#paint3_linear_1982_19627)"/>
<path d="M217.434 158.551V190.097L190.113 174.324V142.779L217.434 158.551Z" fill="url(#paint4_linear_1982_19627)"/>
<path d="M244.75 142.778L217.434 158.551L190.113 142.778L217.434 127.006L244.75 142.778Z" fill="url(#paint5_linear_1982_19627)"/>
<path d="M190.113 111.233V142.779L162.797 158.551V127.006L190.113 111.233Z" fill="url(#paint6_linear_1982_19627)"/>
<path d="M162.797 127.006V158.551L135.481 142.779V111.233L162.797 127.006Z" fill="url(#paint7_linear_1982_19627)"/>
<path d="M190.113 111.233L162.797 127.005L135.481 111.233L162.797 95.4601L190.113 111.233Z" fill="url(#paint8_linear_1982_19627)"/>
<path d="M228.236 159.367V167.97" stroke="white" stroke-width="0.99512" stroke-linecap="round" stroke-linejoin="round"/>
<path d="M222.723 162.591V171.194" stroke="white" stroke-width="0.99512" stroke-linecap="round" stroke-linejoin="round"/>
<path d="M114.558 170.667V179.269" stroke="white" stroke-width="0.99512" stroke-linecap="round" stroke-linejoin="round"/>
<path d="M120.071 173.891V182.494" stroke="white" stroke-width="0.99512" stroke-linecap="round" stroke-linejoin="round"/>
<path d="M184.262 122.697V131.299" stroke="white" stroke-width="0.99512" stroke-linecap="round" stroke-linejoin="round"/>
<path d="M178.744 125.926V134.524" stroke="white" stroke-width="0.99512" stroke-linecap="round" stroke-linejoin="round"/>
</g>
<path d="M1.00498 263.304H242.098C249.869 255.532 254.228 251.173 262 243.401V1H97.1236L63.9612 19.8177H1V263.299L1.00498 263.304Z" stroke="#00FFCC" stroke-width="0.597072" stroke-linecap="round" stroke-linejoin="round"/>
<path d="M60.9211 11.291H1.00488" stroke="#00FFCC" stroke-width="0.597072" stroke-linecap="round" stroke-linejoin="round"/>
<path d="M70.0562 4.23438H1.00488" stroke="#00FFCC" stroke-width="0.597072" stroke-linecap="round" stroke-linejoin="round"/>
<path d="M16.1353 35.1589V56.1211H10.7567V29.8699H18.7176C21.4033 29.8699 23.3318 30.6195 24.5937 32.0303C25.8605 33.4464 26.4945 35.5715 26.4945 38.403V48.0457C26.4945 48.9038 26.7438 49.6484 27.2444 50.1804C27.7471 50.7145 28.4769 51.0062 29.3804 51.0062C30.2815 51.0062 31.0117 50.7247 31.5155 50.1943C32.0175 49.6657 32.2662 48.9201 32.2662 48.0457V30.0988H37.6448V48.0457C37.6448 50.8396 36.8122 52.9675 35.4521 54.3953C34.0924 55.8226 32.1833 56.5739 29.9824 56.5739C27.7867 56.5739 25.8867 55.7688 24.5344 54.3206C23.1812 52.8715 22.3598 50.7601 22.3598 48.1204V38.3981C22.3598 37.3236 22.086 36.4468 21.538 35.8362C20.9865 35.2215 20.1876 34.9102 19.2102 34.9102H16.3841H16.1353V35.1589Z" stroke="white" stroke-width="0.49756"/>
<path d="M10.4188 74.1765H10.4158C10.5434 66.2615 16.7519 60.2449 24.4848 60.2449C32.3936 60.2449 37.9885 66.3731 37.9885 74.4253C37.9885 82.4785 32.3976 88.6456 24.4848 88.6456C16.6725 88.6456 10.4188 82.4294 10.4188 74.4253V74.1765ZM32.5701 74.4253C32.5701 71.5472 31.6859 69.3399 30.1781 67.8521C28.6713 66.3654 26.5685 65.6235 24.1813 65.6235C21.7949 65.6235 19.6922 66.3549 18.1851 67.8316C16.6767 69.3096 15.7924 71.5074 15.7924 74.3855C15.7924 77.2635 16.6765 79.4804 18.1838 80.978C19.6903 82.4748 21.7931 83.2272 24.1813 83.2272C26.5685 83.2272 28.6713 82.4853 30.1781 80.9985C31.6859 79.5107 32.5701 77.3034 32.5701 74.4253Z" stroke="white" stroke-width="0.49756"/>
<path d="M16.1353 98.0164V118.979H10.7567V92.7273H18.7176C21.4033 92.7273 23.3318 93.4769 24.5937 94.8878C25.8605 96.3039 26.4945 98.429 26.4945 101.26V110.903C26.4945 111.761 26.7438 112.506 27.2444 113.038C27.7471 113.572 28.4769 113.864 29.3804 113.864C30.2815 113.864 31.0117 113.582 31.5155 113.052C32.0175 112.523 32.2662 111.778 32.2662 110.903V92.9562H37.6448V110.903C37.6448 113.697 36.8134 115.825 35.4539 117.253C34.0949 118.68 32.1858 119.431 29.9824 119.431C27.7841 119.431 25.8841 118.627 24.5325 117.18C23.1801 115.731 22.3598 113.62 22.3598 110.978V101.255C22.3598 100.179 22.086 99.3017 21.5379 98.6916C20.9863 98.0775 20.1873 97.7676 19.2102 97.7676H16.3841H16.1353V98.0164Z" stroke="white" stroke-width="0.49756"/>
<path d="M17.8121 143.259H18.0609V143.01V132.537C18.0609 129.539 18.7694 127.246 20.2041 125.702C21.6357 124.162 23.8295 123.327 26.8926 123.327H37.6448V128.706H26.9324C25.5738 128.706 24.6088 128.961 23.9953 129.617C23.386 130.269 23.1807 131.258 23.1807 132.572V143.01V143.259H23.4295H37.6498V148.603H23.4295H23.1807V148.852V152.409H18.0659V148.852V148.603H17.8171H10.7567V143.259H17.8121Z" stroke="white" stroke-width="0.49756"/>
<defs>
<linearGradient id="paint0_linear_1982_19627" x1="174.316" y1="188.569" x2="133.655" y2="178.299" gradientUnits="userSpaceOnUse">
<stop stop-color="#00FFCC" stop-opacity="0.5"/>
<stop offset="1" stop-color="#00FFCC" stop-opacity="0"/>
</linearGradient>
<linearGradient id="paint1_linear_1982_19627" x1="134.227" y1="208.71" x2="110.15" y2="157.277" gradientUnits="userSpaceOnUse">
<stop stop-color="#00FFCC" stop-opacity="0.5"/>
<stop offset="1" stop-color="#00FFCC" stop-opacity="0"/>
</linearGradient>
<linearGradient id="paint2_linear_1982_19627" x1="135.177" y1="177.125" x2="135.789" y2="139.544" gradientUnits="userSpaceOnUse">
<stop stop-color="#00FFCC" stop-opacity="0.5"/>
<stop offset="1" stop-color="#00FFCC" stop-opacity="0"/>
</linearGradient>
<linearGradient id="paint3_linear_1982_19627" x1="243.163" y1="167.154" x2="208.458" y2="165.099" gradientUnits="userSpaceOnUse">
<stop stop-color="#00FFCC" stop-opacity="0.5"/>
<stop offset="1" stop-color="#00FFCC" stop-opacity="0"/>
</linearGradient>
<linearGradient id="paint4_linear_1982_19627" x1="189.575" y1="180.409" x2="215.041" y2="155.357" gradientUnits="userSpaceOnUse">
<stop stop-color="#00FFCC" stop-opacity="0.5"/>
<stop offset="1" stop-color="#00FFCC" stop-opacity="0"/>
</linearGradient>
<linearGradient id="paint5_linear_1982_19627" x1="215.459" y1="155.053" x2="219.359" y2="130.822" gradientUnits="userSpaceOnUse">
<stop stop-color="#00FFCC" stop-opacity="0.5"/>
<stop offset="1" stop-color="#00FFCC" stop-opacity="0"/>
</linearGradient>
<linearGradient id="paint6_linear_1982_19627" x1="159.687" y1="117.458" x2="185.56" y2="144.356" gradientUnits="userSpaceOnUse">
<stop stop-color="#00FFCC" stop-opacity="0.5"/>
<stop offset="1" stop-color="#00FFCC" stop-opacity="0"/>
</linearGradient>
<linearGradient id="paint7_linear_1982_19627" x1="137.501" y1="115.776" x2="163.379" y2="158.283" gradientUnits="userSpaceOnUse">
<stop stop-color="#00FFCC" stop-opacity="0.5"/>
<stop offset="1" stop-color="#00FFCC" stop-opacity="0"/>
</linearGradient>
<linearGradient id="paint8_linear_1982_19627" x1="190.566" y1="104.575" x2="140.048" y2="116.691" gradientUnits="userSpaceOnUse">
<stop stop-color="#00FFCC" stop-opacity="0.5"/>
<stop offset="1" stop-color="#00FFCC" stop-opacity="0"/>
</linearGradient>
</defs>
</svg>
