<svg width="715" height="123" viewBox="0 0 715 123" fill="none" xmlns="http://www.w3.org/2000/svg">
<path d="M304.758 19.5801V0H321.21V4.20327H308.824V19.586H304.758V19.5801ZM311.211 11.795V8.24242H320.422V11.795H311.211Z" fill="white"/>
<path d="M339.903 0H343.93V10.7905C343.93 16.7698 340.936 19.586 333.354 19.586C325.772 19.586 322.777 16.7698 322.777 10.7905V0H327.047V10.7905C327.047 14.2196 328.53 15.5207 333.492 15.5207C338.454 15.5207 339.909 14.2196 339.909 10.7905V0H339.903Z" fill="white"/>
<path d="M352.471 19.586V4.20327H345.496V0H363.515V4.20327H356.541V19.586H352.465H352.471Z" fill="white"/>
<path d="M382.207 0H386.235V10.7905C386.235 16.7698 383.24 19.586 375.658 19.586C368.077 19.586 365.082 16.7698 365.082 10.7905V0H369.352V10.7905C369.352 14.2196 370.835 15.5207 375.797 15.5207C380.759 15.5207 382.213 14.2196 382.213 10.7905V0H382.207Z" fill="white"/>
<path d="M406.308 19.5801L401.687 14.2454H395.789V10.6636H403.154C405.137 10.6636 406.234 9.45003 406.234 7.37477C406.234 5.29951 405.086 4.1974 403.154 4.1974H393.413V19.5801H389.367V0H403.154C407.592 0 410.229 2.83148 410.229 7.27512C410.229 10.4818 408.768 12.7154 406.393 13.6885L412.087 19.586H406.319L406.308 19.5801Z" fill="white"/>
<path d="M413.656 19.5801V0H430.864V4.20327H417.701V15.3827H430.892V19.586H413.662L413.656 19.5801ZM420.067 11.285V7.97274H430.132V11.285H420.067Z" fill="white"/>
<path d="M447.663 14.3083V10.2386H454.918C456.952 10.2386 458.158 9.02481 458.158 7.21867C458.158 5.41254 456.952 4.19866 454.918 4.19866H445.227V19.586H441.078V0H454.924C459.527 0 462.231 2.75022 462.231 7.08378C462.231 11.4173 459.527 14.3025 454.924 14.3025H447.669L447.663 14.3083Z" fill="white"/>
<path d="M463.797 19.5801V0H468.092V15.3827H481.033V19.586H463.803L463.797 19.5801Z" fill="white"/>
<path d="M501.923 19.5802L499.22 15.0119H491.088L492.967 11.7967H497.312L493.791 5.8463L485.717 19.586H481.031L491.97 1.33001C492.448 0.532001 493.053 0 493.958 0C494.863 0 495.468 0.532001 495.946 1.33001L506.885 19.586H501.934L501.923 19.5802Z" fill="white"/>
<path d="M512.238 6.61821V19.3288H508.453V2.41755C508.453 0.92017 509.221 0 510.446 0C511.036 0 511.492 0.211472 512.054 0.760131L524.227 12.762V0.0514521H528.039V17.1456C528.039 18.6715 527.221 19.586 526.047 19.586C525.434 19.586 524.945 19.3517 524.41 18.7973L512.238 6.61248V6.61821Z" fill="white"/>
<path d="M531.456 19.5801V15.3781H545.519C546.952 15.3781 547.772 14.5986 547.772 13.3562C547.772 12.0376 546.952 11.2816 545.519 11.2816H537.088C533.425 11.2816 531.172 8.96667 531.172 5.65546C531.172 2.34424 533.274 0 537.144 0H550.621V4.20201H537.144C536.017 4.20201 535.326 4.876 535.326 6.08913C535.326 7.30227 536.045 7.97621 537.144 7.97621H545.519C549.439 7.97621 551.541 9.80473 551.541 13.7137C551.541 17.0777 549.567 19.586 545.519 19.586H531.456V19.5801Z" fill="white"/>
<path d="M571.52 19.5801C565.829 19.5801 561.727 15.7768 561.727 10.0072C561.727 4.23766 565.938 0 571.52 0H581.313V14.3212H571.095C568.803 14.3212 567.251 12.3256 567.251 9.8194C567.251 7.31319 568.752 5.39393 571.095 5.39393H576.333V11.7035H578.253V3.07553H571.514C567.222 3.07553 564.775 5.7461 564.775 9.73725C564.775 13.7284 567.222 16.5633 571.514 16.5633H581.307V19.586H571.514L571.52 19.5801ZM573.68 7.74166H571.835C570.7 7.74166 569.99 8.46947 569.99 9.76659C569.99 10.8994 570.752 11.7093 571.835 11.7093H573.68V7.74754V7.74166Z" fill="white"/>
<path d="M597.689 19.586V4.20327H590.715V0H608.734V4.20327H601.759V19.586H597.684H597.689Z" fill="white"/>
<path d="M626.641 19.5802L624.02 15.0119H616.135L617.957 11.7967H622.17L618.756 5.8463L610.926 19.586H606.383L616.99 1.33001C617.454 0.532001 618.04 0 618.918 0C619.795 0 620.382 0.532001 620.846 1.33001L631.453 19.586H626.652L626.641 19.5802Z" fill="white"/>
<path d="M633.02 19.586V0H637.72V19.586H633.02Z" fill="white"/>
<path d="M656.545 13.2058L653.908 18.2845C653.437 19.1869 652.681 19.586 651.845 19.586C650.959 19.586 650.203 19.1637 649.731 18.2845L640.07 0H644.929L651.982 13.7669L654.488 9.19718L649.817 0H654.698L661.33 13.7669L668.406 0H672.975L663.285 18.2845C662.814 19.1637 662.058 19.586 661.194 19.586C660.33 19.586 659.552 19.1869 659.103 18.2845L656.545 13.2058Z" fill="white"/>
<path d="M688.232 19.5802L685.447 15.0119H677.069L679.004 11.7967H683.481L679.853 5.8463L671.534 19.586H666.707L677.977 1.33001C678.47 0.532001 679.093 0 680.026 0C680.958 0 681.581 0.532001 682.074 1.33001L693.344 19.586H688.243L688.232 19.5802Z" fill="white"/>
<path d="M698.695 6.61821V19.3288H694.91V2.41755C694.91 0.92017 695.678 0 696.903 0C697.493 0 697.949 0.211472 698.511 0.760131L710.684 12.762V0.0514521H714.496V17.1456C714.496 18.6715 713.678 19.586 712.504 19.586C711.892 19.586 711.402 19.3517 710.867 18.7973L698.695 6.61248V6.61821Z" fill="white"/>
<path d="M294.573 8.61719H0V10.1841H294.573V8.61719Z" fill="#00FFCC"/>
</svg>
