<svg width="320" height="50" viewBox="0 0 320 50" fill="none" xmlns="http://www.w3.org/2000/svg">
<path d="M136.491 7.95934V0H143.86V1.70863H138.312V7.96173H136.491V7.95934ZM139.381 4.79467V3.35055H143.507V4.79467H139.381Z" fill="white"/>
<path d="M152.231 0H154.035V4.38635C154.035 6.81694 152.694 7.96173 149.298 7.96173C145.903 7.96173 144.562 6.81694 144.562 4.38635V0H146.474V4.38635C146.474 5.7803 147.138 6.3092 149.36 6.3092C151.583 6.3092 152.234 5.7803 152.234 4.38635V0H152.231Z" fill="white"/>
<path d="M157.861 7.96173V1.70863H154.737V0H162.807V1.70863H159.684V7.96173H157.858H157.861Z" fill="white"/>
<path d="M171.179 0H172.982V4.38635C172.982 6.81694 171.641 7.96173 168.246 7.96173C164.85 7.96173 163.509 6.81694 163.509 4.38635V0H165.421V4.38635C165.421 5.7803 166.085 6.3092 168.308 6.3092C170.53 6.3092 171.181 5.7803 171.181 4.38635V0H171.179Z" fill="white"/>
<path d="M181.972 7.95934L179.903 5.79078H177.261V4.33475H180.559C181.448 4.33475 181.939 3.84145 181.939 2.99785C181.939 2.15426 181.425 1.70625 180.559 1.70625H176.197V7.95934H174.385V0H180.559C182.547 0 183.728 1.151 183.728 2.95735C183.728 4.26087 183.074 5.16881 182.01 5.56439L184.56 7.96173H181.977L181.972 7.95934Z" fill="white"/>
<path d="M185.264 7.95934V0H192.97V1.70863H187.075V6.25309H192.983V7.96173H185.266L185.264 7.95934ZM188.135 4.58735V3.24093H192.643V4.58735H188.135Z" fill="white"/>
<path d="M200.494 5.81635V4.16202H203.743C204.654 4.16202 205.194 3.6686 205.194 2.9344C205.194 2.2002 204.654 1.70676 203.743 1.70676H199.403V7.96173H197.545V0H203.746C205.808 0 207.019 1.11797 207.019 2.87956C207.019 4.64116 205.808 5.81398 203.746 5.81398H200.497L200.494 5.81635Z" fill="white"/>
<path d="M207.72 7.95934V0H209.644V6.25309H215.439V7.96173H207.722L207.72 7.95934Z" fill="white"/>
<path d="M224.795 7.95937L223.585 6.10235H219.943L220.784 4.79538H222.73L221.153 2.37653L217.537 7.96173H215.438L220.337 0.540652C220.552 0.216259 220.823 0 221.228 0C221.633 0 221.904 0.216259 222.118 0.540652L227.017 7.96173H224.8L224.795 7.95937Z" fill="white"/>
<path d="M229.415 2.69031V7.85718H227.72V0.982738C227.72 0.37405 228.064 0 228.612 0C228.876 0 229.081 0.0859636 229.333 0.308994L234.784 5.18779V0.0209153H236.492V6.9697C236.492 7.59001 236.125 7.96173 235.599 7.96173C235.325 7.96173 235.106 7.86647 234.866 7.64112L229.415 2.68798V2.69031Z" fill="white"/>
<path d="M238.022 7.95934V6.25122H244.32C244.962 6.25122 245.329 5.93437 245.329 5.42931C245.329 4.89329 244.962 4.58598 244.32 4.58598H240.544C238.903 4.58598 237.895 3.64496 237.895 2.29895C237.895 0.952936 238.836 0 240.569 0H246.605V1.70812H240.569C240.065 1.70812 239.755 1.9821 239.755 2.47524C239.755 2.96838 240.077 3.24234 240.569 3.24234H244.32C246.076 3.24234 247.017 3.98564 247.017 5.57465C247.017 6.9421 246.133 7.96173 244.32 7.96173H238.022V7.95934Z" fill="white"/>
<path d="M255.966 7.95934C253.418 7.95934 251.58 6.41328 251.58 4.06795C251.58 1.72261 253.466 0 255.966 0H260.352V5.82159H255.776C254.75 5.82159 254.054 5.01037 254.054 3.9916C254.054 2.97282 254.726 2.19264 255.776 2.19264H258.122V4.75747H258.982V1.25021H255.963C254.041 1.25021 252.945 2.3358 252.945 3.9582C252.945 5.58061 254.041 6.733 255.963 6.733H260.349V7.96173H255.963L255.966 7.95934ZM256.934 3.147H256.107C255.599 3.147 255.281 3.44285 255.281 3.97013C255.281 4.43061 255.622 4.75986 256.107 4.75986H256.934V3.14938V3.147Z" fill="white"/>
<path d="M267.686 7.96173V1.70863H264.562V0H272.633V1.70863H269.509V7.96173H267.684H267.686Z" fill="white"/>
<path d="M280.653 7.95937L279.479 6.10235H275.948L276.764 4.79538H278.651L277.122 2.37653L273.615 7.96173H271.58L276.331 0.540652C276.538 0.216259 276.801 0 277.194 0C277.587 0 277.85 0.216259 278.058 0.540652L282.808 7.96173H280.658L280.653 7.95937Z" fill="white"/>
<path d="M283.509 7.96173V0H285.614V7.96173H283.509Z" fill="white"/>
<path d="M294.046 5.36816L292.865 7.43267C292.653 7.79948 292.315 7.96173 291.941 7.96173C291.544 7.96173 291.205 7.79008 290.994 7.43267L286.667 0H288.843L292.002 5.59625L293.124 3.73867L291.032 0H293.218L296.189 5.59625L299.358 0H301.404L297.064 7.43267C296.853 7.79008 296.514 7.96173 296.128 7.96173C295.741 7.96173 295.392 7.79948 295.191 7.43267L294.046 5.36816Z" fill="white"/>
<path d="M308.237 7.95937L306.99 6.10235H303.237L304.104 4.79538H306.109L304.484 2.37653L300.759 7.96173H298.597L303.644 0.540652C303.865 0.216259 304.144 0 304.562 0C304.979 0 305.258 0.216259 305.479 0.540652L310.527 7.96173H308.242L308.237 7.95937Z" fill="white"/>
<path d="M312.924 2.69031V7.85718H311.229V0.982738C311.229 0.37405 311.573 0 312.121 0C312.385 0 312.59 0.0859636 312.841 0.308994L318.293 5.18779V0.0209153H320V6.9697C320 7.59001 319.634 7.96173 319.108 7.96173C318.834 7.96173 318.614 7.86647 318.375 7.64112L312.924 2.68798V2.69031Z" fill="white"/>
<path d="M131.93 3.50293H0V4.13987H131.93V3.50293Z" fill="#00FFCC"/>
<path d="M39.5574 14.6499L25.1636 39.4945L21.2299 33.1558L17.0101 40.4804L22.6884 50H29.7487L49.4734 14.6522H39.5574V14.6499ZM8.32529 14.6499H0.350586V49.9977H8.32784V14.6499H8.32529ZM19.6207 14.6499L10.3688 31.9538V48.0188L29.5903 14.6499H19.6207Z" fill="white"/>
<path d="M48.4201 28.6624L36.4902 49.9998H48.4201V28.6624Z" fill="#00FFCC"/>
<path d="M320 42.0371L311.93 49.9988H320V42.0371Z" fill="#00FFCC"/>
<path d="M89.8247 42.3563H64.5615V49.9996H89.8247V42.3563Z" fill="white"/>
<path d="M89.8247 29.6174H64.5615V35.3499H89.8247V29.6174Z" fill="white"/>
<path d="M89.8247 14.9683H64.5615V22.6115H89.8247V14.9683Z" fill="white"/>
<path d="M62.4552 14.9683H54.0342V49.9999H62.4552V14.9683Z" fill="white"/>
<path d="M137.193 38.9696C137.193 45.8449 132.029 49.9999 124.415 49.9999H105.263V42.5983H122.923C126.436 42.5983 128.727 41.452 128.727 38.9215C128.727 36.6313 127.13 35.2928 124.148 35.2928H105.263V29.4196H123.563C126.597 29.4196 127.982 28.319 127.982 26.0768C127.982 23.4983 125.849 22.686 122.283 22.686H105.263V15.2867H123.403C131.23 15.2867 136.448 18.3412 136.448 24.3586C136.448 28.5616 134.159 30.6139 131.975 31.5199C134.901 32.6204 137.193 35.3408 137.193 38.9696Z" fill="white"/>
<path d="M103.158 14.9683H95.0879V49.9999H103.158V14.9683Z" fill="white"/>
<path d="M160.979 14.9683C150.09 14.9683 142.043 21.5627 141.756 31.5628H150.144C150.614 26.2291 155.054 22.4862 160.979 22.4862H182.458V14.9683H160.979ZM160.979 42.4842C154.988 42.4842 150.588 38.7229 150.142 33.4076H141.792C142.444 42.9344 150.36 49.9999 160.979 49.9999H182.458V42.4842H160.979Z" fill="white"/>
<path d="M205.326 42.4842C199.4 42.4842 195.048 38.7206 194.604 33.4076H186.347C186.995 42.9344 194.822 49.9999 205.326 49.9999H209.157V42.4842H205.326ZM214.862 14.9683H211.188V22.4862H214.862C220.923 22.4862 225.28 26.2291 225.739 31.5628H234.034C233.752 21.6966 225.993 14.9683 214.862 14.9683ZM225.744 33.4076C225.3 38.7206 220.938 42.4842 214.862 42.4842H211.188V49.9999H214.862C225.516 49.9999 233.351 42.9344 233.998 33.4076H225.744ZM205.329 14.9683C194.558 14.9683 186.599 21.5604 186.314 31.5628H194.614C195.076 26.2291 199.466 22.4862 205.329 22.4862H209.16V14.9683H205.329Z" fill="white"/>
<path d="M246.81 14.9938L246.8 14.9845H238.948V49.9977H246.813V14.9938H246.81ZM248.847 16.8723V28.5864L269.711 48.0961V36.0981L248.847 16.8723ZM271.732 14.6499V49.9884L271.747 50H279.65V14.6499H271.732Z" fill="white"/>
<path d="M294.034 14.9683H285.613V49.9999H294.034V14.9683Z" fill="white"/>
<path d="M320 14.9683H296.141V22.6115H320V14.9683Z" fill="white"/>
<path d="M320 29.9366H296.141V36.943H320V29.9366Z" fill="white"/>
</svg>
