<svg width="320" height="50" viewBox="0 0 320 50" fill="none" xmlns="http://www.w3.org/2000/svg">
<path d="M136.491 8.29098V0H143.86V1.77983H138.312V8.29347H136.491V8.29098ZM139.381 4.99445V3.49016H143.507V4.99445H139.381Z" fill="white"/>
<path d="M152.232 0H154.035V4.56911C154.035 7.10098 152.694 8.29347 149.299 8.29347C145.903 8.29347 144.562 7.10098 144.562 4.56911V0H146.474V4.56911C146.474 6.02114 147.138 6.57208 149.361 6.57208C151.583 6.57208 152.234 6.02114 152.234 4.56911V0H152.232Z" fill="white"/>
<path d="M157.861 8.29347V1.77983H154.737V0H162.807V1.77983H159.683V8.29347H157.858H157.861Z" fill="white"/>
<path d="M171.178 0H172.982V4.56911C172.982 7.10098 171.641 8.29347 168.245 8.29347C164.85 8.29347 163.509 7.10098 163.509 4.56911V0H165.421V4.56911C165.421 6.02114 166.085 6.57208 168.307 6.57208C170.53 6.57208 171.181 6.02114 171.181 4.56911V0H171.178Z" fill="white"/>
<path d="M181.972 8.29098L179.903 6.03206H177.261V4.51536H180.56C181.448 4.51536 181.939 4.00151 181.939 3.12276C181.939 2.24402 181.425 1.77734 180.56 1.77734H176.197V8.29098H174.385V0H180.56C182.548 0 183.728 1.19896 183.728 3.08057C183.728 4.4384 183.074 5.38417 182.01 5.79624L184.561 8.29347H181.977L181.972 8.29098Z" fill="white"/>
<path d="M185.263 8.29098V0H192.97V1.77983H187.075V6.51364H192.983V8.29347H185.266L185.263 8.29098ZM188.135 4.77849V3.37597H192.642V4.77849H188.135Z" fill="white"/>
<path d="M200.494 6.0587V4.33544H203.743C204.654 4.33544 205.194 3.82145 205.194 3.05667C205.194 2.29188 204.654 1.77788 203.743 1.77788H199.403V8.29347H197.545V0H203.746C205.808 0 207.018 1.16455 207.018 2.99955C207.018 4.83454 205.808 6.05623 203.746 6.05623H200.497L200.494 6.0587Z" fill="white"/>
<path d="M207.72 8.29098V0H209.644V6.51364H215.439V8.29347H207.723L207.72 8.29098Z" fill="white"/>
<path d="M224.795 8.29101L223.584 6.35662H219.942L220.784 4.99519H222.73L221.153 2.47555L217.537 8.29347H215.438L220.337 0.563179C220.551 0.22527 220.822 0 221.228 0C221.633 0 221.904 0.22527 222.118 0.563179L227.017 8.29347H224.8L224.795 8.29101Z" fill="white"/>
<path d="M229.415 2.80241V8.18456H227.72V1.02368C227.72 0.389636 228.064 0 228.612 0C228.876 0 229.081 0.0895454 229.332 0.321869L234.784 5.40394V0.0217868H236.492V7.26011C236.492 7.90626 236.125 8.29347 235.599 8.29347C235.325 8.29347 235.106 8.19424 234.866 7.9595L229.415 2.79998V2.80241Z" fill="white"/>
<path d="M238.022 8.29098V6.51169H244.32C244.962 6.51169 245.329 6.18163 245.329 5.65554C245.329 5.09718 244.962 4.77706 244.32 4.77706H240.544C238.904 4.77706 237.895 3.79684 237.895 2.39474C237.895 0.992642 238.836 0 240.569 0H246.606V1.77929H240.569C240.065 1.77929 239.755 2.06469 239.755 2.57837C239.755 3.09206 240.077 3.37744 240.569 3.37744H244.32C246.076 3.37744 247.018 4.1517 247.018 5.80692C247.018 7.23136 246.134 8.29347 244.32 8.29347H238.022V8.29098Z" fill="white"/>
<path d="M255.966 8.29098C253.417 8.29098 251.58 6.6805 251.58 4.23744C251.58 1.79439 253.466 0 255.966 0H260.352V6.06415H255.776C254.749 6.06415 254.054 5.21914 254.054 4.15791C254.054 3.09669 254.726 2.284 255.776 2.284H258.121V4.9557H258.981V1.3023H255.963C254.041 1.3023 252.945 2.43312 252.945 4.12313C252.945 5.81314 254.041 7.01354 255.963 7.01354H260.349V8.29347H255.963L255.966 8.29098ZM256.933 3.27812H256.107C255.599 3.27812 255.28 3.5863 255.28 4.13555C255.28 4.61522 255.622 4.95819 256.107 4.95819H256.933V3.28061V3.27812Z" fill="white"/>
<path d="M267.686 8.29347V1.77983H264.562V0H272.633V1.77983H269.509V8.29347H267.684H267.686Z" fill="white"/>
<path d="M280.653 8.29101L279.479 6.35662H275.947L276.763 4.99519H278.65L277.121 2.47555L273.615 8.29347H271.58L276.33 0.563179C276.538 0.22527 276.801 0 277.194 0C277.587 0 277.85 0.22527 278.057 0.563179L282.808 8.29347H280.658L280.653 8.29101Z" fill="white"/>
<path d="M283.509 8.29347V0H285.615V8.29347H283.509Z" fill="white"/>
<path d="M294.045 5.59184L292.864 7.74236C292.653 8.12446 292.314 8.29347 291.94 8.29347C291.543 8.29347 291.205 8.11466 290.993 7.74236L286.667 0H288.843L292.001 5.82943L293.124 3.89444L291.032 0H293.218L296.188 5.82943L299.357 0H301.403L297.064 7.74236C296.853 8.11466 296.514 8.29347 296.127 8.29347C295.74 8.29347 295.392 8.12446 295.19 7.74236L294.045 5.59184Z" fill="white"/>
<path d="M308.237 8.29101L306.989 6.35662H303.237L304.104 4.99519H306.109L304.484 2.47555L300.759 8.29347H298.597L303.644 0.563179C303.865 0.22527 304.144 0 304.561 0C304.979 0 305.258 0.22527 305.479 0.563179L310.526 8.29347H308.242L308.237 8.29101Z" fill="white"/>
<path d="M312.923 2.80241V8.18456H311.228V1.02368C311.228 0.389636 311.572 0 312.121 0C312.385 0 312.589 0.0895454 312.841 0.321869L318.293 5.40394V0.0217868H320V7.26011C320 7.90626 319.634 8.29347 319.108 8.29347C318.833 8.29347 318.614 8.19424 318.375 7.9595L312.923 2.79998V2.80241Z" fill="white"/>
<path d="M131.93 3.64888H0V4.31236H131.93V3.64888Z" fill="#00FFCC"/>
</svg>
