<svg width="320" height="36" viewBox="0 0 320 36" fill="none" xmlns="http://www.w3.org/2000/svg">
<path d="M39.2068 0L24.813 24.8446L20.8793 18.5059L16.6595 25.8305L22.3379 35.3501H29.3981L49.1229 0.00228651H39.2068V0ZM7.97471 0H0V35.3478H7.97726V0H7.97471ZM19.2701 0L10.0182 17.3039V33.3689L29.2397 0H19.2701Z" fill="white"/>
<path d="M48.0696 14.0125L36.1398 35.3499H48.0696V14.0125Z" fill="#00FFCC"/>
<path d="M319.649 27.3872L311.579 35.3489H319.649V27.3872Z" fill="#00FFCC"/>
<path d="M89.4736 27.7064H64.2104V35.3497H89.4736V27.7064Z" fill="white"/>
<path d="M89.4736 14.9675H64.2104V20.7H89.4736V14.9675Z" fill="white"/>
<path d="M89.4736 0.318359H64.2104V7.96162H89.4736V0.318359Z" fill="white"/>
<path d="M62.1049 0.318359H53.6838V35.35H62.1049V0.318359Z" fill="white"/>
<path d="M136.842 24.3197C136.842 31.195 131.678 35.35 124.065 35.35H104.912V27.9484H122.572C126.085 27.9484 128.377 26.8021 128.377 24.2716C128.377 21.9813 126.779 20.6429 123.797 20.6429H104.912V14.7697H123.213C126.246 14.7697 127.632 13.6691 127.632 11.4269C127.632 8.84837 125.499 8.03614 121.932 8.03614H104.912V0.636841H123.052C130.879 0.636841 136.097 3.69128 136.097 9.70865C136.097 13.9117 133.808 15.964 131.624 16.87C134.551 17.9705 136.842 20.6909 136.842 24.3197Z" fill="white"/>
<path d="M102.807 0.318359H94.7373V35.35H102.807V0.318359Z" fill="white"/>
<path d="M160.628 0.318359C149.739 0.318359 141.692 6.91276 141.405 16.9129H149.793C150.263 11.5792 154.703 7.83634 160.628 7.83634H182.107V0.318359H160.628ZM160.628 27.8343C154.637 27.8343 150.237 24.073 149.791 18.7577H141.441C142.093 28.2845 150.009 35.35 160.628 35.35H182.107V27.8343H160.628Z" fill="white"/>
<path d="M204.975 27.8343C199.05 27.8343 194.698 24.0707 194.254 18.7577H185.997C186.644 28.2845 194.472 35.35 204.975 35.35H208.807V27.8343H204.975ZM214.512 0.318359H210.838V7.83634H214.512C220.572 7.83634 224.929 11.5792 225.388 16.9129H233.683C233.401 7.04668 225.642 0.318359 214.512 0.318359ZM225.394 18.7577C224.949 24.0707 220.587 27.8343 214.512 27.8343H210.838V35.35H214.512C225.165 35.35 233 28.2845 233.648 18.7577H225.394ZM204.978 0.318359C194.208 0.318359 186.248 6.91045 185.964 16.9129H194.264C194.726 11.5792 199.116 7.83634 204.978 7.83634H208.809V0.318359H204.978Z" fill="white"/>
<path d="M246.459 0.343866L246.449 0.334626H238.597V35.3478H246.462V0.343866H246.459ZM248.496 2.22236V13.9365L269.36 33.4462V21.4482L248.496 2.22236ZM271.381 0V35.3385L271.397 35.3501H279.299V0H271.381Z" fill="white"/>
<path d="M293.684 0.318359H285.263V35.35H293.684V0.318359Z" fill="white"/>
<path d="M319.649 0.318359H295.789V7.96162H319.649V0.318359Z" fill="white"/>
<path d="M319.649 15.2867H295.789V22.2931H319.649V15.2867Z" fill="white"/>
</svg>
