<svg width="175" height="111" viewBox="0 0 175 111" fill="none" xmlns="http://www.w3.org/2000/svg">
<g clip-path="url(#clip0_40004289_9351)">
<path d="M60.2019 54.495L54.1447 44.0011C53.6674 43.173 52.4956 42.4976 51.5386 42.4976H39.4218C38.4671 42.4976 37.2929 43.1754 36.8156 44.0011L30.7584 54.495C30.2811 55.3232 30.2811 56.6764 30.7584 57.5045L36.8156 67.9984C37.2929 68.8266 38.4647 69.502 39.4218 69.502H51.5386C52.4932 69.502 53.6674 68.8242 54.1447 67.9984L60.2019 57.5045C60.6792 56.6764 60.6792 55.3232 60.2019 54.495ZM57.77 56.5165L52.0732 66.3851C51.9443 66.607 51.4359 66.9006 51.1782 66.9006H39.7845C39.5292 66.9006 39.0184 66.607 38.8895 66.3851L33.1927 56.5165C33.0638 56.2945 33.0638 55.705 33.1927 55.4831L38.8895 45.6145C39.0184 45.3925 39.5268 45.099 39.7845 45.099H51.1782C51.4335 45.099 51.9443 45.3925 52.0732 45.6145L57.77 55.4831C57.8989 55.705 57.8989 56.2945 57.77 56.5165Z" fill="#EFE6D2"/>
<path d="M45.4779 56.1753H36.4756V58.087H45.4779V56.1753Z" fill="#EFE6D2"/>
<path d="M45.4827 59.6025H38.2441V61.5142H45.4827V59.6025Z" fill="#EFE6D2"/>
<path d="M45.4823 63.0293H40.0098V64.941H45.4823V63.0293Z" fill="#EFE6D2"/>
<path d="M80.0084 52.2968V52.3303C80.0084 52.6405 79.8532 52.7933 79.5453 52.7933H65.8009C65.4906 52.7933 65.3379 52.6381 65.3379 52.3303V52.2968C65.3379 51.9866 65.493 51.8338 65.8009 51.8338H71.796V49.1012C71.796 48.7909 71.9512 48.6382 72.259 48.6382H73.0848C73.3951 48.6382 73.5478 48.7933 73.5478 49.1012V51.8338H79.543C79.8532 51.8338 80.006 51.989 80.006 52.2968H80.0084ZM70.6266 55.8004C69.8199 58.3779 68.6863 60.7645 67.1231 63.0676C66.9512 63.3086 66.746 63.3421 66.4882 63.206L65.956 62.9149C65.6816 62.7597 65.6291 62.5378 65.8009 62.28C67.1064 60.2705 68.1899 57.9173 68.9966 55.2706C69.0825 54.9794 69.2877 54.8744 69.5813 54.9794L70.3378 55.2371C70.6123 55.3231 70.7149 55.5283 70.629 55.8028L70.6266 55.8004ZM76.0036 55.1297C77.4475 57.6214 78.7005 60.0438 79.7148 62.397C79.8341 62.6714 79.7482 62.8958 79.4738 63.0151L78.7864 63.3063C78.512 63.4256 78.3043 63.323 78.185 63.0485C77.1039 60.471 75.901 58.0677 74.6624 55.8672C74.5072 55.5928 74.5764 55.3684 74.8342 55.2324L75.3831 54.9412C75.6409 54.8028 75.8461 54.872 76.0012 55.1297H76.0036Z" fill="#EFE6D2"/>
<path d="M91.327 48.8604C91.2578 48.9988 91.1885 49.1706 91.0859 49.3759H96.2744C96.5847 49.3759 96.7374 49.531 96.7374 49.8389V49.8723C96.7374 50.1133 96.6849 50.2685 96.5489 50.457C96.1718 50.92 95.6205 51.488 94.9164 52.1587H99.5727C99.8829 52.1587 100.036 52.3138 100.036 52.6217V61.6239C100.036 63.4449 99.8113 63.686 97.7684 63.686C97.5632 63.686 96.8567 63.6525 95.6897 63.6167C95.3794 63.6 95.2076 63.4449 95.2076 63.1537C95.1909 62.8626 95.3627 62.7074 95.6897 62.7242C96.7899 62.7576 97.408 62.8101 97.5799 62.8101C98.3197 62.8101 98.3364 62.7934 98.3364 61.6764V59.7003H88.8186C88.5776 61.1084 88.0812 62.3972 87.2387 63.6334C87.0669 63.8912 86.8258 63.9246 86.5848 63.7361L86.086 63.3232C85.8616 63.1347 85.8282 62.927 85.9667 62.6884C87.0144 60.97 87.4273 58.9271 87.4273 55.3877V53.9963L86.7065 54.5811C86.4487 54.7863 86.2077 54.7362 86.0717 54.4426L85.8998 54.099C85.7805 53.8412 85.8139 53.6527 86.0383 53.4641C87.6349 52.1252 88.8902 50.4403 89.7995 48.4475C89.9189 48.1897 90.1098 48.1038 90.3843 48.1563L91.0191 48.2756C91.3461 48.3449 91.4654 48.5668 91.3294 48.8604H91.327ZM88.9571 58.8579H92.6324V56.297H89.1289C89.1122 57.2254 89.0597 58.0488 88.9571 58.8579ZM92.6324 53.0345H89.1289V55.4736H92.6324V53.0345ZM89.2148 52.1587H93.1479C93.6969 51.6599 94.315 51.025 95.0214 50.2183H90.6062C90.2792 50.7673 89.833 51.4045 89.2148 52.1587ZM98.3364 53.0345H94.3174V55.4736H98.3364V53.0345ZM98.3364 56.2994H94.3174V58.8602H98.3364V56.2994Z" fill="#EFE6D2"/>
<path d="M118.951 57.4832C118.951 57.7409 118.865 57.8961 118.641 58.0321C117.507 58.7361 116.133 59.4235 114.536 60.0774H121.202C121.512 60.0774 121.665 60.2325 121.665 60.5404C121.665 60.7982 121.51 60.9366 121.202 60.9366H115.035V62.6884C115.035 63.6836 114.777 63.8554 112.784 63.8554C112.097 63.8554 111.307 63.8387 110.395 63.7862C110.121 63.7695 109.949 63.6144 109.932 63.3232C109.916 63.032 110.088 62.8769 110.414 62.8936C111.531 62.927 112.252 62.9795 112.596 62.9795C113.352 62.9795 113.266 63.0654 113.266 62.2755V60.9366H106.601C106.29 60.9366 106.138 60.7815 106.138 60.4736C106.138 60.2158 106.293 60.0774 106.601 60.0774H113.266V59.7505C113.266 59.4402 113.422 59.2875 113.729 59.2875H114.212C115.054 58.9438 115.98 58.4975 117.116 57.8961H109.317C109.006 57.8961 108.854 57.7409 108.854 57.4331C108.854 57.2278 109.009 57.1061 109.317 57.1061H118.491C118.801 57.1061 118.954 57.2445 118.954 57.4832H118.951ZM107.424 49.5477C108.403 49.4451 109.555 49.2375 110.877 48.9797C111.188 48.9105 111.376 49.0489 111.426 49.3234C111.479 49.5978 111.357 49.7864 111.049 49.8389C110.276 49.994 109.486 50.1133 108.73 50.2351L108.763 51.1635H110.911C111.221 51.1635 111.374 51.3186 111.374 51.6265C111.374 51.7649 111.219 51.8317 110.911 51.8317H108.799L108.851 53.0847H110.913C111.224 53.0847 111.376 53.2398 111.376 53.5477C111.376 53.6861 111.221 53.772 110.913 53.772H108.887L108.94 55.0775H118.87L118.904 53.772H116.894C116.584 53.772 116.431 53.6169 116.431 53.309C116.431 53.1706 116.586 53.0847 116.894 53.0847H118.939L118.973 51.8317H116.894C116.584 51.8317 116.431 51.6766 116.431 51.3687C116.431 51.2303 116.586 51.1635 116.894 51.1635H119.006L119.059 49.9606H116.792C116.481 49.9606 116.329 49.8055 116.329 49.4976C116.329 49.2733 116.484 49.1539 116.792 49.1539H120.348C120.658 49.1539 120.83 49.3258 120.811 49.636L120.569 55.0823H121.118C121.429 55.0823 121.581 55.2374 121.581 55.5453V57.4354C121.581 57.7457 121.426 57.8984 121.118 57.8984H120.345C120.035 57.8984 119.882 57.7433 119.882 57.4354V55.8722H107.925V57.4354C107.925 57.7457 107.77 57.8984 107.462 57.8984H106.689C106.379 57.8984 106.226 57.7433 106.226 57.4354V55.5453C106.226 55.235 106.381 55.0823 106.689 55.0823H107.221L106.997 50.0489C106.98 49.7577 107.135 49.5859 107.426 49.5501L107.424 49.5477ZM115.944 49.1682C115.687 49.426 115.376 49.7005 114.982 50.0107L115.911 50.6456C116.169 50.8341 116.202 51.0584 115.997 51.2995L115.792 51.5572L115.808 51.5739C116.135 51.6933 116.204 51.951 115.963 52.1921C115.706 52.4665 115.379 52.741 114.985 53.0513L115.913 53.6861C116.171 53.8746 116.188 54.0823 115.999 54.34L115.947 54.4092C115.758 54.6503 115.534 54.667 115.276 54.4784C114.761 54.1014 114.364 53.8245 114.109 53.636C113.646 53.9104 113.045 54.2207 112.34 54.4952C112.083 54.5978 111.894 54.5477 111.706 54.3758C111.481 54.1706 111.551 53.9462 111.877 53.8078C112.29 53.6193 112.737 53.3782 113.216 53.0871C112.718 52.7959 112.305 52.5548 111.98 52.3997C111.689 52.2446 111.62 52.0226 111.825 51.7649L111.963 51.593L111.758 51.4045C111.5 51.1634 111.553 50.9057 111.877 50.7697C112.29 50.5978 112.737 50.3568 113.216 50.0489C112.718 49.7577 112.305 49.5167 111.98 49.3616C111.689 49.2064 111.636 48.9845 111.825 48.7267C111.963 48.5382 112.152 48.5024 112.41 48.6241C113.114 48.9344 113.646 49.2088 114.059 49.4475C114.333 49.2231 114.627 48.9654 114.951 48.6241C115.123 48.4189 115.329 48.3663 115.586 48.469L115.792 48.5549C116.118 48.6933 116.188 48.932 115.947 49.173L115.944 49.1682ZM112.2 51.5238C112.99 51.8842 113.608 52.2279 114.054 52.4856C114.381 52.2279 114.758 51.8675 115.188 51.3687C114.877 51.1634 114.534 50.9057 114.107 50.6121C113.624 50.9033 112.99 51.2136 112.2 51.5238Z" fill="#EFE6D2"/>
<path d="M132.113 50.4567C131.201 52.7765 130.79 53.5999 130.464 54.4257C131.717 55.9555 132.01 56.8815 132.01 58.2395C132.01 59.6834 131.323 60.4208 129.604 60.4208C129.347 60.4208 129.191 60.2824 129.141 60.0079C129.089 59.7335 129.244 59.5616 129.571 59.5616H129.433C130.172 59.5616 130.464 59.2514 130.464 57.9817C130.464 56.712 130.12 55.9364 129.211 54.7359C129.039 54.5307 129.022 54.3397 129.125 54.1011C129.674 52.8481 130.275 51.4734 130.688 50.0295H128.643V63.2752C128.643 63.5854 128.487 63.7382 128.18 63.7382H127.595C127.285 63.7382 127.132 63.5831 127.132 63.2752V49.6668C127.132 49.3565 127.287 49.2038 127.595 49.2038H131.769C132.079 49.2038 132.232 49.3589 132.232 49.6668V49.872C132.232 50.0773 132.199 50.2324 132.113 50.4567ZM141.8 56.5736C141.8 56.8839 141.645 57.0366 141.337 57.0366H138.984V61.8289C138.984 62.6189 138.864 62.6022 139.826 62.6022C140.375 62.6022 140.461 62.6022 140.633 62.1392C140.702 61.9506 140.771 61.1941 140.805 59.9578C140.821 59.6308 140.993 59.4757 141.303 59.5115L141.974 59.5807C142.265 59.6141 142.404 59.7693 142.404 60.0795C142.387 60.595 142.387 60.9053 142.335 61.4184C142.282 62.089 142.282 62.7764 141.716 63.2227C141.511 63.3945 141.167 63.4112 140.943 63.4637C140.788 63.4971 140.031 63.5162 139.776 63.5162C137.628 63.5162 137.284 63.311 137.284 62.2633V57.0414H136.287C136.253 60.6308 135.137 62.2991 131.614 63.638C131.356 63.7406 131.151 63.6714 130.996 63.4327L130.943 63.3301C130.771 63.0556 130.857 62.8313 131.148 62.712C133.674 61.6976 134.549 60.2561 134.619 57.0438H133.022C132.712 57.0438 132.559 56.8886 132.559 56.5808C132.559 56.2896 132.714 56.1345 133.022 56.1345H141.337C141.647 56.1345 141.8 56.2896 141.8 56.5808V56.5736ZM142.041 50.8362V53.1393C142.041 53.4495 141.886 53.6023 141.578 53.6023H140.788C140.478 53.6023 140.325 53.4472 140.325 53.1393V51.2491H134.02V53.1393C134.02 53.4495 133.864 53.6023 133.557 53.6023H132.817C132.506 53.6023 132.354 53.4472 132.354 53.1393V50.8362C132.354 50.5259 132.509 50.3732 132.817 50.3732H136.132V48.9293C136.132 48.6191 136.287 48.4663 136.595 48.4663H137.418C137.728 48.4663 137.881 48.6214 137.881 48.9293V50.3732H141.576C141.886 50.3732 142.039 50.5283 142.039 50.8362H142.041ZM140.031 53.4114C140.031 53.7025 139.876 53.8576 139.568 53.8576H134.81C134.499 53.8576 134.347 53.7025 134.347 53.3946C134.347 53.1202 134.502 52.9818 134.81 52.9818H139.568C139.879 52.9818 140.031 53.1369 140.031 53.4114Z" fill="#EFE6D2"/>
</g>
<defs>
<clipPath id="clip0_40004289_9351">
<rect width="113.6" height="27.0044" fill="white" transform="translate(30.4004 42.4976)"/>
</clipPath>
</defs>
</svg>
