<svg width="225" height="180" viewBox="0 0 225 180" fill="none" xmlns="http://www.w3.org/2000/svg">
<g clip-path="url(#clip0_40002058_79861)">
<path d="M41.3804 75.5977V82.4856H39.6594V89.376H37.9896V96.2639H36.2922V101.431H34.5712V104.873H31.1254V101.431H29.3981V96.2639H27.662V89.376H25.941V82.4856H22.5139V89.376H20.7916V96.2639H19.0681V101.431H17.347V104.873H13.9012V101.431H12.1801V96.2639H10.4591V89.376H8.78925V82.4856H7.06445V75.5977H10.5103V82.4856H12.2313V89.3735H13.9012V96.2614L17.347 96.2639V89.3735H19.0681V82.4856H20.7741V79.0397H22.5014V75.5977H25.9472V79.0397H27.662V82.4856H29.3856V89.3735H31.1079V96.2639L34.5437 96.2614V89.3735H36.2148V82.4856H37.9359V75.5977H41.3804Z" fill="white"/>
<path d="M82.7848 91.1001V87.6555H81.0637V84.2109H77.6191H69.0039V87.6555H77.6191H79.3414V91.1001H81.0637V94.5447V97.9893H79.3414V101.434H77.6191H69.0039V104.878H77.6191H81.0637V101.434H82.7848V97.9893H84.5083V94.5447V91.1001H82.7848Z" fill="white"/>
<path d="M67.2805 97.9862V94.5416V91.0971H69.0028V87.6525H67.2805V84.2079V80.7645V79.0422V77.32V75.5977H63.8359V77.32V79.0422V80.7645V84.2079V87.6525V91.0971V94.5416V97.9862V101.431V104.875H67.2805V101.431H69.0028V97.9862H67.2805Z" fill="white"/>
<path d="M103.352 100.526C102.683 100.889 101.334 101.507 100.384 101.736C99.4331 101.966 98.4864 102.079 97.5434 102.079C95.5239 102.079 93.9077 101.622 92.695 100.706C91.4823 99.79 90.6942 98.4612 90.332 96.7164C89.9686 94.9728 90.0497 92.8684 90.5731 90.4055L90.6717 89.9409C91.1551 87.6653 91.9257 85.6595 92.981 83.9222C94.0364 82.1849 95.3365 80.8223 96.8802 79.8331C98.4239 78.844 100.157 78.3482 102.083 78.3482C102.878 78.3482 103.602 78.4094 104.256 78.5305C104.911 78.6516 105.493 78.8265 106.003 79.0551C106.512 79.2849 107.339 79.742 107.699 80.0779L106.743 84.5479H109.914L111.262 78.2058C110.419 77.2903 109.274 76.5359 107.825 75.9439C106.375 75.3519 104.701 75.0547 102.803 75.0547C100.11 75.0547 97.6571 75.7016 95.4427 76.9943C93.2296 78.287 91.3661 80.0542 89.8524 82.2961C88.3387 84.5379 87.2758 87.0995 86.6639 89.9808L86.5739 90.4042C85.9669 93.2593 85.9195 95.8109 86.4316 98.059C86.9436 100.308 88.0477 102.078 89.745 103.371C91.4423 104.663 93.7666 105.309 96.7154 105.309C98.344 105.309 99.9676 105.117 101.584 104.733C103.2 104.35 104.634 103.814 105.884 103.127L107.24 96.7451H104.13L103.352 100.523V100.526Z" fill="white"/>
<path d="M179.614 100.526C178.945 100.889 177.596 101.507 176.645 101.736C175.695 101.966 174.748 102.079 173.805 102.079C171.786 102.079 170.169 101.622 168.957 100.706C167.744 99.79 166.956 98.4612 166.594 96.7164C166.23 94.9728 166.31 92.8684 166.835 90.4055L166.933 89.9409C167.417 87.6653 168.187 85.6595 169.243 83.9222C170.298 82.1849 171.598 80.8223 173.142 79.8331C174.686 78.844 176.419 78.3482 178.345 78.3482C179.139 78.3482 179.864 78.4094 180.518 78.5305C181.173 78.6516 181.755 78.8265 182.264 79.0551C182.774 79.2849 183.601 79.742 183.96 80.0779L183.005 84.5479H186.176L187.524 78.2058C186.681 77.2903 185.535 76.5359 184.086 75.9439C182.636 75.3519 180.963 75.0547 179.064 75.0547C176.372 75.0547 173.919 75.7016 171.704 76.9943C169.491 78.287 167.628 80.0542 166.114 82.2961C164.6 84.5379 163.538 87.0995 162.926 89.9808L162.836 90.4042C162.229 93.2593 162.181 95.8109 162.693 98.059C163.205 100.308 164.309 102.078 166.007 103.371C167.704 104.663 170.028 105.309 172.977 105.309C174.606 105.309 176.229 105.117 177.845 104.733C179.462 104.35 180.895 103.814 182.146 103.127L183.502 96.7451H180.392L179.614 100.523V100.526Z" fill="white"/>
<path d="M152.937 75.2852H148.623L132.469 102.292L130.895 102.341L128.181 91.173C128.713 91.0368 129.228 90.8745 129.719 90.6784C131.219 90.0801 132.468 89.1946 133.464 88.0231C134.461 86.8516 135.142 85.4041 135.507 83.6806C135.88 81.9308 135.811 80.4495 135.301 79.2381C134.792 78.0266 133.868 77.1011 132.529 76.4604C131.19 75.821 129.451 75.5012 127.311 75.5012H114.203L113.662 78.0453H116.954L111.79 102.342H108.498L107.957 104.888H118.519L119.06 102.342H115.768L118.017 91.76L124.278 91.6451L127.366 104.888H130.919L130.898 104.923H135.07L150.334 78.9995L158.281 104.824L158.311 104.923H162.334L152.937 75.2852ZM124.115 88.6289H118.682L120.811 78.6111H126.647C128.681 78.6111 130.086 79.062 130.864 79.9637C131.642 80.8654 131.866 82.0919 131.537 83.6393C131.191 85.2692 130.423 86.5069 129.233 87.355C128.043 88.203 126.336 88.6276 124.115 88.6276V88.6289Z" fill="white"/>
<path d="M205.211 102.339L199.482 91.0696L193.823 96.0729L192.492 102.339H195.784L195.242 104.883H184.68L185.22 102.339H188.513L193.677 78.0419H190.385L190.931 75.4766H201.493L200.947 78.0419H197.656L194.849 91.2495L209.127 78.4266L209.515 78.0419H207.087L207.633 75.4766H217.065L216.519 78.0419H214.2L202.585 88.3257L210.076 102.339H212.405L211.864 104.883H202.049L202.59 102.339H205.211Z" fill="white"/>
<path d="M62.1135 96.2657V91.0989H60.395V85.932H56.9529V84.2109H46.6141V85.932H43.1721V91.0989H41.4473V97.9893H43.1721V103.135H46.6141V104.856H56.9529V103.135H60.395V99.6891H56.9529V101.413H46.6141V97.988H44.8931V96.2645H62.1135V96.2657ZM44.8919 91.0989H46.6129V87.6568H56.9517V91.0989H58.6702V92.8237H44.8919V91.0989Z" fill="white"/>
</g>
<defs>
<clipPath id="clip0_40002058_79861">
<rect width="210" height="30.2544" fill="white" transform="translate(7.06445 75.0547)"/>
</clipPath>
</defs>
</svg>
