<svg fill="none" height="240" viewBox="0 0 300 240" width="300" xmlns="http://www.w3.org/2000/svg" xmlns:xlink="http://www.w3.org/1999/xlink"><linearGradient id="a" gradientUnits="userSpaceOnUse" x1="39.7732" x2="63.7598" y1="110.547" y2="134.631"><stop offset="0" stop-color="#e7332e"/><stop offset="1" stop-color="#ed7c6f"/></linearGradient><linearGradient id="b" gradientUnits="userSpaceOnUse" x1="45.7031" x2="45.7031" y1="116.807" y2="100.068"><stop offset="0" stop-color="#f19d96"/><stop offset="1" stop-color="#eb7063"/></linearGradient><linearGradient id="c" gradientUnits="userSpaceOnUse" x1="70.6158" x2="70.6158" y1="116.208" y2="101.665"><stop offset="0" stop-color="#f6c0bd"/><stop offset="1" stop-color="#ef918b"/></linearGradient><linearGradient id="d" gradientUnits="userSpaceOnUse" x1="58.4281" x2="71.3104" y1="116.743" y2="129.687"><stop offset="0" stop-color="#e95750"/><stop offset="1" stop-color="#f09580"/></linearGradient><clipPath id="e"><path d="m12 98h276v44h-276z"/></clipPath><path d="m0 0h300v240h-300z" fill="#fff"/><g clip-path="url(#e)"><path d="m99.4455 113.604v-5.352c.0911-1.996-.6377-3.901-2.0951-5.262s-3.3703-2.087-5.3742-1.996h-4.8278v5.625h4.1901c1.2753-.091 2.2773.907 2.3684 2.086v6.169c-.0911 1.633.5465 3.176 1.6396 4.264 1.1841 1.089 2.7326 1.724 4.2811 1.996-1.5485.182-3.097.907-4.2811 1.905-1.0931 1.18-1.7307 2.722-1.6396 4.264v5.897c.091 1.27-.9109 2.268-2.0951 2.359h-4.4634v5.625h4.8278c2.0039.09 3.9168-.635 5.3742-1.996 1.3664-1.361 2.1862-3.357 2.0951-5.262v-5.262c0-2.903 1.5485-4.627 4.9185-4.627v-5.806c-3.37 0-4.9185-1.724-4.9185-4.627z" fill="#000"/><path d="m22.5663 114.874v-5.897c-.0911-1.27.9109-2.268 2.0951-2.358h4.4634v-5.625h-4.8278c-2.0039-.091-3.9168.635-5.3742 1.996-1.3664 1.361-2.0951 3.266-2.004 5.262v5.352c0 2.903-1.5485 4.627-4.9188 4.627v5.806c3.2792 0 4.9188 1.724 4.9188 4.627v5.262c-.0911 1.996.6376 3.901 2.004 5.262 1.4574 1.361 3.4614 2.086 5.4653 1.996h4.8277v-5.625h-4.2811c-1.2753.091-2.2773-.907-2.3684-2.087v-6.078c.0911-1.633-.4554-3.175-1.6396-4.355-1.1841-1.088-2.7326-1.723-4.2812-1.996 1.6396-.181 3.0971-.907 4.2812-1.905 1.1842-1.179 1.7307-2.721 1.6396-4.264z" fill="#000"/><path d="m33.2239 115.782 24.9584 26.218v-26.218z" fill="url(#a)"/><path d="m58.1823 101.538h-17.8535l-7.1049 14.243h24.9584z" fill="url(#b)"/><path d="m83.0495 115.781-7.105-14.243h-17.7624v14.243z" fill="url(#c)"/><path d="m58.1821 115.782v26.218l24.8674-26.218z" fill="url(#d)"/><g fill="#000"><path d="m114.293 132.928h8.198l2.004-10.251h-7.743v-6.623h8.836l1.366-7.258h-11.113v-6.441h37.62v6.441h-19.128l-1.276 7.258h16.214v16.874h5.557v6.26h-40.444v-6.26zm27.782-10.342h-10.293l-1.822 10.251h12.206z"/><path d="m168.582 140.911h-6.194v-17.418c-.273.453-.729 1.088-1.366 1.996-.638.907-1.276 1.542-1.549 1.996-.182-1.089-.273-2.45-.455-4.174-.182-2.177-.456-3.81-.638-5.08 2.915-5.716 4.919-11.522 6.285-17.963l6.741 1.724c-.729 3.084-1.822 6.169-2.915 9.072zm29.149-30.573h-6.741l4.281 1.361c-.182.454-.637 1.089-1.275 1.996-.638 1.089-.911 1.724-1.366 2.177h6.285v5.353h-28.875v-5.353h6.194l-2.46-3.719 3.826-1.815h-6.012v-5.443h9.838v-4.445h6.467v4.445h9.838zm-19.038 30.392h-6.467v-16.874h24.958v16.874h-6.467v-1.815h-12.024zm0-11.34v4.445h12.024v-4.445zm4.463-15.06-2.914 1.542h5.738c1.275-1.996 2.186-3.81 2.733-5.534h-8.654c1.093 1.361 2.095 2.722 3.097 3.992z"/><path d="m203.196 128.755h19.129l2.459-1.815h-13.117v-4.626h23.41v3.991l-3.826 2.268h12.206v5.081h-14.938v1.724c0 3.266-1.731 4.899-5.101 5.08h-4.19c-2.186.181-3.735.181-4.646.181-.637-2.721-.911-4.445-1.275-4.899.638.182 2.642.182 6.194.182 1.549 0 2.277-.635 2.186-1.724v-.453h-18.491zm23.228-28.7589 2.732 2.4499c-.91.635-1.821 1.36-2.641 1.995.729.454 1.731 1.089 2.641 1.724l-1.73 1.996 1.73 1.542c-.182.182-.637.635-1.366 1.089-.638.635-.911.907-1.366 1.27.728.635 1.73 1.27 2.915 1.815l-2.187 2.721h7.288v-1.724h-4.737v-3.266h4.919v-1.542h-4.919v-3.175h5.101v-1.633h-5.83v-3.992h12.206l-.729 15.332h2.187v8.8h-6.012v-4.627h-26.963v4.627h-6.012v-8.8h1.822l-.637-14.787c4.645-.636 8.198-1.271 10.657-1.8149l1.549 4.7179c-1.549.272-3.553.635-5.83 1.088v1.27h5.101v3.085h-4.646v1.542h4.919v3.175h-4.736v1.724h6.922c-.182-.181-.273-.635-.637-1.089-.638-1.088-.911-1.723-1.367-1.995 1.276-.635 2.186-1.089 2.915-1.543-.273-.181-.729-.635-1.548-1.088-.456-.272-.729-.635-1.276-.726l1.549-1.542c-.638-.635-1.275-1.543-1.822-2.268.273-.182.911-.454 1.731-.726.637-.454 1.275-.726 1.548-.726-.273-.181-.728-.635-1.366-1.089-.638-.272-1.275-.635-1.548-.725l2.186-2.45c.728.272 1.821.907 3.279 1.815.273.181.637.453.729.453.273-.272.91-.726 1.73-1.361.82-.907 1.276-1.36 1.549-1.5419zm-3.006 14.3339c-1.093.726-2.277 1.542-3.553 2.177h6.286c-.274-.272-.911-.725-1.731-1.36-.456-.273-.911-.545-1.002-.817zm0-7.439c-.638.272-1.367.726-2.46 1.361.456.181.911.635 1.731 1.088.273.182.638.454.729.454.273-.181.729-.454 1.366-1.089.273-.181.638-.453.638-.453-.182-.182-.638-.454-.911-.635-.638-.363-1.002-.545-1.093-.726z"/><path d="m259.762 118.413c1.822 2.903 2.733 5.987 2.733 9.253.182 4.899-1.366 7.53-4.646 7.984-.121 0-.212.06-.273.181-.638.182-1.275.182-1.822.182l-1.548-4.446v9.254h-5.374v-39.01h13.299v6.169zm-5.556-10.433v21.41h1.275c1.093.182 1.731-.907 1.731-3.266 0-1.814-.729-4.264-2.46-7.258l2.278-10.705zm28.875 20.594c1.731.635 3.37 1.27 4.919 1.814 0 .181 0 .454-.182.726-.183 2.449-.456 4.173-.729 5.08-.182 2.631-2.004 3.811-5.374 3.811h-1.367c-3.734.181-5.556-1.543-5.556-4.718v-8.8h-2.186c.182 6.441-2.733 11.249-8.836 14.606-.273-.453-1.093-1.27-2.186-2.268-.911-1.27-1.731-2.177-2.186-2.449 5.101-1.996 7.56-5.262 7.105-9.708h-4.008v-5.806h24.867v5.716h-6.649v7.257c0 .636.182 1.089.455 1.089h.273c.638 0 .729-.453.729-1.27.729-1.27.911-2.903.911-5.08zm-5.374-28.396v4.173h9.564v9.254h-2.186v4.899h-20.04v-4.899h-2.277v-9.254h8.471v-4.173zm-9.109 9.979v2.903h12.843v-2.903z"/></g></g></svg>