<svg fill="none" height="240" viewBox="0 0 300 240" width="300" xmlns="http://www.w3.org/2000/svg" xmlns:xlink="http://www.w3.org/1999/xlink"><clipPath id="a"><path d="m50 35h200v170h-200z"/></clipPath><path d="m0 0h300v240h-300z" fill="#fff"/><g clip-path="url(#a)" fill="#00251a"><path d="m208.837 83.2276-24.429-42.1808c-1.926-3.3259-6.655-6.0468-10.507-6.0468h-48.859c-3.853 0-8.58 2.7209-10.506 6.0468l-24.4298 42.1808c-1.9258 3.3259-1.9258 8.7677 0 12.0937l24.4298 42.1807c1.926 3.326 6.655 6.047 10.506 6.047h48.859c3.853 0 8.581-2.721 10.507-6.047l24.429-42.1807c1.926-3.326 1.926-8.7678 0-12.0937zm-9.812 8.1218-22.975 39.6676c-.517.893-2.572 2.075-3.605 2.075h-45.948c-1.033 0-3.089-1.182-3.605-2.075l-22.9749-39.6676c-.5168-.8928-.5168-3.2588 0-4.15l22.9749-39.6675c.516-.8928 2.572-2.075 3.605-2.075h45.948c1.033 0 3.088 1.1822 3.605 2.075l22.975 39.6675c.516.8928.516 3.2572 0 4.15z"/><path d="m149.47 89.9824h-36.304v7.6804h36.304z"/><path d="m149.47 103.757h-29.186v7.68h29.186z"/><path d="m149.47 117.533h-22.067v7.681h22.067z"/><path d="m88.0739 175.09v.088c0 .8-.4019 1.2-1.204 1.2h-35.6659c-.8021 0-1.204-.4-1.204-1.2v-.088c0-.8.4019-1.201 1.204-1.201h15.5603v-7.067c0-.799.4018-1.2 1.204-1.2h2.1406c.8021 0 1.204.401 1.204 1.2v7.067h15.5603c.8021 0 1.204.401 1.204 1.201zm-24.3426 9.065c-2.0964 6.667-5.0375 12.844-9.0957 18.8-.4462.621-.9809.711-1.6502.354l-1.3828-.755c-.7135-.401-.848-.978-.4019-1.645 3.3873-5.2 6.1972-11.289 8.2919-18.132.2231-.756.7579-1.022 1.5157-.756l1.9619.667c.7135.223.9809.756.7578 1.467zm13.9543-1.733c3.7449 6.444 6.9994 12.71 9.6305 18.799.3116.712.0886 1.289-.625 1.601l-1.783.756c-.7136.31-1.2483.044-1.56-.668-2.8083-6.666-5.9298-12.888-9.14-18.577-.4019-.711-.2231-1.288.4462-1.645l1.4271-.755c.6693-.355 1.204-.178 1.6059.489z"/><path d="m117.454 166.201c-.179.356-.356.799-.625 1.334h13.464c.802 0 1.204.401 1.204 1.2v.089c0 .621-.133 1.022-.491 1.511-.98 1.2-2.408 2.666-4.235 4.4h12.083c.802 0 1.204.4 1.204 1.2v23.288c0 4.711-.579 5.332-5.886 5.332-.534 0-2.363-.088-5.395-.178-.802-.044-1.248-.445-1.248-1.2-.044-.756.402-1.156 1.248-1.11 2.853.088 4.459.222 4.905.222 1.917 0 1.962-.044 1.962-2.934v-5.111h-24.701c-.623 3.645-1.917 6.977-4.1 10.177-.447.667-1.07.756-1.695.267l-1.292-1.066c-.579-.489-.67-1.022-.312-1.645 2.72-4.445 3.789-9.733 3.789-18.888v-3.601l-1.873 1.511c-.669.533-1.293.401-1.65-.355l-.447-.889c-.311-.667-.223-1.156.358-1.645 4.147-3.467 7.401-7.821 9.763-12.977.312-.667.802-.889 1.516-.755l1.65.31c.848.179 1.16.756.802 1.511zm-6.153 25.866h9.54v-6.622h-9.095c-.045 2.4-.179 4.533-.447 6.622zm9.54-15.066h-9.095v6.31h9.095zm-8.872-2.266h10.209c1.427-1.289 3.031-2.934 4.86-5.022h-11.457c-.847 1.423-2.006 3.066-3.612 5.022zm23.673 2.266h-10.433v6.31h10.433zm0 8.444h-10.433v6.622h10.433z"/><path d="m189.143 188.511c0 .667-.223 1.066-.802 1.422-2.943 1.822-6.509 3.601-10.655 5.289h17.299c.802 0 1.204.4 1.204 1.2 0 .667-.402 1.022-1.204 1.022h-16.005v4.532c0 2.577-.669 3.022-5.841 3.022-1.784 0-3.834-.044-6.198-.178-.713-.044-1.159-.445-1.204-1.2-.044-.756.402-1.156 1.249-1.111 2.898.089 4.77.223 5.662.223 1.962 0 1.739.222 1.739-1.822v-3.466h-17.299c-.802 0-1.204-.401-1.204-1.2 0-.668.402-1.022 1.204-1.022h17.299v-.844c0-.8.402-1.2 1.204-1.2h1.248c2.185-.89 4.593-2.044 7.534-3.599h-20.242c-.802 0-1.204-.401-1.204-1.201 0-.533.402-.845 1.204-.845h23.808c.802 0 1.204.356 1.204.978zm-29.916-20.533c2.541-.266 5.528-.8 8.961-1.467.802-.178 1.293.179 1.427.89.133.711-.179 1.2-.981 1.332-2.006.401-4.056.712-6.018 1.022l.088 2.401h5.573c.802 0 1.204.401 1.204 1.2 0 .357-.402.533-1.204.533h-5.484l.134 3.244h5.35c.802 0 1.204.401 1.204 1.201 0 .354-.402.577-1.204.577h-5.261l.134 3.376h25.77l.089-3.376h-5.216c-.803 0-1.204-.401-1.204-1.2 0-.355.401-.578 1.204-.578h5.304l.089-3.244h-5.395c-.802 0-1.204-.4-1.204-1.2 0-.357.402-.533 1.204-.533h5.484l.134-3.112h-5.885c-.803 0-1.205-.4-1.205-1.2 0-.577.402-.89 1.205-.89h9.228c.802 0 1.248.445 1.204 1.245l-.623 14.088h1.427c.802 0 1.204.401 1.204 1.201v4.889c0 .799-.402 1.2-1.204 1.2h-2.006c-.802 0-1.204-.401-1.204-1.2v-4.044h-31.031v4.044c0 .799-.401 1.2-1.204 1.2h-2.006c-.802 0-1.204-.401-1.204-1.2v-4.889c0-.8.402-1.201 1.204-1.201h1.383l-.579-13.02c-.044-.756.356-1.201 1.114-1.289zm22.113-.978c-.669.667-1.471 1.379-2.496 2.178l2.408 1.645c.669.489.757 1.066.223 1.689l-.535.668.044.044c.847.31 1.025.977.402 1.599-.669.711-1.516 1.422-2.541 2.222l2.408 1.645c.67.489.714 1.022.223 1.689l-.134.178c-.491.623-1.07.668-1.739.179-1.338-.978-2.364-1.69-3.031-2.178-1.204.711-2.764 1.51-4.592 2.222-.669.266-1.159.132-1.65-.311-.579-.533-.402-1.11.446-1.467 1.07-.489 2.23-1.11 3.478-1.867-1.293-.755-2.364-1.378-3.21-1.777-.758-.401-.937-.978-.402-1.645l.358-.445-.535-.489c-.669-.621-.535-1.289.311-1.645 1.07-.445 2.23-1.066 3.478-1.867-1.293-.756-2.364-1.379-3.21-1.778-.758-.4-.893-.978-.402-1.645.358-.489.848-.577 1.516-.266 1.827.799 3.21 1.511 4.279 2.134.714-.578 1.472-1.245 2.318-2.134.446-.533.981-.668 1.65-.401l.535.222c.846.355 1.025.978.402 1.601zm-9.719 6.09c2.051.933 3.657 1.821 4.815 2.488.846-.667 1.827-1.601 2.942-2.889-.802-.533-1.694-1.2-2.808-1.956-1.248.756-2.898 1.555-4.949 2.357z"/><path d="m223.295 170.334c-2.364 6-3.433 8.134-4.279 10.266 3.254 3.955 4.012 6.356 4.012 9.867 0 3.733-1.783 5.644-6.242 5.644-.669 0-1.069-.355-1.204-1.066-.133-.711.268-1.156 1.116-1.156h-.356c1.917 0 2.675-.8 2.675-4.088s-.892-5.288-3.254-8.4c-.446-.533-.491-1.022-.223-1.645 1.427-3.244 2.987-6.8 4.056-10.534h-5.305v34.265c0 .8-.402 1.201-1.204 1.201h-1.515c-.802 0-1.204-.401-1.204-1.201v-35.198c0-.8.402-1.2 1.204-1.2h10.834c.802 0 1.204.4 1.204 1.2v.533c0 .533-.088.934-.312 1.511zm25.145 15.822c0 .8-.402 1.2-1.204 1.2h-6.109v12.4c0 2.044-.311 2 2.185 2 1.427 0 1.65 0 2.097-1.2.178-.489.356-2.445.446-5.645.044-.844.49-1.244 1.292-1.156l1.739.178c.758.088 1.116.489 1.116 1.289-.045 1.332-.045 2.133-.179 3.466-.133 1.733-.133 3.511-1.605 4.667-.534.445-1.427.489-2.006.623-.402.088-2.363.132-3.031.132-5.572 0-6.465-.533-6.465-3.244v-13.51h-2.585c-.088 9.288-2.987 13.6-12.127 17.067-.669.266-1.204.088-1.606-.533l-.133-.267c-.446-.711-.223-1.288.535-1.599 6.553-2.623 8.827-6.356 9.006-14.666h-4.147c-.802 0-1.204-.401-1.204-1.2 0-.756.402-1.156 1.204-1.156h21.579c.802 0 1.204.4 1.204 1.156zm.625-14.844v5.955c0 .8-.402 1.201-1.204 1.201h-2.051c-.802 0-1.204-.401-1.204-1.201v-4.889h-16.362v4.889c0 .8-.402 1.201-1.204 1.201h-1.917c-.803 0-1.204-.401-1.204-1.201v-5.955c0-.799.401-1.2 1.204-1.2h8.605v-3.733c0-.8.402-1.2 1.204-1.2h2.14c.803 0 1.204.4 1.204 1.2v3.733h9.587c.802 0 1.204.401 1.204 1.2zm-5.216 6.667c0 .755-.402 1.156-1.204 1.156h-12.35c-.803 0-1.204-.401-1.204-1.2 0-.712.401-1.066 1.204-1.066h12.35c.802 0 1.204.4 1.204 1.11z"/></g></svg>