<svg fill="none" height="240" viewBox="0 0 300 240" width="300" xmlns="http://www.w3.org/2000/svg" xmlns:xlink="http://www.w3.org/1999/xlink"><clipPath id="a"><path d="m90 32h120v176h-120z"/></clipPath><path d="m0 0h300v240h-300z" fill="#fff"/><g clip-path="url(#a)"><path d="m158.34 117.392c1.109-1.392 2.719-2.351 4.558-2.635v-79.9327c0-1.7702-1.447-2.8243-2.84-2.8243-.514 0-1.272.1486-1.962.8243l-40.257 40.1622c-.527.527-.825 1.2432-.825 1.9865 0 .7567.298 1.4594.825 1.9865l40.257 40.2165c.081.081.162.148.244.216z" fill="#00a89b"/><path d="m163.994 117.041c-2.692 0-4.897 2.189-4.897 4.891 0 2.703 2.191 4.892 4.897 4.892 2.705 0 4.897-2.189 4.897-4.892 0-2.702-2.192-4.891-4.897-4.891z" fill="#878787"/><path d="m202.885 76.9729c-.352-.8378-1.218-1.7297-2.598-1.7297h-35.035v38.7698l37.024-33.9725c.974-.973.96-2.2298.609-3.0676z" fill="#96d200"/><path d="m112.509 175.77c-1.15 0-2.286-.716-2.949-1.797l-9.388-19.959-3.7331 4.202v14.73c0 1.568-1.3798 2.824-3.1248 2.824s-3.1924-1.256-3.1924-2.824v-37.919c0-1.567 1.4474-2.77 3.1924-2.77s3.1248 1.203 3.1248 2.77v14.784c4.5181-5.527 9.0231-11.122 13.5411-16.581.541-.595 1.569-.96 2.462-.96 2.286 0 3.855 2.703 2.407 4.514l-10.172 12.378 10.592 22.662c.717 1.622-.487 3.973-2.773 3.973z" fill="#00a89b"/><path d="m123.75 175.405c-1.745 0-3.192-1.202-3.192-2.77v-37.324c0-1.5 1.447-2.703 3.192-2.703h8.658c6.98 0 12.634 5.473 12.634 12.257v18.216c0 6.797-5.654 12.324-12.634 12.324zm3.071-5.594h5.6c3.544 0 6.372-3 6.372-6.73v-18.216c0-3.73-2.828-6.73-6.372-6.73h-5.6z" fill="#00a89b"/><path d="m178.793 172.216c.365 1.622-.961 3.541-3.125 3.541-1.326 0-2.462-.784-2.881-1.987l-2.53-8.054h-12.147c-.839 2.77-1.57 5.351-2.408 8.054-.365 1.135-1.624 1.987-3.003 1.987-1.799 0-3.612-1.744-2.949-3.609v.054l11.43-37.986c.42-1.149 1.691-1.987 3.071-1.987s2.53.838 2.949 1.987l11.552 37.986h.054zm-10.173-12.014-4.396-16.581-4.518 16.581h8.901z" fill="#00a89b"/><path d="m203.764 174.203-13.838-27.771.541 26.5c0 1.568-1.38 2.825-3.125 2.825s-3.125-1.257-3.125-2.825v-37.919c0-1.567 1.569-2.77 3.125-2.77 1.15 0 2.286.716 2.773 1.568l13.838 27.648-.541-26.446c0-1.567 1.38-2.77 3.125-2.77s3.125 1.203 3.125 2.77v37.919c0 1.325-1.028 2.406-2.408 2.771l.122-.054c-.365.121-.541.121-.839.121-1.082 0-2.286-.662-2.773-1.567z" fill="#00a89b"/><g fill="#878787"><path d="m108.14 206.595v-19.649l-6.439 12.865c-.23.513-.703.784-1.258.784-.514 0-.9875-.271-1.258-.784l-6.3984-12.865v19.649c0 .784-.6223 1.419-1.4204 1.419s-1.3797-.622-1.3797-1.419v-25.581c.0405-.784.6222-1.419 1.3797-1.419.5141 0 1.0146.311 1.2581.784l7.8187 15.689 7.859-15.689c.23-.473.744-.784 1.258-.784.826 0 1.38.743 1.38 1.419v25.581c0 .784-.622 1.419-1.38 1.419-.784 0-1.42-.622-1.42-1.419z"/><path d="m117.014 200.189v-12.783c0-4.271 3.49-7.811 7.819-7.811 4.328 0 7.818 3.527 7.818 7.811v12.783c0 4.311-3.49 7.811-7.818 7.811-4.329 0-7.819-3.486-7.819-7.811zm2.787-12.783v12.783c0 2.744 2.232 5.027 5.032 5.027s5.032-2.27 5.032-5.027v-12.783c0-2.744-2.273-5.027-5.032-5.027-2.76 0-5.032 2.27-5.032 5.027z"/><path d="m154.525 199.567c0 4.514-3.693 8.203-8.211 8.203h-6.209c-.744 0-1.38-.621-1.38-1.419v-25.148c0-.744.622-1.379 1.38-1.379h6.209c3.774 0 7.183 3.135 7.183 7.135 0 2.311-1.096 4.392-2.787 5.69 2.273 1.486 3.815 4 3.815 6.905zm-13-16.945v8.783h4.789c2.435 0 4.396-2 4.396-4.432 0-2.433-1.961-4.351-4.396-4.351zm10.173 16.945c0-2.986-2.395-5.378-5.384-5.378h-4.789v10.743h4.789c2.989 0 5.384-2.392 5.384-5.378z"/><path d="m171.556 206.352c0 .783-.623 1.419-1.421 1.419h-9.82c-.785 0-1.421-.622-1.421-1.419 0-.798.622-1.419 1.421-1.419h3.53v-22.284h-3.53c-.785 0-1.421-.622-1.421-1.419s.622-1.419 1.421-1.419h9.82c.785 0 1.421.622 1.421 1.419s-.623 1.419-1.421 1.419h-3.49v22.284h3.49c.785 0 1.421.621 1.421 1.419z"/><path d="m191.387 206.122c0 .784-.623 1.405-1.421 1.405h-11.43c-.785 0-1.407-.621-1.407-1.405v-25.108c0-.784.622-1.419 1.407-1.419.784 0 1.38.621 1.38 1.419v23.689h10.05c.785 0 1.421.621 1.421 1.419z"/><path d="m210 206.351c0 .784-.622 1.419-1.42 1.419h-11.309c-.744 0-1.38-.621-1.38-1.419v-25.148c0-.744.622-1.379 1.38-1.379h11.187c.784 0 1.407.622 1.407 1.379 0 .783-.623 1.419-1.407 1.419h-9.78v8.702h8.644c.784 0 1.42.622 1.42 1.406 0 .783-.622 1.378-1.42 1.378h-8.644v10.824h9.902c.784 0 1.42.622 1.42 1.419z"/></g></g></svg>