<svg fill="none" height="240" viewBox="0 0 300 240" width="300" xmlns="http://www.w3.org/2000/svg" xmlns:xlink="http://www.w3.org/1999/xlink"><clipPath id="a"><path d="m12 99h276v41h-276z"/></clipPath><path d="m0 0h300v240h-300z" fill="#fff"/><g clip-path="url(#a)" fill="#524490"><path d="m175.673 112.601c-2.654 0-5.201 1.024-7.079 2.845-1.878 1.822-2.933 4.294-2.933 6.871 0 2.576 1.055 5.049 2.933 6.87 1.878 1.822 4.425 2.847 7.079 2.847 2.652-.014 5.191-1.042 7.064-2.862 1.875-1.819 2.935-4.283 2.949-6.855-.014-2.572-1.074-5.035-2.949-6.855-1.873-1.819-4.412-2.847-7.064-2.862zm0 15.005c-.714.004-1.421-.132-2.084-.394-.661-.264-1.262-.651-1.769-1.14-.506-.49-.909-1.071-1.183-1.713-.274-.64-.415-1.327-.415-2.021 0-.693.141-1.381.415-2.022.274-.642.676-1.224 1.183-1.715.505-.491 1.106-.879 1.768-1.143.661-.264 1.369-.4 2.084-.399.716 0 1.425.134 2.086.399.661.264 1.261.654 1.768 1.143.507.491.908 1.073 1.182 1.715.274.641.416 1.329.416 2.022 0 .694-.142 1.381-.416 2.021s-.675 1.222-1.182 1.713c-.506.489-1.107.878-1.768 1.14-.661.264-1.37.398-2.085.394zm23.152.14.411.444v3.109l-.411.431h-5.096c-1.892 0-2.749-.832-2.749-2.71v-18.785h-2.525l-.457-.389v-3.098l.457-.431h5.373c1.847 0 2.481.648 2.481 2.397v19.087l2.514-.053zm37.99 0v-14.282l-.455-.442h-3.671l-.411.442v1.64c-1.799-1.657-4.194-2.569-6.675-2.537-1.314-.03-2.622.201-3.839.682-1.22.48-2.324 1.197-3.245 2.108-.921.912-1.639 1.997-2.111 3.188-.471 1.19-.685 2.464-.628 3.739-.057 1.276.157 2.548.628 3.74.471 1.191 1.189 2.278 2.111 3.188.921.911 2.025 1.628 3.245 2.108 1.218.479 2.525.711 3.839.68 1.304.02 2.596-.235 3.788-.749 1.192-.515 2.253-1.277 3.109-2.23v.054c0 1.9.869 2.569 2.514 2.569h4.227l.455-.442v-3.109l-.455-.442-2.426.097zm-10.289-.054c-.724.013-1.442-.118-2.113-.382-.67-.264-1.28-.657-1.788-1.155-.51-.499-.912-1.091-1.179-1.744-.268-.652-.399-1.35-.381-2.051-.024-.708.1-1.412.365-2.071.264-.658.664-1.259 1.174-1.764s1.123-.904 1.797-1.173c.673-.268 1.398-.402 2.126-.391.726-.019 1.449.112 2.123.379.672.267 1.28.668 1.786 1.175.506.508.896 1.112 1.148 1.773s.361 1.367.316 2.072c.038.698-.075 1.398-.33 2.051-.255.654-.647 1.251-1.154 1.75-.505.499-1.111.891-1.781 1.151-.669.259-1.387.382-2.108.359v.021zm-13.973.076.412.442v3.087l-.412.431h-5.096c-1.891 0-2.747-.831-2.747-2.71v-18.785h-2.526l-.456-.388v-3.098l.456-.432h5.362c1.858 0 2.492.648 2.492 2.397v19.088zm-114.0509-17.662c-.0031-.447.085-.89.2629-1.305.1748-.412.4345-.788.762-1.103.329-.315.716-.563 1.144-.73.429-.168.885-.249 1.347-.243.458-.003.911.083 1.335.252.423.169.807.417 1.13.732.323.314.578.689.751 1.1s.26.852.255 1.295c.005.444-.082.884-.255 1.296-.173.411-.428.785-.751 1.1-.323.314-.709.563-1.13.732-.424.169-.877.255-1.335.252-.463.007-.923-.076-1.351-.244-.43-.169-.8189-.419-1.1479-.736-.3274-.317-.5872-.695-.7604-1.111-.1747-.416-.2629-.861-.255-1.31v.021zm8.9659 17.662.412.486v3.045l-.412.431h-9.8128l-.4896-.431v-3.013l.4896-.486h2.6038v-8.14h-1.6907l-.5007-.431v-3.055l.5007-.442h6.5187l.4.442v11.627l1.981-.032zm-24.6205-21.385h-14.0505l-.2881.27v3.163l.2881.281h3.4367v19.842h-2.4921l-.2881.345v3.238l.2786.27h10.8909l.2787-.27v-3.238l-.2787-.28h-3.0919v-5.183h5.373c6.675 0 10.7571-3.54 10.7571-9.252s-4.1718-9.209-10.8137-9.209v.021zm-.1779 14.823h-5.1401v-11.066h5.1952c.7478 0 1.4861.145 2.1741.428.6863.282 1.3082.696 1.8277 1.217.5179.52.9241 1.137 1.1933 1.814.2676.676.3936 1.398.3684 2.122.0598.732-.0441 1.467-.3038 2.155-.2598.687-.6723 1.313-1.2059 1.833-.5337.519-1.1776.92-1.886 1.174-.7085.255-1.4673.356-2.2198.3v.021zm178.7964-8.226c-1.768 0-2.425.583-2.493 2.159-1.799-1.655-4.193-2.566-6.675-2.536-1.314-.031-2.621.201-3.839.681-1.219.48-2.322 1.197-3.245 2.109-.921.911-1.639 1.996-2.111 3.187-.471 1.191-.685 2.464-.628 3.74-.057 1.275.157 2.547.628 3.74.471 1.19 1.19 2.275 2.111 3.187s2.026 1.628 3.245 2.108c1.218.481 2.525.713 3.839.682 2.214.031 4.36-.738 6.019-2.159v.917c0 3.465-2.224 4.988-5.417 4.988-1.149.043-2.294-.161-3.352-.597s-2.002-1.094-2.767-1.929h-.655l-2.348 2.526v.594c1.214 1.209 2.677 2.154 4.292 2.779 1.617.623 3.35.908 5.086.838 5.562 0 9.835-2.687 10.224-8.324v-14.726h2.158l.455-.442v-3.088l-.455-.452-4.072.021zm-8.232 14.714c-.725.012-1.442-.118-2.113-.382s-1.278-.657-1.788-1.156c-.511-.498-.912-1.091-1.18-1.743-.267-.652-.398-1.351-.381-2.052-.025-.707.1-1.412.366-2.07.264-.658.664-1.26 1.174-1.765s1.123-.904 1.796-1.172c.674-.269 1.398-.402 2.127-.392.727-.018 1.45.112 2.122.379.674.268 1.282.668 1.787 1.176s.896 1.111 1.148 1.772c.252.662.36 1.368.316 2.072.038.698-.075 1.398-.33 2.052s-.649 1.251-1.154 1.749c-.506.499-1.112.892-1.781 1.151-.669.26-1.388.382-2.108.359v.022zm-123.539.572v.583c-1.067 1.078-2.358 1.925-3.788 2.482-1.428.559-2.963.816-4.502.756-1.345.047-2.684-.17-3.941-.638-1.256-.468-2.402-1.175-3.37-2.082-.967-.907-1.737-1.994-2.262-3.195-.526-1.202-.795-2.494-.795-3.8 0-5.56 4.448-9.716 10.912-9.716 2.458-.006 4.87.64 6.976 1.868l.367.583v5.204l-.411.399h-3.515l-.444-.399v-2.721c-.943-.388-1.959-.583-2.982-.572-.729-.031-1.458.083-2.139.336-.682.253-1.304.64-1.825 1.135-.521.496-.932 1.091-1.207 1.748-.276.657-.408 1.361-.391 2.07-.028.708.095 1.414.361 2.074.267.66.67 1.258 1.187 1.758.514.501 1.132.894 1.812 1.151.678.258 1.405.378 2.134.35.858.016 1.712-.135 2.51-.44.798-.306 1.525-.761 2.142-1.341h.58l2.593 2.407zm32.506.163c-.013.15-.013.302 0 .453-1.496 1.686-3.358 3.031-5.454 3.938-2.093.906-4.368 1.353-6.66 1.309-2.472.05-4.922-.478-7.138-1.538-2.218-1.062-4.139-2.627-5.601-4.563-1.42-2.001-2.296-4.318-2.544-6.736-.249-2.419.135-4.859 1.12-7.093.786-2.072 2.112-3.911 3.85-5.336 1.738-1.426 3.827-2.388 6.062-2.795.901-.182 1.817-.273 2.736-.27 1.452-.06 2.898.16 4.262.645 1.363.485 2.615 1.227 3.68 2.183l.378.367v-2.332l.378-.399h3.693l.413.409v9.932l-.367.356h-3.726l-.413-.356c0-4.706-4.072-6.379-7.52-6.379-.831 0-1.661.094-2.47.281-1.272.291-2.453.876-3.442 1.705-.988.828-1.758 1.877-2.241 3.055-.699 1.578-1.017 3.29-.929 5.006.086 1.716.576 3.39 1.431 4.894.911 1.449 2.198 2.638 3.734 3.448 1.535.81 3.264 1.216 5.011 1.173 1.577.013 3.139-.313 4.57-.958s2.698-1.59 3.706-2.768c.14.01.282.01.422 0l3.06 2.364zm125.709-.27-2.347-2.256h-.667c-.674.645-1.476 1.151-2.359 1.484-.881.335-1.824.49-2.77.459-1.088.084-2.176-.151-3.124-.674s-1.713-1.312-2.193-2.262c7.097-.259 12.604-2.159 12.604-7.007 0-3.508-3.105-5.689-7.553-5.689-6.899 0-11.126 4.761-11.126 10.138s4.049 9.716 11.126 9.716c1.575.044 3.142-.228 4.604-.797 1.463-.571 2.788-1.427 3.893-2.517l-.088-.594zm-8.589-12.08c1.581 0 2.914.799 2.914 2.159 0 2.483-3.937 3.325-8.466 3.433.012-3.249 2.136-5.614 5.561-5.614l-.011.022z"/><path d="m44.5861 139.064h-20.8703v-27.387h29.2014c.0598 0 .1212-.003.181-.003v19.092c-.0094.036-.0189.072-.0252.109-.0362.296-.0582.596-.1086.89-.1669.973-.4943 1.888-.9871 2.747-.9272 1.616-2.2402 2.839-3.9435 3.657-.8895.428-1.8278.703-2.8117.818-.2141.028-.4251.052-.6344.075zm1.9694-13.769c0-4.528-3.772-8.204-8.4256-8.21-4.6425-.006-8.4161 3.666-8.4287 8.207-.0126 4.524 3.7972 8.235 8.4335 8.22 4.6614-.022 8.4224-3.689 8.4224-8.217z"/><path d="m20.5121 139.064c-.2109-.025-.4203-.048-.6313-.074-.9949-.115-1.9426-.394-2.8384-.83-1.6892-.821-2.9958-2.035-3.9152-3.64-.4991-.867-.8265-1.794-.9981-2.772-.0929-.531-.1307-1.065-.1307-1.603.0032-6.093 0-12.187 0-18.279v-.178h9.3024c.0032.043.0063.084.0063.13v27.148c0 .033-.0047.066-.0047.099h-.7918z"/><path d="m53.0967 109.325c-.0489.006-.1024.012-.1512.012h-13.6049v-10.3324h.1306c1.5365 0 3.0762-.0122 4.6127.0031 2.6369.0246 4.8582.9868 6.6482 2.8683 1.209 1.271 1.9489 2.778 2.237 4.49.0504.29.0677.586.1055.879.0063.045.0158.088.0252.134v1.947z"/><path d="m12.0252 109.349c0-.718-.0189-1.425.0063-2.131.0284-.834.222-1.639.5211-2.419.5998-1.579 1.5822-2.889 2.9455-3.928 1.1162-.849 2.3693-1.4046 3.7547-1.6792.6155-.1243 1.2421-.1689 1.8702-.1689h15.7885v10.3261z"/><path d="m44.1452 125.283c.0032 3.233-2.6983 5.867-6.0184 5.867-3.3202 0-6.0217-2.634-6.0185-5.867.0031-3.23 2.6983-5.858 6.0122-5.861 3.3185-.003 6.0184 2.628 6.0247 5.861z"/></g></svg>