<svg fill="none" height="240" viewBox="0 0 300 240" width="300" xmlns="http://www.w3.org/2000/svg" xmlns:xlink="http://www.w3.org/1999/xlink"><clipPath id="a"><path d="m43 30h215v181h-215z"/></clipPath><path d="m0 0h300v240h-300z" fill="#fff"/><g clip-path="url(#a)" fill="#040000"><path d="m192.812 137.903h-84.607c-6.312 0-11.455-5.163-11.455-11.499v-84.9059c0-6.336 5.143-11.4981 11.455-11.4981h84.607c6.312 0 11.438 5.1448 11.438 11.4981v84.9239c0 6.336-5.126 11.498-11.438 11.498zm-84.607-104.6228c-4.506 0-8.17 3.6774-8.17 8.2006v84.9232c0 4.524 3.664 8.201 8.17 8.201h84.607c4.506 0 8.17-3.677 8.17-8.201v-84.9059c0-4.5233-3.664-8.2006-8.17-8.2006h-84.607z"/><path d="m119.23 59.5396h-6.948v6.9748h6.948z"/><path d="m119.23 45.5898h-6.948v6.9749h6.948z"/><path d="m133.128 59.5396h-6.949v6.9748h6.949z"/><path d="m133.128 45.5898h-6.949v6.9749h6.949z"/><path d="m147.026 115.338h-6.949v6.975h6.949z"/><path d="m147.026 101.388h-6.949v6.975h6.949z"/><path d="m147.026 87.4385h-6.949v6.9748h6.949z"/><path d="m147.026 73.4893h-6.949v6.9748h6.949z"/><path d="m147.026 59.5396h-6.949v6.9748h6.949z"/><path d="m147.026 45.5898h-6.949v6.9749h6.949z"/><path d="m160.923 115.338h-6.949v6.975h6.949z"/><path d="m160.923 101.388h-6.949v6.975h6.949z"/><path d="m160.923 87.4385h-6.949v6.9748h6.949z"/><path d="m160.923 73.4893h-6.949v6.9748h6.949z"/><path d="m160.923 59.5396h-6.949v6.9748h6.949z"/><path d="m160.923 45.5898h-6.949v6.9749h6.949z"/><path d="m174.821 59.5396h-6.949v6.9748h6.949z"/><path d="m174.821 45.5898h-6.949v6.9749h6.949z"/><path d="m188.718 59.5396h-6.948v6.9748h6.948z"/><path d="m188.718 45.5898h-6.948v6.9749h6.948z"/><path d="m100.465 211h2.632v-5.956h18.129v5.956h2.631v-20.01h-23.392zm2.632-15.693h18.129v5.421h-18.129zm-60.097 0h9.6664v15.693h2.6316v-15.693h9.6664v-4.317h-21.9644zm31.82 0h9.6664v15.693h2.6316v-15.693h9.6664v-4.317h-21.9472v4.317zm-6.3296 15.693h2.6316v-20.01h-2.6316zm86.4296-7.786h20.279v3.487h-20.279v4.316h22.911v-12.102h-20.279v-3.591h20.279v-4.316h-22.911v12.223zm26.918 7.786h23.392v-20.01h-23.392zm2.632-15.693h18.129v11.394h-18.129zm-56.949 15.693h2.631v-15.693h18.129v15.693h2.632v-20.01h-23.392zm108.532-20.01v4.317h9.666v15.693h2.632v-15.693h9.666v-4.317h-21.947zm-26.97 20.01h2.632v-7.855h20.279v-4.317h-20.279v-3.539h20.279v-4.316h-22.911v20.01z"/><path d="m80.8056 162.228c-.0172 4.195-.1204 8.304-.2924 12.31-.172 4.005-.3612 6.318-.5504 6.94-.2064.621-.5504 1.122-1.0664 1.467-.516.363-1.3244.535-2.4252.535-.5504 0-1.1008-.017-1.6512-.069l-.6536-2.555c.7224.052 1.3072.087 1.7544.087 1.118 0 1.7544-.363 1.9436-1.088.172-.725.3612-5.784.5676-15.141h-3.526c-.2408 8.183-1.6512 13.967-4.1624 18.922l-2.0124-1.537c2.3736-4.471 3.7668-10.307 3.8012-17.368h-3.1648v-2.486h3.2336v-4.022h2.3392v4.022h5.8652zm10.6984 21.287h-2.3392v-2.02h-4.3172v2.003h-2.3048v-23.1h8.9612v23.134zm-2.3392-4.592v-15.987h-4.3172v15.987z"/><path d="m103.286 168.063h-2.614v7.079c.825-.415 1.565-.812 2.218-1.191l.052 2.641c-2.184 1.347-4.5752 2.555-7.1552 3.591l-.602-2.434c1.3932-.605 2.4424-1.053 3.1476-1.381v-8.305h-2.666v-2.486h2.666v-7.406h2.3396v7.406h2.614zm15.188 13.777-1.48 2.003c-2.27-1.243-4.128-2.59-5.59-4.005-1.616 1.519-3.508 2.779-5.658 3.815l-1.669-2.037c2.511-1.122 4.421-2.313 5.728-3.591-1.479-1.934-2.632-3.936-3.303-6.958-.172 5.542-1.634 9.444-4.368 12.672l-1.978-1.536c1.307-1.485 2.304-3.194 2.992-5.093s1.032-4.144 1.032-7.631v-8.632h5.883v-2.624h2.322v2.624h5.985c-.378 2.451-.825 4.886-2.012 6.75l-2.098-1.018c1.1-1.796 1.152-2.296 1.307-3.263h-3.182v5.3h4.85c-.447 4.074-2.115 6.906-4.162 9.443 1.204 1.295 3.027 2.573 5.435 3.816zm-8.446-13.259v-5.3h-3.508v5.3zm4.455 2.469h-5.624c.653 2.348 1.513 3.764 2.597 5.179 1.118-1.432 2.425-2.831 3.027-5.179z"/><path d="m165.98 163.074-1.324 2.055c-1.187-1.364-2.58-2.642-4.214-3.85-.878 1.295-1.91 2.538-3.079 3.729h6.777v2.382h-2.735v2.158h3.818v2.348h-3.818v7.286c.997-.225 2.133-.57 3.388-1.036l.207 2.4c-3.286 1.157-6.468 2.054-9.564 2.71l-.447-2.33c1.153-.242 2.546-.587 4.163-1.054v-7.993h-3.733v-2.348h3.733v-2.158h-2.477v-1.744c-.327.328-.688.622-1.084.898l-.843-2.469c1.91-1.588 3.561-3.591 4.937-6.008l2.373.57c-.103.242-.223.466-.378.673 1.858 1.381 3.285 2.642 4.3 3.747zm-7.706 15.97-1.943.518c-.207-1.968-.551-3.902-1.032-5.801l1.926-.553c.585 2.262.929 4.196 1.032 5.836zm6.777-5.231c-.275 1.795-.671 3.228-1.169 4.299l-1.789-.605c.516-1.674.86-3.159 1.066-4.419zm13.296 8.045-1.634 2.003c-2.752-4.23-4.472-8.097-5.143-11.619-.464 1.951-1.101 3.642-1.617 4.937 1.239 1.261 2.408 2.607 3.475 4.04l-1.703 1.658c-.688-1.071-1.6-2.228-2.735-3.505-.757 1.467-1.737 2.952-2.907 4.489l-1.634-1.83c3.285-4.144 5.16-8.943 5.59-14.416h-4.472v-2.521h4.558c.069-1.882.138-4.178.172-6.888h2.305c0 3.366-.034 5.662-.069 6.888h5.504v2.521h-5.229c.706 5.127 2.563 9.875 5.556 14.243z"/><path d="m190.077 177.611c-2.201 1.294-4.816 2.589-7.877 3.884l-.688-2.434c1.118-.432 2.184-.881 3.216-1.381v-9.634h-2.855v-2.486h2.855v-7.337h2.356v7.337h2.752v2.486h-2.752v8.408c.602-.242 1.6-.742 2.993-1.537v2.711zm15.136 5.213h-15.635v-2.434h15.635zm-1.376-6.008h-12.59v-17.972h12.59zm-2.373-10.375v-5.145h-7.809v5.145zm0 7.976v-5.542h-7.809v5.542z"/><path d="m219.472 160.156c-1.204.449-2.511.795-3.922 1.036v3.747h3.337v2.434h-3.337v.811c1.394 1.589 2.563 3.229 3.544 4.921l-1.652 1.916c-.619-1.381-1.255-2.555-1.892-3.522v11.982h-2.304v-11.481c-1.239 2.641-2.426 4.558-3.578 5.783l-1.342-2.296c1.841-2.037 3.44-4.747 4.799-8.114h-4.541v-2.434h4.662v-3.35c-1.118.19-2.305.328-3.526.415l-.998-2.348c3.371-.173 6.57-.743 9.615-1.692l1.135 2.175zm12.178 16.505-2.46.415v6.474h-2.339l-.155-6.129-8.29 1.277-.052-2.589 8.497-1.312v-16.522h2.339v16.194l2.374-.328.068 2.52zm-5.969-5.628-1.599 1.934c-1.118-1.554-2.77-3.229-4.954-4.99l1.548-1.882c2.133 1.727 3.801 3.367 5.005 4.921zm.379-7.027-1.6 1.882c-1.479-1.83-3.044-3.418-4.678-4.765l1.634-1.83c1.771 1.502 3.319 3.073 4.626 4.696z"/><path d="m243.191 171.137c-.998.518-1.927.932-2.752 1.277v8.408c0 .829-.189 1.467-.551 1.934-.378.448-.997.69-1.857.707-.877 0-1.617 0-2.253-.017l-.74-2.52c.929.034 1.737.051 2.408.051.172 0 .327-.086.464-.241.155-.173.224-.346.224-.553v-6.785c-.98.38-1.978.708-3.027 1.002l-.637-2.383c1.652-.552 2.873-.984 3.664-1.329v-5.369h-3.371v-2.469h3.371v-4.696h2.305v4.696h2.425v2.469h-2.425v4.367c.688-.241 1.445-.587 2.27-1.053l.482 2.521zm14.757 10.462-1.358 2.175c-2.494-1.191-4.558-2.538-6.192-4.005-1.892 1.554-4.163 2.9-6.794 4.005l-1.308-2.331c2.546-.949 4.696-2.089 6.45-3.418-1.479-1.778-3.491-4.264-4.523-7.475v-2.435h5.108v-3.763h-5.607v-2.435h5.607v-3.677h2.374v3.677h5.555v2.435h-5.555v3.763h4.902v2.435c-1.239 3.245-2.701 5.766-4.421 7.527 1.462 1.329 3.389 2.486 5.78 3.505zm-3.956-11.049h-7.224c.654 2.158 2.374 4.091 3.75 5.8 1.445-1.588 2.597-3.521 3.457-5.8z"/><path d="m138.959 174.071h-11.421v6.319h11.421zm-2.288 4.075h-6.845v-1.917h6.845z"/><path d="m139.131 163.247h5.641v-2.434h-10.406v-2.573h-2.322v2.573h-10.474v2.434h5.538l1.015 2.469h-5.367v17.817h2.322v-15.504h4.352c0 1.934-1.307 3.125-3.87 3.574l1.135 2.175c3.303-.742 4.954-2.641 4.954-5.732h3.027v2.745c0 .449.172.846.516 1.226s.722.57 1.118.57h4.988v7.907c0 .259-.086.432-.258.518s-.774.138-1.806.138c-.378 0-.791 0-1.256-.034l.74 2.399c.654.052 1.187.069 1.634.069.843 0 1.445-.086 1.806-.241.361-.156.688-.449.98-.864.293-.414.43-.915.43-1.484v-15.279h-5.366l.396-1.053.516-1.416zm2.167 7.165h-3.973s-.172-.052-.258-.173c-.103-.121-.138-.207-.138-.294v-1.916h4.369zm-10.853-4.696-.946-2.469h7.31l-.963 2.469z"/><path d="m55.642 171.447h-4.9536v-2.279h4.5408v-2.313h-2.4768l.774-3.556h1.548v-2.452h-4.3344v-2.59h-2.2876v2.59h-4.6096v2.452h1.5652l.8772 3.556h-2.5284v2.313h4.6096v2.279h-4.8848v2.4h5.0052v9.668h2.2016v-9.702h4.9536v-2.383zm-7.2412-4.609-.8084-3.557h3.8356l-.8256 3.557z"/><path d="m59.1164 166.821v-4.23c2.5628-.553 4.816-1.278 6.7252-2.193l-1.6168-2.158c-2.0296.984-4.5064 1.709-7.482 2.158v9.72c0 5.231-.86 9.133-2.58 11.671l1.9264 1.726c1.9608-2.866 2.9756-7.855 3.0272-14.45h2.6832v14.433h2.3048v-14.433h2.408v-2.227h-7.3788z"/><path d="m53.1996 174.624-1.9264.967c.7224 1.346 1.2728 2.745 1.6684 4.23l1.8748-1.157c-.2924-1.226-.8256-2.573-1.6168-4.04z"/><path d="m43.1204 180.062 1.8748 1.537c.86-1.33 1.7028-3.211 2.5284-5.646l-2.0124-1.036c-.688 2.055-1.4964 3.764-2.3908 5.145z"/></g></svg>