<svg width="1321" height="283" viewBox="0 0 1321 283" fill="none" xmlns="http://www.w3.org/2000/svg">
<path d="M372 242C384.15 242 394 198.124 394 144C394 89.8761 384.15 46 372 46C359.85 46 350 89.8761 350 144C350 198.124 359.85 242 372 242Z" stroke="#00FFCC" stroke-width="2" stroke-linecap="round" stroke-linejoin="round"/>
<path d="M440 222C449.941 222 458 187.078 458 144C458 100.922 449.941 66 440 66C430.059 66 422 100.922 422 144C422 187.078 430.059 222 440 222Z" stroke="white" stroke-width="1.2" stroke-linecap="round" stroke-linejoin="round"/>
<path d="M499 203C506.18 203 512 176.809 512 144.5C512 112.191 506.18 86 499 86C491.82 86 486 112.191 486 144.5C486 176.809 491.82 203 499 203Z" stroke="#00FFCC" stroke-width="2" stroke-linecap="round" stroke-linejoin="round"/>
<path d="M548.5 183C553.194 183 557 165.763 557 144.5C557 123.237 553.194 106 548.5 106C543.806 106 540 123.237 540 144.5C540 165.763 543.806 183 548.5 183Z" stroke="#00FFCC" stroke-width="2" stroke-linecap="round" stroke-linejoin="round"/>
<path d="M588.5 171C591.538 171 594 159.136 594 144.5C594 129.864 591.538 118 588.5 118C585.462 118 583 129.864 583 144.5C583 159.136 585.462 171 588.5 171Z" stroke="white" stroke-width="1.2" stroke-linecap="round" stroke-linejoin="round"/>
<path d="M631.5 183C636.194 183 640 165.763 640 144.5C640 123.237 636.194 106 631.5 106C626.806 106 623 123.237 623 144.5C623 165.763 626.806 183 631.5 183Z" stroke="#00FFCC" stroke-width="2" stroke-linecap="round" stroke-linejoin="round"/>
<path d="M681 203C688.18 203 694 176.809 694 144.5C694 112.191 688.18 86 681 86C673.82 86 668 112.191 668 144.5C668 176.809 673.82 203 681 203Z" stroke="#00FFCC" stroke-width="2" stroke-linecap="round" stroke-linejoin="round"/>
<path d="M740 222C749.389 222 757 187.078 757 144C757 100.922 749.389 66 740 66C730.611 66 723 100.922 723 144C723 187.078 730.611 222 740 222Z" stroke="#00FFCC" stroke-width="2" stroke-linecap="round" stroke-linejoin="round"/>
<path d="M807.5 242C819.374 242 829 198.124 829 144C829 89.8761 819.374 46 807.5 46C795.626 46 786 89.8761 786 144C786 198.124 795.626 242 807.5 242Z" stroke="white" stroke-width="1.2" stroke-linecap="round" stroke-linejoin="round"/>
<path d="M868 144H310" stroke="#00FFCC" stroke-width="2" stroke-linecap="round" stroke-linejoin="round"/>
<path d="M25 1H0V282H25V1Z" fill="#00FFCC"/>
<path d="M1320 89.3839H950.865L859.4 1H1V282H1290.79C1302.2 270.539 1308.6 264.112 1320 252.651V89.3912V89.3839Z" stroke="#00FFCC" stroke-width="1.2" stroke-linecap="round" stroke-linejoin="round"/>
<mask id="mask0_316_11605" style="mask-type:luminance" maskUnits="userSpaceOnUse" x="891" y="1" width="429" height="68">
<path d="M891.602 1.45117H1320V68.6763H960.418L891.602 1.45117Z" fill="white"/>
</mask>
<g mask="url(#mask0_316_11605)">
<path d="M1020.74 79.7094H1003.25L1077.83 -14.4102H1095.32L1020.74 79.7094Z" fill="#00FFCC"/>
<path d="M1055.71 79.7094H1038.22L1112.81 -14.4102H1130.29L1055.71 79.7094Z" fill="#00FFCC"/>
<path d="M1090.67 79.7094H1073.19L1147.77 -14.4102H1165.26L1090.67 79.7094Z" fill="#00FFCC"/>
<path d="M1125.64 79.7094H1108.16L1182.74 -14.4102H1200.22L1125.64 79.7094Z" fill="#00FFCC"/>
<path d="M1160.61 79.7094H1143.12L1217.71 -14.4102H1235.19L1160.61 79.7094Z" fill="#00FFCC"/>
<path d="M1195.58 79.7094H1178.1L1252.68 -14.4102H1270.17L1195.58 79.7094Z" fill="#00FFCC"/>
<path d="M1230.55 79.7094H1213.07L1287.66 -14.4102H1305.14L1230.55 79.7094Z" fill="#00FFCC"/>
<path d="M845.893 79.7094H828.406L902.988 -14.4102H920.475L845.893 79.7094Z" fill="#00FFCC"/>
<path d="M880.858 79.7094H863.371L937.96 -14.4102H955.44L880.858 79.7094Z" fill="#00FFCC"/>
<path d="M915.823 79.7094H898.344L972.926 -14.4102H990.412L915.823 79.7094Z" fill="#00FFCC"/>
<path d="M950.799 79.7094H933.312L1007.89 -14.4102H1025.38L950.799 79.7094Z" fill="#00FFCC"/>
<path d="M985.764 79.7094H968.277L1042.87 -14.4102H1060.35L985.764 79.7094Z" fill="#00FFCC"/>
<path d="M1265.52 79.7094H1248.04L1322.62 -14.4102H1340.11L1265.52 79.7094Z" fill="#00FFCC"/>
<path d="M1345.35 1.0332L1283 79.7094H1300.49L1345.35 23.0961V1.0332Z" fill="#00FFCC"/>
<path d="M1345.36 45.166L1317.97 79.7091H1335.46L1345.36 67.2289V45.166Z" fill="#00FFCC"/>
</g>
<path d="M1300 99H1312" stroke="#00FFCC" stroke-width="1.2" stroke-linecap="round" stroke-linejoin="round"/>
<path d="M1300 109H1312" stroke="#00FFCC" stroke-width="1.2" stroke-linecap="round" stroke-linejoin="round"/>
<path d="M1300 120H1312" stroke="#00FFCC" stroke-width="1.2" stroke-linecap="round" stroke-linejoin="round"/>
<path d="M1300 131H1312" stroke="#00FFCC" stroke-width="1.2" stroke-linecap="round" stroke-linejoin="round"/>
<path d="M1300 143H1312" stroke="#00FFCC" stroke-width="1.2" stroke-linecap="round" stroke-linejoin="round"/>
<path d="M1300 154H1312" stroke="#00FFCC" stroke-width="1.2" stroke-linecap="round" stroke-linejoin="round"/>
<path d="M1300 165H1312" stroke="#00FFCC" stroke-width="1.2" stroke-linecap="round" stroke-linejoin="round"/>
<path d="M1300 175H1312" stroke="#00FFCC" stroke-width="1.2" stroke-linecap="round" stroke-linejoin="round"/>
<path d="M931 149H901V164H924.421C926.994 161.269 928.434 159.74 931 157.017V149Z" stroke="white" stroke-width="1.5" stroke-linecap="round" stroke-linejoin="round"/>
<path d="M941 199H901V214H934.246C936.887 211.362 938.366 209.884 941 207.253V199Z" stroke="white" stroke-width="1.5" stroke-linecap="round" stroke-linejoin="round"/>
<path d="M981.166 172.498V165.589H995.625C993.502 173.261 990.638 181.314 988.268 186.594C991.881 187.981 997.994 190.995 1000.99 192.763C1004.12 186.015 1007.6 177.441 1010.53 168.354C1012.69 161.658 1009.32 154.419 1002.84 151.8C1001.12 151.103 999.288 150.751 997.435 150.751H963.713C965.618 145.141 967.391 136.853 968.082 131H950.491C946.543 153.883 940.001 168.574 931.177 182.282C934.717 185.685 940.576 189.88 944.007 191.765C948.993 184.724 953.733 175.791 957.6 165.596H965.211V180.441C965.211 196.672 961.416 220.677 928 236.145C930.624 240.48 934.208 246.626 936.956 250C957.527 240.062 968.336 225.474 973.577 212.015C980.309 228.371 992.041 240.905 1008 248.071C1010.74 243.978 1013.61 238.434 1016 234.099C1001.79 228.73 992.593 218.748 986.495 205.568C981.712 195.234 981.174 183.91 981.174 172.505L981.166 172.498Z" stroke="white" stroke-width="1.5" stroke-linecap="round" stroke-linejoin="round"/>
<path d="M1076.15 195.425V175.905H1059.23V225.249C1059.23 229.294 1062.49 232.578 1066.5 232.578H1139.99V240.286C1137.39 242.912 1135.93 244.382 1133.33 247H1062.56C1052.2 247 1043.8 238.531 1043.8 228.094V175.897H1027V161.468H1043.8V135H1059.23V161.468H1076.16V135H1090.85V161.468H1108.02V135H1123.57V161.468H1140V169.176C1137.4 171.802 1135.94 173.272 1133.34 175.89H1123.57V195.41C1123.57 208.611 1112.96 219.311 1099.86 219.311C1086.77 219.311 1076.15 208.611 1076.15 195.41V195.425ZM1090.84 175.905V196.997C1090.84 201.78 1094.68 205.656 1099.43 205.656C1104.17 205.656 1108.02 201.78 1108.02 196.997V175.905H1090.85H1090.84Z" stroke="white" stroke-width="1.5" stroke-linecap="round" stroke-linejoin="round"/>
<path d="M1256.02 212.317C1255.03 226.251 1253.37 230.035 1250.49 229.786C1240.5 228.527 1233.88 209.954 1230.37 182.086L1262.1 177.688C1263.82 175.712 1264.9 174.46 1266.62 172.484V163L1228.88 167.647C1228 156.977 1227.5 145.18 1227.25 132.878H1212.13C1212.51 146.058 1213.26 162.18 1214.13 169.66C1200.84 171.789 1194.07 172.675 1187.74 177.263V161.266C1192.24 153.611 1196.11 144.302 1199.36 136.647L1185.12 132C1177.62 150.954 1164.5 169.403 1151 180.952C1153.24 185.503 1156.76 192.478 1159.25 196.137C1163.74 192.119 1168 187.348 1172.25 182.079V247.979H1181.07C1183.68 245.367 1185.15 243.896 1187.76 241.276L1187.85 207.187C1187.85 194.051 1197.46 187.706 1203.36 186.338C1209.26 184.969 1215.62 184.091 1215.62 184.091C1220.12 222.38 1230 245.974 1251.11 247.986C1258.12 248.36 1265.88 241.1 1269 216.877C1266.25 215.369 1261.44 213.708 1256.02 212.317H1256.02Z" stroke="white" stroke-width="1.5" stroke-linecap="round" stroke-linejoin="round"/>
<path d="M1247.36 130.007L1235 137.869C1238.73 143.831 1245.86 152.913 1252.68 159L1265 151.315C1258.3 144.844 1250.58 135.969 1247.36 130V130.007Z" stroke="white" stroke-width="1.5" stroke-linecap="round" stroke-linejoin="round"/>
<path opacity="0.15" d="M931 157.017V149H901V164H924.421C926.994 161.269 928.434 159.74 931 157.017Z" fill="white"/>
<path opacity="0.15" d="M941 207.253V199H901V214H934.246L941 207.253Z" fill="white"/>
<path opacity="0.15" d="M986.492 205.561C981.709 195.227 981.171 183.903 981.171 172.498V165.589H995.63C993.508 173.261 990.643 181.314 988.273 186.594C991.886 187.981 998 190.995 1001 192.763C1004.12 186.015 1007.61 177.441 1010.53 168.354C1012.69 161.658 1009.33 154.419 1002.85 151.8C1001.13 151.103 999.294 150.751 997.44 150.751H963.716C965.621 145.141 967.395 136.853 968.085 131H950.492C946.545 153.883 940.002 168.574 931.177 182.282C934.717 185.685 940.577 189.88 944.008 191.765C948.995 184.724 953.735 175.791 957.602 165.596H965.214V180.441C965.214 196.672 961.419 220.677 928 236.145C930.624 240.48 934.208 246.626 936.956 250C957.53 240.062 968.34 225.474 973.581 212.015C980.313 228.371 992.046 240.905 1008 248.071C1010.75 243.978 1013.62 238.434 1016 234.099C1001.79 228.73 992.591 218.748 986.492 205.568V205.561Z" fill="white"/>
<path opacity="0.15" d="M1123.57 135H1108.02V161.47H1090.85V135H1076.16V161.47H1059.23V135H1043.8V161.47H1027V175.9H1043.8V228.093C1043.8 238.538 1052.2 247 1062.56 247H1133.33C1135.94 244.374 1137.4 242.904 1139.99 240.286V232.577H1066.5C1062.49 232.577 1059.23 229.293 1059.23 225.248V175.9H1076.15V195.421C1076.15 208.623 1086.77 219.324 1099.86 219.324C1112.96 219.324 1123.57 208.623 1123.57 195.421V175.9H1133.34C1135.94 173.274 1137.4 171.804 1140 169.186V161.477H1123.57V135.007V135ZM1108.02 196.987C1108.02 201.77 1104.17 205.646 1099.43 205.646C1094.68 205.646 1090.85 201.77 1090.85 196.987V175.893H1108.02V196.987Z" fill="white"/>
<path opacity="0.15" d="M1256.02 212.317C1255.03 226.251 1253.37 230.035 1250.49 229.786C1240.5 228.527 1233.88 209.954 1230.37 182.086L1262.1 177.688C1263.81 175.712 1264.9 174.46 1266.62 172.484V163L1228.88 167.647C1228 156.977 1227.5 145.18 1227.25 132.878H1212.13C1212.51 146.058 1213.26 162.18 1214.13 169.66C1200.84 171.789 1194.07 172.675 1187.74 177.263V161.266C1192.24 153.611 1196.11 144.302 1199.36 136.647L1185.12 132C1177.62 150.954 1164.5 169.403 1151 180.952C1153.24 185.503 1156.76 192.478 1159.25 196.137C1163.74 192.119 1168 187.348 1172.25 182.079V247.979H1181.07C1183.68 245.367 1185.15 243.896 1187.76 241.276L1187.85 207.187C1187.85 194.051 1197.46 187.706 1203.36 186.338C1209.26 184.969 1215.62 184.091 1215.62 184.091C1220.12 222.38 1230 245.974 1251.11 247.986C1258.12 248.36 1265.88 241.1 1269 216.877C1266.25 215.369 1261.44 213.708 1256.02 212.317H1256.02Z" fill="white"/>
<path opacity="0.15" d="M1252.68 159L1265 151.315C1258.3 144.844 1250.58 135.969 1247.36 130L1235 137.862C1238.73 143.823 1245.86 152.906 1252.68 158.993V159Z" fill="white"/>
<path opacity="0.15" d="M255.334 90.1331C258.527 87.616 262.778 82.0871 265.215 78.0932C271.315 83.0547 277.54 88.3726 280.954 92.1191L291.084 82.0798C286.569 77.9695 278.149 71.5604 271.19 66.2351C273.114 62.4231 275.441 55.4392 276.564 50.0267H284.492C286.591 47.9461 287.766 46.7821 289.865 44.7015V35.8771H243.86V21H228.606V35.8771H184.186V50.0267H203.94C201.408 64.7656 192.019 75.5834 181.47 83.0619C183.863 86.3065 188.936 91.8645 191.373 94.7527C196.739 90.4023 203.492 84.095 207.611 78.6897C210.621 81.5633 215.906 86.0665 219.393 89.6384C208.734 100.718 195.44 110.648 181 116.214C183.305 120.135 186.241 126.871 188.561 130.378C203.081 123.728 217.616 112.067 228.606 99.3722V132H243.86V99.3722C253.822 111.157 271.396 123.401 283.883 129.592C287.157 125.576 290.277 120.098 293 115.61C276.358 108.917 264.936 99.8742 255.334 90.1331ZM228.606 77.9768C225.222 74.7104 217.668 69.858 213.718 66.4898C215.326 62.5031 218.24 55.4101 219.312 50.0413H228.606V77.9768ZM243.86 78.8498V50.0413H261.214C258.835 66.7226 243.86 78.8498 243.86 78.8498Z" fill="white"/>
<path opacity="0.15" d="M146.444 151H131.331V190.048H110V204.305H131.331V260H141.084C143.181 257.904 144.354 256.731 146.452 254.634V204.305H161.601C164.49 201.417 166.111 199.797 169 196.909V190.048H146.452V151H146.444Z" fill="white"/>
<path opacity="0.15" d="M106 184H63V195H106V184Z" fill="white"/>
<path opacity="0.15" d="M110.993 166.555H94.9966C94.9966 166.555 88.9711 152.952 84.0676 146L72.5814 151.232C75.4195 155.857 78.6365 161.938 80.4865 166.563H59V178H105.562C107.686 175.907 108.875 174.736 111 172.643V166.563L110.993 166.555Z" fill="white"/>
<path opacity="0.15" d="M63.2162 237.151L63 237.301L63.2162 237.451V259H99.7257C101.786 256.856 102.939 255.656 105 253.512V216H63.2162V237.151Z" fill="white"/>
<path opacity="0.15" d="M105 200H63V211H105V200Z" fill="white"/>
<path opacity="0.15" d="M182 257H286.665C288.75 255.015 289.916 253.905 292 251.921V248H182V257Z" fill="white"/>
<path opacity="0.15" d="M243.901 197.002H280.281L283.758 193.553V189.424H243.901V185.215H273.708C275.785 183.154 276.951 181.997 279.035 179.928V173.434H285.82C287.904 171.366 289.07 170.209 291.155 168.14V165.74H279.043V154.198H243.909V148H228.765V154.198H194.965V161.769H228.765V165.74H182.364V173.434H228.765V177.759H194.36V185.215H228.765V189.424H190.607V196.995H228.765V201.204H182V209H286.665C288.75 206.932 289.916 205.775 292 203.706V201.204H243.909V196.995L243.901 197.002ZM243.901 161.777H264.62V165.747H243.901V161.777ZM243.901 173.434H264.62V177.759H243.901V173.434Z" fill="white"/>
<path opacity="0.15" d="M279 214H195V242H275.507C276.869 240.656 277.631 239.905 279 238.553V214Z" fill="white"/>
<path opacity="0.15" d="M125.393 83.0515H162.439C164.542 80.9707 165.719 79.8066 167.823 77.7259V68.7772H120.752V53.2953H153.635C155.739 51.2145 156.916 50.0505 159.019 47.9697V39.021H120.752V21H105.226V39.021H68.0619V53.2953H105.226V68.7772H58.8904V83.0515H100.585C88.6039 95.6742 70.4302 108.29 56 115.594C58.052 120.447 59.8319 125.969 62.281 129.592C76.5861 122.215 94.098 109.534 105.226 96.2271V132H115.368C117.472 129.919 118.648 128.755 120.752 126.674V95.4996C131.88 109.286 148.987 123 163.417 130.378C165.859 126.631 168.963 120.076 171 116.3C155.886 108.712 138.293 97.2602 125.393 83.0442V83.0515Z" fill="white"/>
<path d="M255.334 90.1331C258.527 87.616 262.778 82.0871 265.215 78.0932C271.315 83.0547 277.54 88.3726 280.954 92.1191L291.084 82.0798C286.569 77.9695 278.149 71.5604 271.19 66.2351C273.114 62.4231 275.441 55.4392 276.564 50.0267H284.492C286.591 47.9461 287.766 46.7821 289.865 44.7015V35.8771H243.86V21H228.606V35.8771H184.186V50.0267H203.94C201.408 64.7656 192.019 75.5834 181.47 83.0619C183.863 86.3065 188.936 91.8645 191.373 94.7527C196.739 90.4023 203.492 84.095 207.611 78.6897C210.621 81.5633 215.906 86.0665 219.393 89.6384C208.734 100.718 195.44 110.648 181 116.214C183.305 120.135 186.241 126.871 188.561 130.378C203.081 123.728 217.616 112.067 228.606 99.3722V132H243.86V99.3722C253.822 111.157 271.396 123.401 283.883 129.592C287.157 125.576 290.277 120.098 293 115.61C276.358 108.917 264.936 99.8742 255.334 90.1331ZM213.718 66.4898C215.326 62.5031 218.24 55.4101 219.312 50.0413H228.606V77.9768C225.222 74.7104 217.668 69.858 213.718 66.4898ZM243.86 78.8498V50.0413H261.214C258.835 66.7226 243.86 78.8498 243.86 78.8498Z" stroke="white" stroke-width="1.8" stroke-linecap="round" stroke-linejoin="round"/>
<path d="M105.032 177.969H59V166.543H80.242C78.4131 161.922 75.2326 155.847 72.4268 151.227L83.7823 146C88.6301 152.952 94.5869 166.535 94.5869 166.535H110.401V172.61C108.3 174.701 107.125 175.871 105.024 177.962L105.032 177.969ZM62.4375 194.374V183.437H105.274V194.374H62.4375ZM105.032 210.661H62.4375V199.725H105.032V210.661ZM99.6551 258.421H62.4375V216.495H105.032V253.07C102.931 255.16 101.756 256.33 99.6551 258.421ZM161.596 204.455H146.421V254.649C144.321 256.74 143.145 257.909 141.045 260H131.276V204.455H109.909V190.236H131.276V151.293H146.414V190.236H169V197.078C166.106 199.959 164.483 201.574 161.589 204.455H161.596Z" stroke="white" stroke-width="1.8" stroke-linecap="round" stroke-linejoin="round"/>
<path d="M182 247.546H291.884V251.664C289.801 253.749 288.637 254.915 286.555 257H182V247.546ZM292 201.625V204.147C289.918 206.232 288.753 207.398 286.671 209.483H182.116V201.625H228.832V197.383H190.714V189.752H228.832V185.509H194.463V177.994H228.832V173.635H182.48V165.88H228.832V161.878H195.067V154.247H228.832V148H243.96V154.247H279.056V165.88H291.156V168.3C289.073 170.385 287.909 171.551 285.827 173.635H279.049V180.181C276.974 182.258 275.809 183.425 273.727 185.509H243.952V189.752H283.766V193.914C282.412 195.269 281.655 196.027 280.294 197.39H243.952V201.633H291.993L292 201.625ZM243.96 165.88H264.657V161.878H243.96V165.88ZM243.96 177.994H264.657V173.635H243.96V177.994Z" stroke="white" stroke-width="1.8" stroke-linecap="round" stroke-linejoin="round"/>
<path d="M279 214V238.553C277.638 239.897 276.876 240.649 275.507 242H195V214H279Z" stroke="white" stroke-width="1.8" stroke-linecap="round" stroke-linejoin="round"/>
<path d="M195 228H227.513C232.754 228 237 223.804 237 218.625V214" stroke="white" stroke-width="1.8" stroke-linecap="round" stroke-linejoin="round"/>
<path d="M237 242V237.351C237 232.185 232.754 228 227.513 228H195" stroke="white" stroke-width="1.8" stroke-linecap="round" stroke-linejoin="round"/>
<path d="M237 214V218.625C237 223.804 241.105 228 246.173 228H279" stroke="white" stroke-width="1.8" stroke-linecap="round" stroke-linejoin="round"/>
<path d="M279 228H246.173C241.105 228 237 232.185 237 237.351V242" stroke="white" stroke-width="1.8" stroke-linecap="round" stroke-linejoin="round"/>
<path d="M63 238H74.7293C79.8512 238 84 233.804 84 228.625V224" stroke="white" stroke-width="1.8" stroke-linecap="round" stroke-linejoin="round"/>
<path d="M84 251V246.683C84 241.886 79.8512 238 74.7293 238H63" stroke="white" stroke-width="1.8" stroke-linecap="round" stroke-linejoin="round"/>
<path d="M84 224V228.625C84 233.804 88.0791 238 93.1151 238H105" stroke="white" stroke-width="1.8" stroke-linecap="round" stroke-linejoin="round"/>
<path d="M105 238H93.1151C88.0791 238 84 241.886 84 246.683V251" stroke="white" stroke-width="1.8" stroke-linecap="round" stroke-linejoin="round"/>
<path d="M125.396 83.0474C138.303 97.2625 155.887 108.72 171 116.301C168.963 120.076 165.859 126.631 163.418 130.378C148.988 123.001 131.882 109.288 120.755 95.502V126.675C118.652 128.755 117.475 129.919 115.372 132H105.223V96.2295C94.0955 109.535 76.5848 122.215 62.2806 129.592C59.839 125.962 58.0592 120.448 56 115.588C70.4292 108.284 88.6018 95.6693 100.582 83.0474H58.8903V68.7741H105.223V53.2932H68.0611V39.0199H105.223V21H120.748V39.0199H159.012V47.968C156.909 50.0486 155.732 51.2125 153.629 53.2932H120.748V68.7741H167.816V77.7222C165.712 79.8028 164.536 80.9668 162.432 83.0474H125.388H125.396Z" stroke="white" stroke-width="1.8" stroke-linecap="round" stroke-linejoin="round"/>
<path d="M119 86L113.5 80L108 86" stroke="white" stroke-width="1.8" stroke-linecap="round" stroke-linejoin="round"/>
<path d="M113 80V74" stroke="white" stroke-width="1.8" stroke-linecap="round" stroke-linejoin="round"/>
<path d="M242 91L236.5 85L231 91" stroke="white" stroke-width="1.8" stroke-linecap="round" stroke-linejoin="round"/>
<path d="M236 85V78" stroke="white" stroke-width="1.8" stroke-linecap="round" stroke-linejoin="round"/>
</svg>
