<svg width="321" height="174" viewBox="0 0 321 174" fill="none" xmlns="http://www.w3.org/2000/svg">
<path d="M187.537 97.3028C190.353 97.3028 192.636 87.0922 192.636 74.4967C192.636 61.9012 190.353 51.6906 187.537 51.6906C184.721 51.6906 182.438 61.9012 182.438 74.4967C182.438 87.0922 184.721 97.3028 187.537 97.3028Z" stroke="#00FFCC" stroke-width="0.625684" stroke-linecap="round" stroke-linejoin="round"/>
<path d="M203.339 92.7398C205.593 92.7398 207.419 84.5719 207.419 74.4963C207.419 64.4206 205.593 56.2527 203.339 56.2527C201.086 56.2527 199.26 64.4206 199.26 74.4963C199.26 84.5719 201.086 92.7398 203.339 92.7398Z" stroke="white" stroke-width="0.531832" stroke-linecap="round" stroke-linejoin="round"/>
<path d="M217.105 88.1811C218.794 88.1811 220.162 82.0544 220.162 74.4967C220.162 66.9391 218.794 60.8124 217.105 60.8124C215.417 60.8124 214.048 66.9391 214.048 74.4967C214.048 82.0544 215.417 88.1811 217.105 88.1811Z" stroke="#00FFCC" stroke-width="0.625684" stroke-linecap="round" stroke-linejoin="round"/>
<path d="M228.83 83.6181C229.956 83.6181 230.868 79.5341 230.868 74.4963C230.868 69.4585 229.956 65.3745 228.83 65.3745C227.705 65.3745 226.792 69.4585 226.792 74.4963C226.792 79.5341 227.705 83.6181 228.83 83.6181Z" stroke="#00FFCC" stroke-width="0.625684" stroke-linecap="round" stroke-linejoin="round"/>
<path d="M238.074 80.6613C238.836 80.6613 239.453 77.9014 239.453 74.4969C239.453 71.0923 238.836 68.3324 238.074 68.3324C237.313 68.3324 236.695 71.0923 236.695 74.4969C236.695 77.9014 237.313 80.6613 238.074 80.6613Z" stroke="white" stroke-width="0.531832" stroke-linecap="round" stroke-linejoin="round"/>
<path d="M248.199 83.6181C249.325 83.6181 250.237 79.5341 250.237 74.4963C250.237 69.4585 249.325 65.3745 248.199 65.3745C247.074 65.3745 246.161 69.4585 246.161 74.4963C246.161 79.5341 247.074 83.6181 248.199 83.6181Z" stroke="#00FFCC" stroke-width="0.625684" stroke-linecap="round" stroke-linejoin="round"/>
<path d="M259.924 88.1811C261.613 88.1811 262.982 82.0544 262.982 74.4967C262.982 66.9391 261.613 60.8124 259.924 60.8124C258.236 60.8124 256.867 66.9391 256.867 74.4967C256.867 82.0544 258.236 88.1811 259.924 88.1811Z" stroke="#00FFCC" stroke-width="0.625684" stroke-linecap="round" stroke-linejoin="round"/>
<path d="M273.689 92.7398C275.942 92.7398 277.769 84.5719 277.769 74.4963C277.769 64.4206 275.942 56.2527 273.689 56.2527C271.436 56.2527 269.609 64.4206 269.609 74.4963C269.609 84.5719 271.436 92.7398 273.689 92.7398Z" stroke="#00FFCC" stroke-width="0.625684" stroke-linecap="round" stroke-linejoin="round"/>
<path d="M289.493 97.3028C292.309 97.3028 294.592 87.0922 294.592 74.4967C294.592 61.9012 292.309 51.6906 289.493 51.6906C286.677 51.6906 284.395 61.9012 284.395 74.4967C284.395 87.0922 286.677 97.3028 289.493 97.3028Z" stroke="white" stroke-width="0.531832" stroke-linecap="round" stroke-linejoin="round"/>
<path d="M303.607 74.4963H173.055" stroke="#00FFCC" stroke-width="0.625684" stroke-linecap="round" stroke-linejoin="round"/>
<path d="M319.996 30.7282H193.717L162.428 0.638672H0.94043V172.757H310.009C313.912 168.854 316.097 166.669 320 162.766V30.7282H319.996Z" stroke="#00FFCC" stroke-width="0.625684" stroke-linecap="round" stroke-linejoin="round"/>
<mask id="mask0_268_3898" style="mask-type:luminance" maskUnits="userSpaceOnUse" x="172" y="0" width="148" height="24">
<path d="M172.845 0.638672H319.456V23.648H196.394L172.845 0.638672Z" fill="white"/>
</mask>
<g mask="url(#mask0_268_3898)">
<path d="M217.037 27.4243H211.053L236.58 -4.78674H242.561L217.037 27.4243Z" fill="#00FFCC"/>
<path d="M229.006 27.4243H223.021L248.545 -4.78674H254.53L229.006 27.4243Z" fill="#00FFCC"/>
<path d="M240.972 27.4243H234.987L260.514 -4.78674H266.499L240.972 27.4243Z" fill="#00FFCC"/>
<path d="M252.942 27.4243H246.957L272.481 -4.78674H278.465L252.942 27.4243Z" fill="#00FFCC"/>
<path d="M264.907 27.4243H258.923L284.45 -4.78674H290.434L264.907 27.4243Z" fill="#00FFCC"/>
<path d="M276.877 27.4243H270.893L296.416 -4.78674H302.401L276.877 27.4243Z" fill="#00FFCC"/>
<path d="M288.842 27.4243H282.86L308.384 -4.78674H314.369L288.842 27.4243Z" fill="#00FFCC"/>
<path d="M157.197 27.4243H151.216L176.74 -4.78674H182.724L157.197 27.4243Z" fill="#00FFCC"/>
<path d="M169.166 27.4243H163.182L188.709 -4.78674H194.69L169.166 27.4243Z" fill="#00FFCC"/>
<path d="M181.133 27.4243H175.151L200.675 -4.78674H206.66L181.133 27.4243Z" fill="#00FFCC"/>
<path d="M193.103 27.4243H187.118L212.645 -4.78674H218.626L193.103 27.4243Z" fill="#00FFCC"/>
<path d="M205.068 27.4243H199.087L224.611 -4.78674H230.595L205.068 27.4243Z" fill="#00FFCC"/>
<path d="M300.812 27.4243H294.827L320.354 -4.78674H326.335L300.812 27.4243Z" fill="#00FFCC"/>
<path d="M328.134 0.494995L306.797 27.4241H312.778L328.134 8.04819V0.494995Z" fill="#00FFCC"/>
<path d="M328.133 15.5985L318.762 27.4245H324.746L328.133 23.1517V15.5985Z" fill="#00FFCC"/>
</g>
<path d="M312.611 34.6558H316.658" stroke="#00FFCC" stroke-width="0.625684" stroke-linecap="round" stroke-linejoin="round"/>
<path d="M312.611 38.4021H316.658" stroke="#00FFCC" stroke-width="0.625684" stroke-linecap="round" stroke-linejoin="round"/>
<path d="M312.611 42.1484H316.658" stroke="#00FFCC" stroke-width="0.625684" stroke-linecap="round" stroke-linejoin="round"/>
<path d="M312.611 45.8947H316.658" stroke="#00FFCC" stroke-width="0.625684" stroke-linecap="round" stroke-linejoin="round"/>
<path d="M312.611 49.6421H316.658" stroke="#00FFCC" stroke-width="0.625684" stroke-linecap="round" stroke-linejoin="round"/>
<path d="M312.611 53.3884H316.658" stroke="#00FFCC" stroke-width="0.625684" stroke-linecap="round" stroke-linejoin="round"/>
<path d="M312.611 57.1346H316.658" stroke="#00FFCC" stroke-width="0.625684" stroke-linecap="round" stroke-linejoin="round"/>
<path d="M312.611 60.8823H316.658" stroke="#00FFCC" stroke-width="0.625684" stroke-linecap="round" stroke-linejoin="round"/>
<path d="M8.30343 0H0V173.094H8.30343V0Z" fill="#00FFCC"/>
<path opacity="0.15" d="M184.403 125.87V123.235H173.945V128.161H182.108C183.004 127.265 183.507 126.762 184.403 125.866V125.87Z" fill="white"/>
<path opacity="0.15" d="M187.526 143.178V140.374H173.945V145.472H185.232C186.128 144.576 186.631 144.074 187.526 143.178Z" fill="white"/>
<path opacity="0.15" d="M203.24 142.505C201.595 138.984 201.411 135.128 201.411 131.245V128.89H206.377C205.648 131.504 204.662 134.245 203.849 136.044C205.091 136.517 207.19 137.542 208.219 138.142C209.294 135.844 210.49 132.923 211.496 129.829C212.235 127.548 211.083 125.084 208.855 124.191C208.265 123.955 207.632 123.835 206.996 123.835H195.41C196.066 121.923 196.676 119.102 196.912 117.107H190.868C189.509 124.9 187.261 129.906 184.234 134.572C185.449 135.731 187.464 137.159 188.643 137.799C190.358 135.401 191.983 132.357 193.312 128.887H195.93V133.942C195.93 139.467 194.624 147.643 183.145 152.915C184.047 154.391 185.279 156.485 186.222 157.634C193.292 154.251 197.005 149.282 198.804 144.699C201.118 150.268 205.148 154.537 210.63 156.978C211.572 155.583 212.558 153.694 213.377 152.219C208.492 150.391 205.335 146.991 203.24 142.505Z" fill="white"/>
<path opacity="0.15" d="M250.081 118.31H244.726V127.349H238.814V118.31H233.759V127.349H227.931V118.31H222.619V127.349H216.834V132.274H222.619V150.098C222.619 153.665 225.51 156.556 229.076 156.556H253.441C254.337 155.66 254.84 155.157 255.736 154.261V151.627H230.435C229.053 151.627 227.931 150.508 227.931 149.122V132.267H233.759V138.935C233.759 143.441 237.412 147.097 241.921 147.097C246.427 147.097 250.084 143.444 250.084 138.935V132.267H253.444C254.34 131.372 254.843 130.869 255.739 129.973V127.339H250.084V118.3L250.081 118.31ZM244.726 139.478C244.726 141.11 243.403 142.435 241.768 142.435C240.133 142.435 238.811 141.113 238.811 139.478V132.274H244.722V139.478H244.726Z" fill="white"/>
<path opacity="0.15" d="M295.335 144.823C294.992 149.578 294.426 150.871 293.44 150.784C290.013 150.354 287.742 144.013 286.543 134.505L297.42 133.007C298.009 132.331 298.379 131.904 298.968 131.232V127.995L286.03 129.58C285.73 125.94 285.557 121.91 285.474 117.714H280.288C280.418 122.213 280.675 127.715 280.974 130.266C276.418 130.992 274.094 131.295 271.926 132.86V127.398C273.468 124.784 274.797 121.61 275.909 118.996L271.023 117.411C268.452 123.878 263.953 130.176 259.327 134.119C260.093 135.671 261.302 138.052 262.155 139.304C263.697 137.932 265.155 136.304 266.611 134.505V156.998H269.635C270.53 156.106 271.033 155.603 271.929 154.711L271.962 143.074C271.962 138.592 275.256 136.424 277.278 135.957C279.299 135.491 281.484 135.188 281.484 135.188C283.026 148.256 286.409 156.309 293.65 156.995C296.047 157.125 298.712 154.647 299.784 146.378C298.842 145.865 297.19 145.299 295.331 144.823H295.335Z" fill="white"/>
<path opacity="0.15" d="M294.146 126.467L298.246 123.873C296.018 121.688 293.447 118.687 292.378 116.676L288.265 119.334C289.507 121.348 291.878 124.412 294.149 126.47L294.146 126.467Z" fill="white"/>
<path d="M184.403 123.236H173.945V128.162H182.108C183.004 127.266 183.507 126.763 184.403 125.867V123.233V123.236Z" stroke="white" stroke-width="0.938526" stroke-linecap="round" stroke-linejoin="round"/>
<path d="M187.526 140.374H173.945V145.472H185.232C186.128 144.576 186.631 144.074 187.526 143.178V140.374Z" stroke="white" stroke-width="0.938526" stroke-linecap="round" stroke-linejoin="round"/>
<path d="M201.411 131.245V128.89H206.377C205.648 131.504 204.662 134.245 203.849 136.044C205.091 136.517 207.19 137.542 208.219 138.142C209.294 135.844 210.49 132.923 211.496 129.829C212.235 127.548 211.083 125.084 208.855 124.191C208.265 123.955 207.632 123.835 206.996 123.835H195.41C196.066 121.923 196.676 119.102 196.912 117.107H190.868C189.509 124.9 187.264 129.906 184.234 134.572C185.449 135.731 187.464 137.159 188.643 137.799C190.358 135.401 191.983 132.357 193.312 128.887H195.93V133.942C195.93 139.467 194.624 147.643 183.145 152.915C184.047 154.391 185.279 156.485 186.222 157.634C193.292 154.251 197.005 149.282 198.804 144.699C201.118 150.268 205.148 154.537 210.63 156.978C211.572 155.583 212.558 153.694 213.377 152.219C208.492 150.391 205.335 146.991 203.24 142.505C201.595 138.984 201.411 135.128 201.411 131.245Z" stroke="white" stroke-width="0.938526" stroke-linecap="round" stroke-linejoin="round"/>
<path d="M233.755 138.945V132.278H227.927V149.132C227.927 150.514 229.046 151.637 230.431 151.637H255.732V154.271C254.836 155.167 254.333 155.67 253.437 156.566H229.072C225.506 156.566 222.615 153.675 222.615 150.108V132.284H216.83V127.359H222.615V118.32H227.927V127.359H233.755V118.32H238.81V127.359H244.722V118.32H250.077V127.359H255.732V129.993C254.836 130.889 254.333 131.392 253.437 132.287H250.077V138.955C250.077 143.461 246.423 147.117 241.914 147.117C237.408 147.117 233.752 143.464 233.752 138.955L233.755 138.945ZM238.81 132.278V139.481C238.81 141.113 240.132 142.438 241.768 142.438C243.399 142.438 244.725 141.116 244.725 139.481V132.278H238.814H238.81Z" stroke="white" stroke-width="0.938526" stroke-linecap="round" stroke-linejoin="round"/>
<path d="M295.335 144.823C294.992 149.578 294.426 150.871 293.44 150.784C290.013 150.354 287.742 144.013 286.543 134.505L297.42 133.007L298.968 131.232V127.995L286.03 129.58C285.73 125.94 285.557 121.91 285.474 117.714H280.288C280.418 122.213 280.675 127.715 280.974 130.266C276.418 130.992 274.094 131.295 271.926 132.86V127.398C273.468 124.784 274.797 121.61 275.909 118.996L271.023 117.411C268.452 123.878 263.953 130.176 259.327 134.119C260.093 135.671 261.302 138.052 262.155 139.304C263.697 137.932 265.155 136.304 266.611 134.505V156.998H269.635C270.53 156.106 271.033 155.603 271.929 154.711L271.962 143.074C271.962 138.592 275.256 136.424 277.278 135.957C279.299 135.491 281.484 135.188 281.484 135.188C283.026 148.256 286.409 156.309 293.65 156.995C296.047 157.125 298.712 154.647 299.784 146.378C298.842 145.865 297.19 145.299 295.331 144.823H295.335Z" stroke="white" stroke-width="0.938526" stroke-linecap="round" stroke-linejoin="round"/>
<path d="M292.373 116.671L288.26 119.328C289.502 121.343 291.873 124.407 294.144 126.465L298.244 123.871C296.016 121.686 293.445 118.686 292.376 116.674L292.373 116.671Z" stroke="white" stroke-width="0.938526" stroke-linecap="round" stroke-linejoin="round"/>
<path opacity="0.15" d="M134.412 61.6547C136.177 60.2493 138.529 57.162 139.881 54.9341C143.258 57.7016 146.701 60.6755 148.593 62.767L154.198 57.162C151.7 54.8674 147.041 51.2873 143.191 48.3167C144.257 46.1886 145.542 42.2888 146.165 39.2682H150.551C151.713 38.1059 152.363 37.4565 153.522 36.2975V31.3686H128.065V23.0627H119.622V31.3686H95.041V39.2682H105.975C104.572 47.4974 99.3771 53.5386 93.5391 57.7149C94.8645 59.5266 97.672 62.6271 99.0208 64.2423C101.991 61.8112 105.728 58.291 108.006 55.2704C109.671 56.8756 112.595 59.39 114.524 61.3849C108.622 67.5727 101.269 73.1177 93.2793 76.2249C94.5548 78.4162 96.18 82.1762 97.4622 84.1344C105.498 80.4211 113.541 73.9103 119.619 66.82V85.0369H128.061V66.82C133.573 73.4008 143.298 80.2379 150.208 83.6915C152.016 81.4502 153.748 78.3896 155.254 75.8819C146.042 72.1419 139.721 67.0931 134.412 61.6547ZM119.622 54.8641C117.751 53.0391 113.571 50.3315 111.383 48.4499C112.272 46.2219 113.884 42.2655 114.48 39.2648H119.622V54.8641ZM128.065 55.3503V39.2648H137.666C136.351 48.5798 128.065 55.3503 128.065 55.3503Z" fill="white"/>
<path opacity="0.15" d="M25.6162 110.784H51.0733C52.2356 109.621 52.885 108.972 54.0439 107.813V104.436H45.2985C45.2985 104.436 42.0048 96.8863 39.3239 93.0231L33.0429 95.9271C34.5948 98.4948 36.3532 101.868 37.3656 104.436H25.6162V110.784Z" fill="white"/>
<path opacity="0.15" d="M51.0764 122.87H27.5176V128.948H51.0764V122.87Z" fill="white"/>
<path opacity="0.15" d="M27.5187 143.65L27.3955 143.73L27.5187 143.81V155.483H48.1035C49.2658 154.321 49.9152 153.671 51.0742 152.512V132.187H27.5154V143.65H27.5187Z" fill="white"/>
<path opacity="0.15" d="M51.2096 113.822H27.5176V119.899H51.2096V113.822Z" fill="white"/>
<path opacity="0.15" d="M73.9658 95.9572H65.5934V117.598H53.7773V125.497H65.5934V156.363H70.9952C72.1575 155.2 72.8069 154.551 73.9658 153.392V125.501H82.3583C83.9602 123.899 84.856 123.003 86.4579 121.401V117.601H73.9658V95.9605V95.9572Z" fill="white"/>
<path opacity="0.15" d="M128.063 121.318H148.345C149.101 120.562 149.524 120.139 150.28 119.383V117.065H128.063V114.7H144.678C145.837 113.541 146.486 112.892 147.645 111.733V108.083H151.425C152.588 106.921 153.237 106.271 154.396 105.112V103.763H147.642V97.2793H128.06V93.7991H119.617V97.2793H100.778V101.532H119.617V103.76H93.7539V108.083H119.617V110.514H100.438V114.7H119.617V117.065H98.3465V121.318H119.617V123.682H93.5508V128.062H151.895C153.054 126.899 153.707 126.25 154.866 125.091V123.682H128.056V121.318H128.063ZM128.063 101.532H139.609V103.76H128.063V101.532ZM128.063 108.083H139.609V110.514H128.063V108.083Z" fill="white"/>
<path opacity="0.15" d="M93.4883 154.541H151.832C152.995 153.379 153.644 152.729 154.803 151.57V149.276H93.4883V154.544V154.541Z" fill="white"/>
<path opacity="0.15" d="M147.713 130.809H101.118V146.551H145.778C146.534 145.795 146.957 145.372 147.713 144.616V130.812V130.809Z" fill="white"/>
<path opacity="0.15" d="M62.212 57.7019H82.6769C83.8392 56.5396 84.4887 55.8902 85.6476 54.7312V49.7357H59.6477V41.0935H77.8113C78.9736 39.9312 79.623 39.2818 80.782 38.1228V33.1273H59.6444V23.0664H51.0687V33.1273H30.5406V41.0968H51.0687V49.7391H25.4751V57.7085H48.5044C41.887 64.7555 31.8494 71.7992 23.8799 75.8789C25.0155 78.5897 25.998 81.6703 27.3468 83.6952C35.2463 79.5755 44.9209 72.4952 51.0687 65.0653V85.0406H56.6737C57.836 83.8783 58.4854 83.2289 59.6444 82.0699V64.6623C65.7888 72.362 75.2403 80.0185 83.2098 84.1381C84.5586 82.0433 86.2737 78.3866 87.3994 76.2785C79.0535 72.0423 69.3356 65.6481 62.2087 57.7085L62.212 57.7019Z" fill="white"/>
<path d="M134.412 61.6547C136.177 60.2493 138.529 57.162 139.881 54.9341C143.258 57.7016 146.701 60.6755 148.593 62.767L154.198 57.162C151.7 54.8674 147.041 51.2873 143.191 48.3167C144.257 46.1886 145.542 42.2888 146.165 39.2682H150.551C151.713 38.1059 152.363 37.4565 153.522 36.2975V31.3686H128.065V23.0627H119.622V31.3686H95.041V39.2715H105.975C104.572 47.5007 99.3771 53.542 93.5391 57.7182C94.8645 59.5299 97.672 62.6305 99.0208 64.2457C101.991 61.8145 105.728 58.2944 108.006 55.2737C109.671 56.879 112.595 59.3934 114.524 61.3882C108.622 67.576 101.269 73.121 93.2793 76.2282C94.5548 78.4196 96.18 82.1795 97.4622 84.1378C105.498 80.4244 113.541 73.9136 119.619 66.8233V85.0403H128.061V66.8233C133.573 73.4041 143.298 80.2413 150.208 83.6948C152.016 81.4535 153.748 78.3929 155.254 75.8852C146.042 72.1452 139.721 67.0964 134.412 61.658V61.6547ZM111.383 48.4499C112.276 46.2219 113.884 42.2655 114.48 39.2648H119.622V54.8641C117.751 53.0391 113.571 50.3315 111.383 48.4499ZM128.061 55.3537V39.2682H137.663C136.347 48.5831 128.061 55.3537 128.061 55.3537Z" stroke="white" stroke-width="0.938526" stroke-linecap="round" stroke-linejoin="round"/>
<path d="M51.0733 110.784H25.6162V104.436H37.3656C36.3532 101.868 34.5981 98.4948 33.0429 95.9271L39.3239 93.0231C42.0048 96.8863 45.2985 104.436 45.2985 104.436H54.044V107.813C52.8817 108.975 52.2322 109.625 51.0733 110.784ZM27.5178 119.899V113.821H51.2098V119.899H27.5178ZM51.0766 128.947H27.5178V122.87H51.0766V128.947ZM48.106 155.487H27.5212V132.188H51.0799V152.513C49.9177 153.675 49.2682 154.325 48.1093 155.483L48.106 155.487ZM82.3618 125.5H73.9693V153.392C72.8071 154.554 72.1576 155.204 70.9987 156.363H65.5969V125.497H53.7809V117.598H65.5969V95.9571H73.9693V117.598H86.4614V121.398C84.8595 122.999 83.9637 123.895 82.3618 125.497V125.5Z" stroke="white" stroke-width="0.938526" stroke-linecap="round" stroke-linejoin="round"/>
<path d="M93.4883 149.276H154.803V151.57C153.641 152.733 152.991 153.382 151.832 154.541H93.4883V149.272V149.276ZM154.873 123.682V125.091C153.711 126.253 153.061 126.903 151.902 128.062H93.5582V123.682H119.625V121.318H98.3539V117.065H119.625V114.7H100.445V110.514H119.625V108.083H93.7614V103.76H119.625V101.532H100.785V97.2793H119.625V93.7991H128.067V97.2793H147.65V103.763H154.403V105.112C153.241 106.275 152.592 106.924 151.433 108.083H147.653V111.733C146.494 112.892 145.844 113.541 144.686 114.7H128.07V117.065H150.287V119.383C149.531 120.139 149.108 120.562 148.352 121.318H128.07V123.682H154.88H154.873ZM128.064 103.76H139.61V101.532H128.064V103.76ZM128.064 110.514H139.61V108.083H128.064V110.514Z" stroke="white" stroke-width="0.938526" stroke-linecap="round" stroke-linejoin="round"/>
<path d="M147.713 130.808V144.613C146.957 145.369 146.534 145.792 145.778 146.548H101.118V130.805H147.713V130.808Z" stroke="white" stroke-width="0.938526" stroke-linecap="round" stroke-linejoin="round"/>
<path d="M101.19 138.585H118.828C121.672 138.585 123.977 136.281 123.977 133.436V130.899" stroke="white" stroke-width="0.938526" stroke-linecap="round" stroke-linejoin="round"/>
<path d="M123.977 146.294V143.733C123.977 140.889 121.672 138.585 118.828 138.585H101.19" stroke="white" stroke-width="0.938526" stroke-linecap="round" stroke-linejoin="round"/>
<path d="M123.978 130.902V133.44C123.978 136.284 126.282 138.589 129.126 138.589H147.543" stroke="white" stroke-width="0.938526" stroke-linecap="round" stroke-linejoin="round"/>
<path d="M147.543 138.585H129.126C126.282 138.585 123.978 140.889 123.978 143.733V146.294" stroke="white" stroke-width="0.938526" stroke-linecap="round" stroke-linejoin="round"/>
<path d="M27.3955 143.73H33.9063C36.7504 143.73 39.055 141.425 39.055 138.581V136.044" stroke="white" stroke-width="0.938526" stroke-linecap="round" stroke-linejoin="round"/>
<path d="M39.055 151.44V148.879C39.055 146.035 36.7504 143.731 33.9063 143.731H27.3955" stroke="white" stroke-width="0.938526" stroke-linecap="round" stroke-linejoin="round"/>
<path d="M39.0547 136.047V138.585C39.0547 141.429 41.3593 143.734 44.2034 143.734H50.914" stroke="white" stroke-width="0.938526" stroke-linecap="round" stroke-linejoin="round"/>
<path d="M50.9091 143.731H44.1985C41.3544 143.731 39.0498 146.035 39.0498 148.879V151.44" stroke="white" stroke-width="0.938526" stroke-linecap="round" stroke-linejoin="round"/>
<path d="M62.2132 57.7011C69.3401 65.6406 79.058 72.0349 87.4038 76.2711C86.2782 78.3792 84.5631 82.0392 83.2143 84.1306C75.2448 80.011 65.7966 72.3546 59.6488 64.6548V82.0625C58.4865 83.2248 57.8371 83.8742 56.6782 85.0332H51.0732V65.0578C44.9288 72.4845 35.2541 79.5681 27.3546 83.6877C26.0058 81.6629 25.0233 78.5823 23.8877 75.8714C31.8572 71.7917 41.8948 64.7481 48.5122 57.7011H25.4829V49.7316H51.0765V41.0894H30.5484V33.1199H51.0765V23.059H59.6522V33.1199H80.7898V38.1154C79.6275 39.2777 78.9781 39.9271 77.8191 41.0861H59.6555V49.7283H85.6554V54.7238C84.4931 55.8861 83.8437 56.5355 82.6848 57.6944H62.2198L62.2132 57.7011Z" stroke="white" stroke-width="0.938526" stroke-linecap="round" stroke-linejoin="round"/>
<path d="M58.8641 59.6604L55.6437 56.4299L52.4199 59.6604" stroke="white" stroke-width="0.938526" stroke-linecap="round" stroke-linejoin="round"/>
<path d="M55.6465 56.4293V52.726" stroke="white" stroke-width="0.938526" stroke-linecap="round" stroke-linejoin="round"/>
<path d="M127.065 62.0979L123.842 58.8674L120.621 62.0979" stroke="white" stroke-width="0.938526" stroke-linecap="round" stroke-linejoin="round"/>
<path d="M123.843 58.8669V55.1636" stroke="white" stroke-width="0.938526" stroke-linecap="round" stroke-linejoin="round"/>
</svg>
